<?xml version="1.0" encoding="UTF-8"?>
<svg id="_レイヤー_2" data-name="レイヤー 2" xmlns="http://www.w3.org/2000/svg" width="343.75" height="227.96" viewBox="0 0 343.75 227.96">
  <defs>
    <style>
      .cls-1 {
        fill: #d3ebf2;
      }

      .cls-2 {
        fill: #f2c9b8;
      }

      .cls-3 {
        fill: #faf9f5;
      }

      .cls-4 {
        fill: #f2f1ed;
      }
    </style>
  </defs>
  <g id="_レイヤー_1-2" data-name="レイヤー 1">
    <g>
      <rect class="cls-2" width="170" height="28.49"/>
      <rect class="cls-1" x="173.75" width="170" height="28.49"/>
      <rect class="cls-4" x="0" y="31.52" width="170" height="63.46"/>
      <rect class="cls-4" x="173.75" y="31.52" width="170" height="63.46"/>
      <g>
        <path d="M223.66,13.32c-.17-.57-.22-.92-.38-2.52-.05-.62-.1-.94-.23-1.38.79.01,1.3.05,1.65.14.2.05.29.14.29.29,0,.05-.01.12-.04.22-.09.31-.13.55-.13.88,0,.64.13,1.68.27,2.13.08.25.16.34.3.34.31,0,1.46-.6,2.08-1.08.17-.13.2-.14.26-.14.12,0,.23.09.43.34.32.44.58.92.58,1.11,0,.14-.09.23-.31.3-.81.22-2.13.74-3.03,1.17-1.59.78-2.3,1.5-2.3,2.3s.66,1.12,2.34,1.12c.98,0,1.86-.09,3.06-.29.05-.01.14-.03.17-.03.1,0,.17.05.22.16.04.13.13.92.13,1.23,0,.18-.05.25-.22.3-.29.06-1.86.16-2.85.16-1.66,0-2.77-.22-3.46-.69-.58-.4-.9-1.04-.9-1.82,0-.6.17-1.13.52-1.65.46-.68.95-1.1,2.04-1.75-.27-.25-.38-.43-.49-.83ZM228.38,10.41c.1-.08.17-.1.25-.1.18,0,1.31,1.2,1.31,1.39,0,.08-.1.2-.35.4-.26.22-.29.23-.35.23-.08,0-.09,0-.34-.36-.26-.36-.62-.78-.9-1.01-.04-.04-.07-.08-.07-.12,0-.06.12-.18.44-.43ZM231.2,10.76c0,.08-.04.13-.2.26-.18.16-.43.33-.48.33-.08,0-.1-.04-.26-.25-.3-.43-.48-.64-.95-1.07-.05-.05-.06-.08-.06-.12,0-.12.49-.49.65-.49.22,0,1.3,1.11,1.3,1.34Z"/>
        <path d="M239.18,9.83c.16.1.22.18.22.27s-.01.1-.21.32c-.07.08-.26.36-.47.72q-.65,1.08-1,1.7c-.36.61-.6,1.03-.73,1.22q-.04.07-.22.39c-.17.3-.27.46-.45.7.84-.74,1.3-.94,2.16-.94.57,0,1.08.25,1.4.68.27.36.35.7.47,1.98.07.77.13,1.11.22,1.3.09.18.27.29.51.29.9,0,1.96-1.08,2.48-2.5.13.55.23.81.51,1.29.09.16.12.26.12.39,0,.14-.07.33-.22.57-.68,1.09-1.78,1.74-2.96,1.74-.74,0-1.37-.26-1.69-.69-.26-.36-.38-.84-.48-2.12-.07-.83-.13-1.12-.31-1.33-.14-.16-.35-.23-.64-.23-.86,0-1.99,1.16-2.65,2.69-.19.44-.33.85-.47,1.34-.05.2-.12.27-.21.27-.27,0-.9-.26-1.24-.51-.09-.08-.13-.13-.13-.21,0-.07.03-.13.2-.49.1-.23.14-.3.23-.53q.96-2.25,3.63-7.64c.3-.6.44-.97.53-1.36.68.25.99.4,1.4.69Z"/>
        <path d="M247.91,12.83c-.23.01-.38.03-.53.04-.12.01-.13.01-.14.01-.1,0-.16-.04-.2-.17-.07-.21-.16-.9-.17-1.29.14.01.52.03.99.03.14,0,1.17-.06,1.62-.1.22-1.05.3-1.6.3-2.3,1.34.18,1.82.34,1.82.58,0,.09-.01.12-.21.42-.1.16-.14.3-.36,1.11.61-.1.97-.2,1.46-.35.09-.03.13-.04.2-.04.09,0,.12.06.19.44.07.33.1.6.1.74,0,.16-.04.18-.38.26-.44.1-1.2.23-2,.34-.48,1.46-.81,2.24-1.4,3.46-.46.91-.71,1.39-1.07,1.94-.1.16-.17.21-.26.21-.13,0-.49-.2-.95-.53-.21-.14-.26-.21-.26-.3s.05-.17.22-.4c.38-.47.87-1.27,1.3-2.13.36-.71.49-1.01.87-2.04-.51.04-.55.05-1.14.09ZM252.19,20.32c-1.42,0-2.38-.78-2.38-1.94s1-2.09,2.34-2.09c.31,0,.46.01.99.09-.05-.62-.05-.87-.1-2.08,0-.25-.03-.58-.05-1,.66.06,1.17.14,1.42.25.1.04.16.1.16.21,0,.07-.01.12-.03.21-.07.27-.08.47-.08.82,0,.48.04,1.3.08,1.94.92.42,1.3.62,1.95,1.13.29.22.39.34.39.44,0,.13-.06.25-.43.83-.16.26-.27.38-.36.38q-.08,0-.44-.34c-.29-.29-.61-.51-1.07-.78,0,1.21-.88,1.94-2.38,1.94ZM252.17,17.54c-.62,0-1.05.3-1.05.75,0,.43.39.7.97.7.69,0,1.05-.35,1.05-1.04,0-.1,0-.21-.01-.21-.26-.13-.61-.21-.96-.21ZM257.03,13.85c-.16.22-.23.29-.33.29-.06,0-.12-.03-.21-.12-.33-.31-.78-.65-1.26-.95q-.31-.2-.88-.46c-.18-.08-.25-.13-.25-.23,0-.09.06-.21.26-.51.31-.46.39-.53.51-.53.25,0,1.21.49,1.9.96.56.38.73.53.73.68,0,.1-.21.49-.47.87Z"/>
        <path d="M259.61,19.53c.74-.81,1.05-1.3,1.38-2.2l1.21.51c-.4,1.01-.71,1.56-1.44,2.48l-1.14-.79ZM264.63,9.62c0-.27-.01-.51-.06-.79h1.53c-.04.26-.07.49-.07.79v.12h2.94c.61,0,.94-.01,1.33-.08v1.21c-.38-.04-.68-.05-1.33-.05h-.7c-.12.27-.22.46-.36.74h1.69c.74,0,1.08-.01,1.44-.07v1.21c-.36-.05-.73-.06-1.46-.06h-8.32c-.7,0-1.07.01-1.43.06v-1.21c.35.05.74.07,1.48.07h1.55c-.1-.29-.16-.42-.33-.74h-.69c-.62,0-.94.01-1.27.05v-1.21c.34.05.71.08,1.33.08h2.73v-.12ZM262.37,17.08c-.53,0-.83.01-1.21.03.03-.25.04-.46.04-.92v-1.98c0-.51-.01-.79-.05-1.12.33.03.66.04,1.35.04h5.8c.75,0,1.04-.01,1.36-.04-.04.29-.05.59-.05,1.12v1.87c0,.4.01.65.05,1.03-.17,0-.19,0-.42-.01h-.34c-.16-.01-.27-.01-.34-.01h-2.85c.38.25.56.39,1.23.98l-1.03.82c-.57-.65-.62-.69-1.42-1.33l.62-.47h-2.77ZM262.5,14.65h5.81v-.52h-5.81v.52ZM262.5,16.08h5.81v-.51h-5.81v.51ZM267.37,18.11v-.13c.44.2.69.26,1.27.34-.04.94-.13,1.33-.36,1.59-.34.38-.87.46-3.02.46s-2.59-.14-2.59-.88v-1.09c0-.42-.01-.68-.07-.92h1.43c-.04.31-.05.48-.05.92v.55c0,.14.04.2.2.23.14.04.66.08,1.12.08,1.12,0,1.6-.04,1.81-.13.12-.05.17-.14.21-.34.03-.13.05-.4.05-.53v-.13ZM266.5,11.56c.16-.3.22-.44.35-.74h-2.94c.13.27.17.36.33.74h2.26ZM270.07,20.16c-.61-1.01-.99-1.53-1.7-2.34l1.09-.62c.78.83,1.21,1.37,1.74,2.18l-1.13.78Z"/>
        <path d="M275.72,18.17v-.61h-1.13v1.29h-1.31c.04-.38.07-.83.07-1.51v-6.19c0-.55-.01-.96-.05-1.29.33.04.58.05,1.12.05h1.47c.47,0,.77-.01,1.08-.05-.01.22-.03.6-.03,1.25v5.69c0,.52.01.84.04,1.25,1.07-.9,1.94-2,2.52-3.21h-1.26c-.44,0-.74.01-1.04.05v-1.38c.4.04.53.05,1.05.05h1.69v-1.64h-1.04c-.56,0-.99.01-1.37.05v-1.35c.38.04.81.07,1.37.07h1.04v-.74c0-.44-.01-.69-.05-.99h1.43c-.05.3-.06.53-.06.99v.74h1.36c.62,0,1.03-.03,1.39-.08v1.38c-.4-.04-.86-.06-1.42-.06h-1.34v1.64h1.72c.65,0,1.09-.03,1.48-.07v1.4c-.35-.04-.87-.06-1.48-.06h-1.39c.69,1.44,1.69,2.52,3.25,3.51-.32.48-.52.84-.74,1.35-1.52-1.18-2.37-2.21-2.87-3.52.03.53.04.75.04,1.24v1.79c0,.51.01.86.06,1.26h-1.44c.04-.39.07-.77.07-1.26v-1.82c0-.44.01-.75.03-1.27-.38.86-.7,1.37-1.31,2.09-.57.69-1.09,1.16-1.77,1.62-.29-.43-.53-.7-.95-1.07.47-.29.64-.4.88-.6h-1.09ZM274.59,16.35h1.13v-5.15h-1.13v5.15Z"/>
        <path d="M288.75,11.57c.3-.78.58-1.2,1.08-1.61.6-.49,1.31-.73,2.22-.73,1.95,0,3.2,1.07,3.2,2.73,0,.56-.16,1.09-.46,1.52-.23.34-.34.44-1.07,1.1-1.01.91-1.23,1.26-1.23,1.95v.69h-1.33v-.73c0-.58.12-1.1.35-1.52.18-.33.38-.55.9-1.07.55-.53.71-.73.86-.96.18-.26.29-.62.29-.97,0-.87-.58-1.42-1.51-1.42s-1.47.48-1.86,1.61l-1.44-.6ZM292.89,19.15c0,.57-.46,1.03-1.03,1.03s-1.03-.46-1.03-1.03.46-1.03,1.03-1.03,1.03.46,1.03,1.03Z"/>
      </g>
      <g>
        <path d="M51.22,13.78c.01-.3.01-.48.01-.96,0-.12,0-.47-.01-1.07-.94.2-2.56.44-2.87.44-.13,0-.22-.07-.29-.22-.08-.2-.27-.53-.4-.73,0-.01-.1-.13-.31-.38,1.73-.01,3.41-.27,5.03-.78.74-.23,1.18-.44,1.79-.81.57.51,1.04,1.11,1.04,1.33,0,.12-.08.17-.25.2-.25.03-.4.06-.73.17-.68.22-.79.26-1.46.43.01.51.01.58.01,1.27v1.09c1.94-.03,3.37-.07,3.78-.1.05-.01.09-.01.13-.01.17,0,.21.13.21.69,0,.83-.01.86-.21.86-.03,0-.44-.03-.58-.04-.55-.04-1.31-.05-3.42-.05-.16,1.3-.53,2.39-1.13,3.3-.38.57-1.01,1.27-1.51,1.66-.08.05-.13.08-.19.08q-.12,0-.55-.26c-.26-.17-.58-.3-1.07-.47.95-.56,1.57-1.16,2.08-2.02.38-.65.68-1.5.78-2.27-2.42.03-3.41.06-4.02.17-.14.01-.2.03-.23.03-.12,0-.17-.04-.19-.13-.09-.3-.16-.87-.18-1.5.56.07,1.39.09,3.07.09h1.66Z"/>
        <path d="M67.6,12.95c.13-.08.18-.09.27-.09.31,0,1.16.86,1.16,1.17,0,.09-.04.14-.13.22-.18.16-.25.22-.42.51-.34.56-.82,1.18-1.33,1.72-.21.22-.33.3-.43.3-.08,0-.16-.04-.25-.1-.35-.27-.53-.36-1.09-.56.73-.48,1.22-.95,1.79-1.74q-1.69.4-2.7.66c.55,2.16.74,2.86,1.22,4.47.03.12.04.17.04.22,0,.12-.13.2-.48.29-.22.06-.66.14-.78.14-.16,0-.18-.05-.25-.43-.12-.69-.59-2.57-1.07-4.36-.96.27-1.12.31-1.61.55-.14.07-.22.09-.29.09-.25,0-.53-.58-.75-1.49.65-.03.96-.08,2.31-.38-.27-1.01-.4-1.38-.71-1.95.7-.12,1.22-.17,1.56-.17.22,0,.31.06.31.21,0,.04,0,.06-.01.14-.03.08-.03.13-.03.2,0,.26.05.52.23,1.29,2.5-.56,3.11-.72,3.42-.9Z"/>
        <path d="M77.84,13.95c2.38,0,3.74-.03,5.06-.12h.17c.39,0,.39.01.39,1.05,0,.53-.04.62-.26.62h-.05c-.86-.04-1.34-.04-5.1-.04-1.38,0-2.07.01-3.26.05h-.38c-.42,0-.48.01-.73.05-.06,0-.12.01-.14.01-.14,0-.23-.06-.26-.18-.08-.33-.13-.99-.13-1.59,1.05.1,1.98.13,4.69.13Z"/>
        <path d="M91.21,16.03c0,.79.04,2.91.07,3.52v.06c0,.12-.03.21-.09.25-.09.08-.61.14-1.09.14-.42,0-.49-.04-.49-.3v-.05c.03-.34.06-4.08.06-5.63,0-2.99-.03-3.83-.14-4.59.94.06,1.35.1,1.73.18.13.04.2.1.2.21q0,.07-.05.29c-.05.16-.08.34-.09.55,0,.03-.03.81-.06,2.34q.92.26,1.46.46c1.3.46,2.04.79,3.2,1.4.1.08.16.14.16.22,0,.13-.23.75-.44,1.14-.1.22-.17.29-.25.29-.05,0-.12-.03-.21-.09-1.27-.84-2.61-1.47-3.94-1.86v1.47Z"/>
        <path d="M104.34,17.32c-.62,1.08-1.48,1.68-2.37,1.68-1.35,0-2.31-1.33-2.31-3.17,0-2.05,1.04-3.82,2.82-4.76.87-.47,1.81-.68,3.04-.68,2.72,0,4.73,1.92,4.73,4.5,0,2.27-1.12,3.91-3.28,4.84-.43.18-.77.29-.94.29-.16,0-.22-.05-.39-.3-.22-.34-.47-.58-.82-.82,2.68-.69,3.89-1.95,3.89-4.06,0-1.08-.46-1.99-1.26-2.56-.46-.31-.82-.44-1.53-.56-.36,2.74-.79,4.24-1.59,5.6ZM102.47,12.71c-.87.77-1.37,1.86-1.37,3.08,0,1,.33,1.59.87,1.59.65,0,1.31-.9,1.81-2.44.31-.98.47-1.72.66-3.16-.92.2-1.38.42-1.98.94Z"/>
        <path d="M113.96,10.7c-.55,0-.75.01-1.09.07v-1.42c.43.05.79.08,1.27.08h3.89c.53,0,.86-.01,1.29-.08v1.4c-.34-.04-.48-.05-1.09-.05h-.09v2.57h.22c.56,0,.82-.01,1.12-.07v1.4c-.31-.05-.58-.06-1.12-.06h-.22v4.37c0,.72.01,1.03.08,1.44h-1.5c.06-.42.08-.73.08-1.42v-4.39h-1.38c-.07,1.38-.16,2.12-.35,2.85-.3,1.14-.75,2.01-1.6,3.05-.34-.44-.57-.66-1.07-1.04,1.18-1.31,1.62-2.57,1.7-4.86h-.31c-.48,0-.79.01-1.12.06v-1.4c.32.05.61.07,1.12.07h.33v-2.57h-.16ZM115.43,13.27h1.37v-2.57h-1.37v2.57ZM124.37,16.47c-.26.25-.29.27-.51.52-1.3,1.43-2.73,2.52-4.5,3.43-.22-.43-.46-.77-.85-1.21,2.04-.86,3.91-2.33,4.76-3.72l1.09.98ZM123.58,9.87c-.13.12-.39.35-1,.91-.88.81-1.83,1.46-3,2.04-.23-.49-.44-.83-.79-1.22.91-.38,1.79-.91,2.55-1.55.56-.47.9-.82,1.08-1.09l1.17.91ZM123.99,13.13c-.17.14-.3.25-.53.51-.52.55-1.42,1.33-2.03,1.74-.62.43-1.21.78-1.82,1.07-.27-.57-.47-.87-.78-1.26,1.29-.53,2.14-1.07,3.05-1.88.42-.36.78-.79,1-1.12l1.11.95Z"/>
      </g>
      <g>
        <path d="M198.57,51.3h1.85c.59,0,.95-.03,1.34-.08v1.42c-.42-.04-.81-.07-1.35-.07h-1.4c.74,1.3,1.82,2.38,3.11,3.11-.42.42-.6.68-.86,1.3-.53-.38-.91-.74-1.4-1.3-.64-.74-.91-1.14-1.33-1.92.03.47.04.87.04,1.25v1.57c0,.58.03,1.04.08,1.44h-1.44c.05-.4.08-.87.08-1.46v-1.48c0-.35.01-.77.04-1.29-.79,1.43-1.68,2.39-2.94,3.24-.32-.61-.51-.87-.78-1.18,1.34-.77,2.43-1.88,3.19-3.28h-.82c-.56,0-.96.03-1.37.08v-.52c-.22.31-.38.6-.53,1.05-.33-.51-.52-.91-.77-1.56.03.4.05,1.1.05,1.65v3.2c0,.66.03,1.14.08,1.53h-1.44c.05-.4.08-.88.08-1.53v-2.69c0-.49.01-.81.09-1.61-.38,1.26-.75,2.11-1.31,2.95-.16-.58-.33-.96-.59-1.39.62-.79,1.28-2.26,1.66-3.77h-.49c-.38,0-.6.01-.83.05v-1.33c.21.04.44.05.83.05h.62v-1c0-.66-.01-.99-.06-1.3h1.43c-.05.34-.07.69-.07,1.3v1h.38c.31,0,.47-.01.68-.05v1.24c.49-.88.91-2.18.95-3.03l1.26.33c-.05.14-.09.3-.18.69-.06.23-.09.35-.16.6h1v-.86c0-.53-.03-.86-.08-1.18h1.46c-.05.31-.08.66-.08,1.18v.86h1.47c.62,0,.99-.03,1.34-.08v1.36c-.36-.04-.78-.06-1.34-.06h-1.47v1.57ZM195.86,49.72c-.22.53-.34.78-.7,1.39q-.31-.32-1.02-.82c.11-.14.14-.21.21-.3-.17-.03-.38-.04-.61-.04h-.32c.3.69.61,1.21,1.18,1.98v-.71c.39.05.75.08,1.35.08h1.33v-1.57h-1.42Z"/>
        <path d="M203.9,52.83c0-.49.01-.86.03-1.37-.22.44-.49.86-.82,1.29-.17-.61-.3-.96-.54-1.5.79-.87,1.38-1.87,1.87-3.24.27-.75.39-1.17.47-1.72l1.34.55c-.09.27-.13.38-.23.69q-.25.77-.8,2.05v6.97c0,.69.01,1.07.05,1.44h-1.43c.07-.49.08-.86.08-1.46v-3.72ZM212.95,50.06c.47,0,.85-.01,1.13-.05-.04.33-.05.66-.05,1.17v5.19c0,.62.03,1.05.08,1.56h-1.43v-.69h-5.29v.68h-1.38c.04-.42.07-.91.07-1.37v-5.34c0-.44-.03-.86-.05-1.2.35.04.62.05,1.13.05h1.18v-1.68h-.62c-.6,0-1.06.03-1.47.06v-1.39c.37.05.79.08,1.47.08h5.23c.69,0,1.14-.03,1.52-.08v1.39c-.36-.04-.88-.06-1.48-.06h-1.29v1.68h1.26ZM207.33,51.26v4.77h1v-4.77h-1ZM210.49,48.38h-.96v1.68h.96v-1.68ZM209.53,56.03h.96v-4.77h-.96v4.77ZM211.69,56.03h1.04v-4.77h-1.04v4.77Z"/>
        <path d="M216.68,51.58c-.1.03-.16.05-.23.09-.06.04-.1.05-.16.05-.29,0-.49-.49-.65-1.46h.25c.55,0,1.94-.17,2.77-.34.27-1.13.42-2,.42-2.61,0-.05,0-.13-.01-.22.56.05,1.09.17,1.46.33.21.08.31.18.31.31,0,.07-.01.12-.08.22q-.2.34-.6,1.77c.31-.04.66-.07.88-.07.53,0,.95.1,1.25.31.52.38.78,1.14.78,2.33,0,1.94-.35,3.6-.95,4.42-.42.57-.96.84-1.73.84-.47,0-.91-.06-1.04-.14q-.11-.07-.14-.55c-.04-.35-.12-.66-.27-1.03.68.23.84.27,1.26.27.62,0,.88-.3,1.17-1.35.2-.69.3-1.57.3-2.54,0-1.01-.25-1.38-.94-1.38-.23,0-.61.04-.91.08-.04.16-.05.17-.1.34-.36,1.34-1.03,3.08-1.69,4.49-.69,1.42-.86,1.7-1.03,1.7-.1,0-.46-.18-.83-.43-.3-.18-.38-.26-.38-.36q0-.07.53-.91c.71-1.11,1.65-3.26,1.98-4.55-.96.22-1.5.34-1.61.38ZM224.85,48.92c-.21.16-.35.22-.42.22-.04,0-.08-.03-.12-.09-.27-.44-.73-.95-1.1-1.27-.03-.03-.04-.05-.04-.08,0-.05.09-.14.31-.31.22-.16.29-.2.38-.2.21,0,1.35,1.16,1.35,1.37,0,.08-.11.17-.37.36ZM223.47,50.3c0-.09.12-.21.49-.51.26-.19.39-.27.49-.27.17,0,.75.62,1.3,1.39.46.65.95,1.57.95,1.79,0,.13-.04.17-.46.51-.26.21-.56.38-.66.38-.09,0-.13-.04-.22-.26-.25-.62-.47-1.05-.82-1.61-.35-.56-.38-.58-1-1.26-.05-.06-.08-.1-.08-.16ZM225.17,46.3c.22,0,1.33,1.1,1.33,1.33,0,.06-.08.14-.34.32-.23.18-.35.25-.4.25q-.06,0-.32-.36c-.22-.3-.64-.74-.87-.94-.04-.04-.06-.07-.06-.1,0-.1.53-.49.68-.49Z"/>
        <path d="M234.09,56.12h3.62c.64,0,1.22-.03,1.68-.08v1.51c-.52-.07-1.04-.09-1.66-.09h-7.93c-.59,0-1.16.03-1.72.09v-1.51c.48.05,1.02.08,1.72.08h2.85v-8.06c0-.57-.03-.94-.08-1.44h1.61c-.05.47-.08.88-.08,1.44v2.13h2.94c.54,0,1.01-.03,1.46-.08v1.5c-.47-.05-.94-.08-1.46-.08h-2.94v4.59Z"/>
        <path d="M241.75,51.58c-.11.03-.16.05-.23.09-.06.04-.1.05-.16.05-.29,0-.49-.49-.65-1.46h.25c.54,0,1.94-.17,2.77-.34.27-1.13.42-2,.42-2.61,0-.05,0-.13-.01-.22.56.05,1.09.17,1.46.33.21.08.31.18.31.31,0,.07-.01.12-.08.22q-.2.34-.6,1.77c.31-.04.66-.07.88-.07.53,0,.95.1,1.25.31.52.38.78,1.14.78,2.33,0,1.94-.35,3.6-.95,4.42-.42.57-.96.84-1.73.84-.47,0-.91-.06-1.04-.14q-.1-.07-.14-.55c-.04-.35-.12-.66-.27-1.03.68.23.85.27,1.26.27.62,0,.88-.3,1.17-1.35.2-.69.3-1.57.3-2.54,0-1.01-.25-1.38-.94-1.38-.23,0-.61.04-.91.08-.04.16-.05.17-.1.34-.37,1.34-1.03,3.08-1.69,4.49-.69,1.42-.86,1.7-1.03,1.7-.1,0-.46-.18-.83-.43-.3-.18-.38-.26-.38-.36q0-.07.53-.91c.71-1.11,1.65-3.26,1.98-4.55-.96.22-1.49.34-1.61.38ZM249.91,48.92c-.21.16-.35.22-.42.22-.04,0-.08-.03-.12-.09-.27-.44-.73-.95-1.11-1.27-.03-.03-.04-.05-.04-.08,0-.05.09-.14.31-.31.22-.16.29-.2.38-.2.21,0,1.35,1.16,1.35,1.37,0,.08-.1.17-.36.36ZM248.53,50.3c0-.09.12-.21.49-.51.26-.19.39-.27.49-.27.17,0,.75.62,1.3,1.39.46.65.95,1.57.95,1.79,0,.13-.04.17-.46.51-.26.21-.56.38-.66.38-.09,0-.13-.04-.22-.26-.25-.62-.47-1.05-.82-1.61-.35-.56-.38-.58-1-1.26-.05-.06-.08-.1-.08-.16ZM250.23,46.3c.22,0,1.33,1.1,1.33,1.33,0,.06-.08.14-.34.32-.23.18-.35.25-.4.25q-.07,0-.33-.36c-.22-.3-.64-.74-.87-.94-.04-.04-.06-.07-.06-.1,0-.1.53-.49.68-.49Z"/>
        <path d="M256.18,51.27c1.64-.46,2.82-.66,3.71-.66,1.83,0,2.96,1,2.96,2.63,0,.98-.4,1.83-1.17,2.48-.51.43-1.26.79-2.26,1.09-.56.16-1.16.27-1.42.27-.16,0-.23-.04-.29-.17-.18-.46-.39-.78-.66-1.05,2.86-.3,4.32-1.21,4.32-2.69,0-.75-.62-1.34-1.43-1.34-1.4,0-2.94.47-4.55,1.37-.13.07-.21.1-.26.1-.22,0-.59-.65-.88-1.59.64-.09.86-.14,1.94-.44Z"/>
        <path d="M267.85,50.03c-.34.08-.46.12-.92.29-.17.07-.26.09-.34.09-.29,0-.54-.53-.78-1.65.83-.04,1.13-.08,2.57-.3,1.56-.23,3.54-.53,4.58-.66,1.17-.16,2.11-.31,2.6-.42.09-.03.13-.03.2-.03.17,0,.23.08.35.4.1.27.18.66.18.84,0,.16-.05.21-.23.21-.27,0-.52.03-.77.07-2.2.36-3.95,2.29-3.95,4.32,0,1.52,1.2,2.52,3.22,2.7.18.01.25.08.25.23,0,.33-.13.95-.25,1.24-.07.14-.17.21-.34.21s-.56-.08-.96-.2c-2.21-.65-3.37-2.05-3.37-4.04,0-1.08.35-2.08,1.03-2.94.36-.47.68-.73,1.42-1.24-1.7.29-3.5.62-4.49.87Z"/>
        <path d="M283.11,49.53c-1.12.2-2.28.33-2.98.33-.21,0-.3-.04-.33-.16-.05-.19-.1-.58-.13-1.07,1.05,0,1.86-.07,3.02-.25q-.06-.2-.23-.68c-.12-.31-.22-.57-.36-.84.56-.12,1.07-.18,1.53-.18.12,0,.18.08.18.21v.18c0,.23.05.55.18,1.05.97-.22,1.81-.49,2.47-.78.11-.04.13-.05.17-.05.06,0,.1.07.22.34.12.3.23.64.23.7s-.03.09-.1.13c-.77.32-1.12.44-2.63.82.18.46.23.57.46,1.04.71-.19,1.07-.31,1.33-.44l1.22-.61s.04-.03.04-.03c.01,0,.04.01.05.01.05,0,.1.08.22.32.16.31.29.66.29.74q0,.09-.27.23c-.71.39-1.27.61-2.21.87.52.77,1.26,1.6,1.7,1.91.44.31.46.34.46.47,0,.12-.13.39-.38.82-.22.38-.32.48-.47.48-.08,0-.09,0-.29-.14-.66-.51-2-.86-3.29-.86-1.12,0-1.82.39-1.82,1.04,0,.4.31.73.87.94.51.18,1.62.3,2.83.3.29,0,.53-.01,1.04-.04-.23.34-.35.57-.51,1.12-.08.27-.17.33-.57.33-1.39,0-2.62-.16-3.46-.46-1.11-.39-1.69-1.12-1.69-2.09,0-1.39,1.14-2.24,3.04-2.24,1.17,0,1.91.13,2.73.49-.73-.69-1.12-1.16-1.5-1.77-.62.13-.94.18-1.35.25-.74.1-2.09.21-2.64.21-.42,0-.43-.01-.55-1.24.29.01.51.01.64.01.83,0,2.42-.17,3.29-.35-.16-.33-.33-.7-.47-1.08Z"/>
        <path d="M292.91,50.03c-.34.08-.46.12-.92.29-.17.07-.26.09-.34.09-.29,0-.55-.53-.78-1.65.83-.04,1.13-.08,2.57-.3,1.56-.23,3.54-.53,4.58-.66,1.17-.16,2.11-.31,2.6-.42.09-.03.13-.03.2-.03.17,0,.23.08.35.4.11.27.18.66.18.84,0,.16-.05.21-.23.21-.27,0-.52.03-.77.07-2.2.36-3.95,2.29-3.95,4.32,0,1.52,1.2,2.52,3.22,2.7.18.01.25.08.25.23,0,.33-.13.95-.25,1.24-.06.14-.17.21-.34.21s-.56-.08-.96-.2c-2.21-.65-3.37-2.05-3.37-4.04,0-1.08.35-2.08,1.03-2.94.36-.47.68-.73,1.42-1.24-1.7.29-3.5.62-4.48.87Z"/>
        <path d="M304.03,49.22c0-.38-.01-.88-.04-1.17.6.06,1.04.16,1.39.29.31.12.42.2.42.34q0,.08-.05.21c-.17.44-.22.94-.22,2.12,0,1.66.1,2.71.36,3.5.2.61.49.96.85.96.53,0,.97-.62,1.46-2.07.25.66.34.86.7,1.33.06.09.1.18.1.27,0,.21-.2.65-.46,1.03-.51.74-1.16,1.14-1.85,1.14-1,0-1.75-.81-2.22-2.41-.3-1.04-.44-2.35-.44-4.17v-1.36ZM311.76,49.42c.08,0,.14.04.25.13.65.62,1.32,1.66,1.75,2.68.29.69.56,1.61.56,1.89,0,.13-.06.19-.34.34-.3.16-.91.36-1.07.36-.12,0-.17-.06-.21-.3-.17-1-.4-1.73-.81-2.57-.36-.75-.39-.79-1.27-1.88.55-.4.97-.64,1.13-.64Z"/>
        <path d="M322.76,51.04c1.83,0,3.13,1.25,3.13,3.02,0,1.21-.64,2.3-1.7,2.94-.74.44-1.65.66-2.68.66-1.65,0-2.61-.66-2.61-1.79,0-1.03.86-1.75,2.08-1.75,1.11,0,1.9.56,2.43,1.7.66-.48.94-.99.94-1.69,0-1.12-.79-1.85-2.04-1.85s-2.64.64-3.77,1.77c-.21.21-.4.43-.64.73-.09.13-.16.18-.23.18-.23,0-1.16-.91-1.16-1.14,0-.12.05-.18.34-.39.3-.23.73-.61,1.27-1.13,1.26-1.2,2.18-2.2,3.55-3.86-1.62.21-2.72.39-3.12.53-.07.01-.11.03-.14.03-.1,0-.17-.07-.25-.26-.16-.39-.23-.82-.27-1.39.35.05.6.07.88.07.62,0,1.68-.09,3.04-.25.48-.05.64-.09,1-.23.12-.05.18-.06.26-.06.18,0,.36.16.7.68.25.34.33.51.33.61,0,.17-.04.22-.33.4-.23.14-.38.26-.68.55-.65.62-.66.62-1.47,1.44-.57.58-.64.65-1.16,1.17.84-.47,1.51-.66,2.29-.66ZM321.51,55.53c-.2-.13-.42-.2-.66-.2-.4,0-.66.2-.66.51,0,.38.4.61,1.03.61.29,0,.53-.03.86-.12-.16-.43-.29-.62-.56-.81Z"/>
        <path d="M198.74,70.79q1.44,1.3,3.35,2.65c-1.48,1.01-2.12,1.51-3.35,2.67l-.3-.35c.27-.29.29-.3.62-.65q.33-.35.68-.7c.25-.26.38-.38.65-.68h-9.98v-.57h9.98c-.81-.79-.88-.87-1-1.01q-.62-.7-.95-1.05l.3-.3Z"/>
        <path d="M217.12,67.88c-.04.21-.08.82-.08,1.29,0,2.03.33,3.33,1.22,4.93.52.92,1.08,1.59,1.96,2.37.74.64,1.12.91,1.92,1.34-.47.49-.68.79-.96,1.39-1.51-1.05-2.29-1.78-3.17-2.94-.77-1.01-1.24-1.99-1.65-3.42-.25,1-.47,1.57-.99,2.52-.49.91-1.04,1.59-1.91,2.39-.66.6-1.07.91-1.94,1.44-.29-.58-.53-.9-.97-1.29,1.29-.69,1.95-1.18,2.73-2.09,1.61-1.85,2.29-3.89,2.29-6.88,0-.48-.01-.71-.06-1.05h1.61Z"/>
        <path d="M225.91,69.9c-.51.77-1.11,1.46-1.86,2.17-.32-.42-.59-.66-.97-.97,1.05-.94,1.74-1.78,2.26-2.82.16-.31.23-.52.27-.78l1.49.22c-.04.07-.18.35-.44.87h5.76c.69,0,1.13-.03,1.56-.08v1.46c-.4-.04-.91-.07-1.56-.07h-6.51ZM230.08,78.9c-.75-.74-1.3-1.24-2.16-1.92-.99.83-1.82,1.35-3.61,2.25-.25-.44-.43-.68-.94-1.18,1.69-.72,2.55-1.18,3.46-1.9-.73-.53-1.2-.83-2.17-1.42l.91-.83c.92.52,1.21.7,2.21,1.38.59-.61.94-1.13,1.08-1.6l1.34.64c-.13.16-.26.33-.53.7-.3.42-.49.68-.82,1.04.75.57,1.39,1.1,2.17,1.81l-.94,1.04ZM225.25,73.53c-.64,0-1.07.03-1.43.07v-1.3c.26.05.57.07,1.08.07h6.34c.84,0,1.05-.01,1.44-.05-.04.39-.05.74-.05,1.16,0,1.29.12,2.39.35,3.18.14.48.22.65.43.84.17-.23.27-.82.3-1.85.42.38.65.55,1.06.75-.2,1.96-.57,2.76-1.34,2.76-.56,0-1.2-.66-1.55-1.6-.39-1.03-.55-2.17-.57-4.03h-6.07ZM225.55,70.48c.16.03.56.04.94.04h5.22c.64,0,1.04-.03,1.33-.07v1.25c-.35-.05-.69-.06-1.33-.06h-4.96c-.52,0-.86.01-1.2.05v-1.21Z"/>
        <path d="M242.96,73.45c0,.86-.69,1.55-1.55,1.55s-1.55-.69-1.55-1.55.69-1.55,1.55-1.55,1.55.69,1.55,1.55Z"/>
        <path d="M258.92,72.05q-.09.21-.27.66c-.55,1.34-1.05,2.26-1.69,3.12.23.43.49.79.75,1.07.21.23.48.46.56.46.05,0,.1-.08.16-.23q.1-.29.25-1.47c.42.42.59.55,1.12.84-.29,1.69-.71,2.42-1.4,2.42-.64,0-1.64-.84-2.35-2.01-.92.92-1.9,1.64-3.02,2.2-.38-.57-.52-.74-.95-1.09,1.31-.53,2.39-1.27,3.35-2.3-.52-1.3-.8-2.79-.94-4.97h-3.88q-.01,1.24-.01,1.64h2.29c.46,0,.62-.01.88-.04-.03.26-.04.55-.06,1.05-.12,2.2-.21,2.91-.42,3.43-.2.49-.65.69-1.6.69-.33,0-.55-.01-.96-.05-.05-.53-.13-.85-.31-1.31.68.09.86.1,1.21.1.38,0,.49-.08.56-.38.09-.44.16-1.26.18-2.27h-1.82c-.08,1.33-.2,2.29-.39,3.13-.22.99-.47,1.57-1.03,2.43-.39-.51-.62-.73-1.08-1.05.44-.69.69-1.26.86-1.98.25-1.07.38-2.7.38-4.93,0-.94-.01-1.27-.06-1.77.44.04.95.06,1.6.06h3.61l-.03-1.09c-.01-.3-.03-.42-.06-.66h1.49c-.05.26-.08.77-.08,1.18v.57h1.65c-.35-.47-.6-.71-1.11-1.14l.97-.61c.57.49.78.7,1.26,1.3l-.66.46h.38c.68,0,1-.01,1.33-.06v1.37c-.42-.04-.88-.07-1.52-.07h-2.25c.12,1.69.29,2.78.57,3.72.64-1.03,1.05-2.04,1.2-2.91l1.34.51Z"/>
        <path d="M270.96,75.08c-.12.09-.18.16-.71.62-.31.29-.68.55-1.18.87,1.05.55,2.08.9,3.26,1.11-.3.48-.44.81-.66,1.43-1.87-.48-3.26-1.14-4.48-2.17-.9-.77-1.4-1.4-1.9-2.47h-1.09v2.83c1.13-.25,1.62-.39,2.5-.68l.03,1.25c-1.37.45-2.72.79-4.89,1.2-.3.07-.34.07-.57.12l-.26-1.39c.42,0,.96-.07,1.78-.22v-3.11h-.68c-.53,0-.84.01-1.27.06v-1.33c.26.04.74.07,1.3.07h.65v-3.93c0-.69-.01-.88-.05-1.23.39.04.73.05,1.37.05h5.58c.73,0,1.08-.01,1.46-.07v1.31c-.4-.04-.7-.05-1.44-.05h-5.46v.61h5.28c.51,0,.87-.01,1.14-.05v1.12c-.26-.03-.82-.05-1.14-.05h-5.28v.61h5.28c.51,0,.91-.03,1.14-.05v1.13c-.34-.04-.65-.05-1.14-.05h-5.28v.65h6.64c.54,0,.9-.03,1.23-.07v1.33c-.33-.04-.68-.06-1.13-.06h-1.17l1.17.61ZM266.68,74.47c.36.65.69,1,1.3,1.44.62-.42,1.34-1.03,1.68-1.44h-2.98Z"/>
        <path d="M278.23,69.05c0-.64-.01-.95-.08-1.37h1.59c-.05.4-.08.73-.08,1.31v.82h3.41c.54,0,.82-.01,1.14-.05-.04.35-.05.61-.05,1.11v3.8c0,.56.01.88.06,1.25h-1.48v-.74h-3.08v2.52c0,.75.03,1.13.09,1.56h-1.61c.06-.44.09-.85.09-1.56v-2.52h-2.94v.74h-1.48c.05-.4.07-.71.07-1.25v-3.81c0-.47-.01-.69-.05-1.09.35.04.62.05,1.13.05h3.28v-.77ZM275.29,71.14v2.7h2.94v-2.7h-2.94ZM282.73,73.84v-2.7h-3.08v2.7h3.08Z"/>
        <path d="M288.22,70.32c.3-.78.59-1.2,1.08-1.61.6-.49,1.31-.73,2.22-.73,1.95,0,3.2,1.07,3.2,2.73,0,.56-.16,1.09-.46,1.52-.23.34-.34.44-1.07,1.1-1.01.91-1.23,1.26-1.23,1.95v.69h-1.33v-.73c0-.58.12-1.1.35-1.52.18-.33.38-.55.9-1.07.55-.53.71-.73.86-.96.18-.26.29-.62.29-.97,0-.87-.59-1.42-1.51-1.42s-1.47.48-1.86,1.61l-1.44-.6ZM292.37,77.9c0,.57-.46,1.03-1.03,1.03s-1.03-.46-1.03-1.03.46-1.03,1.03-1.03,1.03.46,1.03,1.03Z"/>
      </g>
      <g>
        <path d="M59.02,58.49c.78,0,1.28-.03,1.7-.09v1.74c-.45-.06-.93-.09-1.68-.09h-5.55c-.4,1.01-.81,1.83-1.21,2.48.18-.02.58-.02,1.21-.03h4.46c.74,0,1.12-.01,1.51-.06-.06.45-.07.85-.07,1.47v3.93c0,.75.03,1.25.09,1.7h-1.75v-.75h-5.52v.73h-1.68c.06-.45.09-.94.09-1.75v-2.13c0-.27,0-.52.02-.84-.62.69-1.19,1.25-2.06,1.95-.36-.58-.63-.95-1.09-1.44.92-.62,1.79-1.38,2.46-2.16.81-.94,1.37-1.84,1.88-3.09h-2.22c-.75,0-1.26.03-1.74.09v-1.74c.48.08.92.09,1.75.09h2.78c.24-.87.4-1.67.42-2.22l1.84.22q-.06.17-.13.42s-.03.14-.08.27q-.06.21-.22.79c-.06.21-.09.31-.15.51h4.96ZM52.18,67.29h5.55v-3.31h-5.55v3.31Z"/>
        <path d="M65.86,61.82c-.12,2.91-.19,3.76-.48,4.84-.27,1.06-.64,1.83-1.35,2.85-.41-.5-.71-.78-1.26-1.17.6-.81.93-1.48,1.16-2.46.17-.66.25-1.42.3-2.43s.09-2.4.09-3.18c0-.74-.01-1.04-.06-1.65.43.03.97.04,1.58.04h8.04c.62,0,.98-.01,1.31-.04-.03.27-.04.65-.04.93v1.27c.03.62.03.81.06,1.04-.36-.03-.64-.04-1.29-.04h-8.04ZM76.01,58.1c-.45-.04-.87-.06-1.68-.06h-9.36c-.82,0-1.15.02-1.67.06v-1.49c.5.06.95.09,1.67.09h9.38c.75,0,1.18-.01,1.67-.09v1.49ZM73.64,60.62v-.75h-7.77v.23c0,.07,0,.24-.02.52h7.79ZM68.09,67.32v.72c0,.58.01,1.02.08,1.53h-1.67c.08-.44.09-.79.09-1.58v-4.33c0-.63-.01-.87-.04-1.25.36.03.75.04,1.38.04h5.97c.62,0,1.02-.01,1.38-.04-.04.41-.06.78-.06,1.41v4.33c0,1.05-.41,1.33-1.94,1.33-.54,0-.92-.02-1.41-.06-.06-.52-.12-.76-.36-1.36.79.13,1.2.17,1.71.17.39,0,.48-.06.48-.32v-.6h-5.61ZM73.7,63.69h-5.61v.63h5.61v-.63ZM68.09,65.48v.7h5.61v-.7h-5.61Z"/>
        <path d="M85.46,67.46h4.17c.73,0,1.41-.03,1.93-.09v1.74c-.6-.08-1.2-.11-1.92-.11h-9.15c-.67,0-1.33.03-1.98.11v-1.74c.56.06,1.17.09,1.98.09h3.29v-9.3c0-.66-.03-1.08-.09-1.67h1.86c-.06.54-.09,1.02-.09,1.67v2.46h3.39c.63,0,1.17-.03,1.68-.09v1.72c-.54-.06-1.08-.09-1.68-.09h-3.39v5.29Z"/>
        <path d="M95.21,62.22c-.12.03-.18.06-.27.1-.08.04-.12.06-.18.06-.33,0-.57-.57-.75-1.68h.29c.63,0,2.24-.19,3.2-.39.31-1.3.48-2.31.48-3.01,0-.06,0-.15-.01-.25.64.06,1.26.19,1.68.38.24.09.36.21.36.36,0,.08-.02.13-.09.25q-.23.39-.69,2.04c.36-.04.76-.08,1.02-.08.62,0,1.1.12,1.44.36.6.43.9,1.32.9,2.68,0,2.24-.41,4.16-1.1,5.1-.48.66-1.11.98-2,.98-.54,0-1.05-.08-1.2-.17q-.12-.08-.17-.63c-.04-.41-.13-.77-.32-1.19.78.27.98.32,1.46.32.72,0,1.02-.34,1.35-1.56.23-.79.35-1.82.35-2.92,0-1.17-.29-1.59-1.08-1.59-.27,0-.71.05-1.05.09-.04.18-.06.19-.12.39-.42,1.54-1.19,3.55-1.95,5.17-.79,1.63-.99,1.96-1.18,1.96-.12,0-.53-.21-.96-.5-.35-.21-.44-.3-.44-.42q0-.08.62-1.05c.83-1.28,1.91-3.76,2.28-5.25-1.11.25-1.73.39-1.86.44ZM104.63,59.15c-.24.18-.41.25-.48.25-.04,0-.09-.03-.13-.11-.32-.51-.84-1.09-1.28-1.47-.03-.03-.04-.06-.04-.09,0-.06.11-.17.36-.36.25-.18.33-.22.43-.22.24,0,1.56,1.33,1.56,1.58,0,.09-.12.19-.42.42ZM103.04,60.74c0-.11.13-.24.57-.58.3-.22.45-.32.57-.32.2,0,.87.72,1.5,1.61.52.75,1.09,1.81,1.09,2.07,0,.15-.04.2-.52.58-.3.24-.65.44-.77.44-.1,0-.15-.04-.25-.3-.29-.72-.54-1.21-.95-1.86-.4-.64-.43-.67-1.15-1.46-.06-.08-.09-.12-.09-.18ZM105.01,56.13c.25,0,1.53,1.27,1.53,1.53,0,.08-.09.17-.39.38-.27.21-.41.29-.46.29q-.08,0-.38-.42c-.25-.34-.74-.85-1-1.08-.04-.04-.08-.08-.08-.12,0-.12.62-.57.78-.57Z"/>
        <path d="M113.78,61.95q.07-.12.73-1.23c.09.25.18.42.36.66.1.17.15.26.15.35s-.03.17-.39.75c-.25.45-.69,1.38-.87,1.83-.15.42-.21.45-.71.45s-.88-.06-.94-.15c-.09-.12-.15-.93-.15-2.04,0-1.47.11-2.5.5-5.12.04-.3.06-.45.06-.78,1.17.21,1.94.55,1.94.84,0,.08-.02.12-.12.25-.2.29-.32.67-.46,1.47-.18,1-.32,2.33-.32,3.12q.13-.24.23-.41ZM119.23,57.57v.25c.01.06.01.18.03.35q.01.24.04.61,0,.17.03.72c.04.72.07,1.44.07,1.8,0,2.82-.73,5.01-2.29,6.85-.6.71-1.12,1.11-1.42,1.11-.18,0-.19,0-.51-.24-.29-.23-.67-.42-1.06-.53,1.05-.75,1.62-1.27,2.17-2.07.93-1.33,1.38-2.93,1.38-4.86,0-2.05-.14-3.31-.48-4.23.63-.08,1.09-.11,1.53-.11s.51.03.51.29v.04Z"/>
      </g>
      <rect class="cls-3" x="0" y="98.01" width="170" height="63.46"/>
      <rect class="cls-3" x="173.75" y="98.01" width="170" height="63.46"/>
      <g>
        <path d="M198.57,117.78h1.85c.59,0,.95-.03,1.34-.08v1.42c-.42-.04-.81-.07-1.35-.07h-1.4c.74,1.3,1.82,2.38,3.11,3.11-.42.42-.6.68-.86,1.3-.53-.38-.91-.74-1.4-1.3-.64-.74-.91-1.14-1.33-1.92.03.47.04.87.04,1.25v1.57c0,.58.03,1.04.08,1.44h-1.44c.05-.4.08-.87.08-1.46v-1.48c0-.35.01-.77.04-1.29-.79,1.43-1.68,2.39-2.94,3.24-.32-.61-.51-.87-.78-1.18,1.34-.77,2.43-1.88,3.19-3.28h-.82c-.56,0-.96.03-1.37.08v-.52c-.22.31-.38.6-.53,1.05-.33-.51-.52-.91-.77-1.56.03.4.05,1.1.05,1.65v3.2c0,.66.03,1.14.08,1.53h-1.44c.05-.4.08-.88.08-1.53v-2.69c0-.49.01-.81.09-1.61-.38,1.26-.75,2.11-1.31,2.95-.16-.58-.33-.96-.59-1.39.62-.79,1.28-2.26,1.66-3.77h-.49c-.38,0-.6.01-.83.05v-1.33c.21.04.44.05.83.05h.62v-1c0-.66-.01-.99-.06-1.3h1.43c-.05.34-.07.69-.07,1.3v1h.38c.31,0,.47-.01.68-.05v1.24c.49-.88.91-2.18.95-3.03l1.26.33c-.05.14-.09.3-.18.69-.06.23-.09.35-.16.6h1v-.86c0-.53-.03-.86-.08-1.18h1.46c-.05.31-.08.66-.08,1.18v.86h1.47c.62,0,.99-.03,1.34-.08v1.36c-.36-.04-.78-.06-1.34-.06h-1.47v1.57ZM195.86,116.21c-.22.53-.34.78-.7,1.39q-.31-.32-1.02-.82c.11-.14.14-.21.21-.3-.17-.03-.38-.04-.61-.04h-.32c.3.69.61,1.21,1.18,1.98v-.71c.39.05.75.08,1.35.08h1.33v-1.57h-1.42Z"/>
        <path d="M203.9,119.32c0-.49.01-.86.03-1.37-.22.44-.49.86-.82,1.29-.17-.61-.3-.96-.54-1.5.79-.87,1.38-1.87,1.87-3.24.27-.75.39-1.17.47-1.72l1.34.55c-.09.27-.13.38-.23.69q-.25.77-.8,2.05v6.97c0,.69.01,1.07.05,1.44h-1.43c.07-.49.08-.86.08-1.46v-3.72ZM212.95,116.55c.47,0,.85-.01,1.13-.05-.04.33-.05.66-.05,1.17v5.19c0,.62.03,1.05.08,1.56h-1.43v-.69h-5.29v.68h-1.38c.04-.42.07-.91.07-1.37v-5.34c0-.44-.03-.86-.05-1.2.35.04.62.05,1.13.05h1.18v-1.68h-.62c-.6,0-1.06.03-1.47.06v-1.39c.37.05.79.08,1.47.08h5.23c.69,0,1.14-.03,1.52-.08v1.39c-.36-.04-.88-.06-1.48-.06h-1.29v1.68h1.26ZM207.33,117.75v4.77h1v-4.77h-1ZM210.49,114.87h-.96v1.68h.96v-1.68ZM209.53,122.52h.96v-4.77h-.96v4.77ZM211.69,122.52h1.04v-4.77h-1.04v4.77Z"/>
        <path d="M216.68,118.07c-.1.03-.16.05-.23.09-.06.04-.1.05-.16.05-.29,0-.49-.49-.65-1.46h.25c.55,0,1.94-.17,2.77-.34.27-1.13.42-2,.42-2.61,0-.05,0-.13-.01-.22.56.05,1.09.17,1.46.33.21.08.31.18.31.31,0,.07-.01.12-.08.22q-.2.34-.6,1.77c.31-.04.66-.07.88-.07.53,0,.95.1,1.25.31.52.38.78,1.14.78,2.33,0,1.94-.35,3.6-.95,4.42-.42.57-.96.84-1.73.84-.47,0-.91-.06-1.04-.14q-.11-.07-.14-.55c-.04-.35-.12-.66-.27-1.03.68.23.84.27,1.26.27.62,0,.88-.3,1.17-1.35.2-.69.3-1.57.3-2.54,0-1.01-.25-1.38-.94-1.38-.23,0-.61.04-.91.08-.04.16-.05.17-.1.34-.36,1.34-1.03,3.08-1.69,4.49-.69,1.42-.86,1.7-1.03,1.7-.1,0-.46-.18-.83-.43-.3-.18-.38-.26-.38-.36q0-.07.53-.91c.71-1.11,1.65-3.26,1.98-4.55-.96.22-1.5.34-1.61.38ZM224.85,115.4c-.21.16-.35.22-.42.22-.04,0-.08-.03-.12-.09-.27-.44-.73-.95-1.1-1.27-.03-.03-.04-.05-.04-.08,0-.05.09-.14.31-.31.22-.16.29-.2.38-.2.21,0,1.35,1.16,1.35,1.37,0,.08-.11.17-.37.36ZM223.47,116.78c0-.09.12-.21.49-.51.26-.19.39-.27.49-.27.17,0,.75.62,1.3,1.39.46.65.95,1.57.95,1.79,0,.13-.04.17-.46.51-.26.21-.56.38-.66.38-.09,0-.13-.04-.22-.26-.25-.62-.47-1.05-.82-1.61-.35-.56-.38-.58-1-1.26-.05-.06-.08-.1-.08-.16ZM225.17,112.79c.22,0,1.33,1.1,1.33,1.33,0,.06-.08.14-.34.32-.23.18-.35.25-.4.25q-.06,0-.32-.36c-.22-.3-.64-.74-.87-.94-.04-.04-.06-.07-.06-.1,0-.1.53-.49.68-.49Z"/>
        <path d="M229.76,114.87c-.61,0-1.16.03-1.68.08v-1.47c.48.05,1.03.08,1.68.08h7.84c.64,0,1.16-.03,1.68-.08v1.47c-.54-.05-1.05-.08-1.68-.08h-3.54v1.47c1.9.82,2.81,1.27,4.5,2.29l-.71,1.25c-1.14-.79-2.46-1.53-3.78-2.13v4.89c0,.78.03,1.24.08,1.72h-1.6c.05-.48.08-.91.08-1.72v-7.76h-2.86Z"/>
        <path d="M241.75,118.07c-.11.03-.16.05-.23.09-.06.04-.1.05-.16.05-.29,0-.49-.49-.65-1.46h.25c.54,0,1.94-.17,2.77-.34.27-1.13.42-2,.42-2.61,0-.05,0-.13-.01-.22.56.05,1.09.17,1.46.33.21.08.31.18.31.31,0,.07-.01.12-.08.22q-.2.34-.6,1.77c.31-.04.66-.07.88-.07.53,0,.95.1,1.25.31.52.38.78,1.14.78,2.33,0,1.94-.35,3.6-.95,4.42-.42.57-.96.84-1.73.84-.47,0-.91-.06-1.04-.14q-.1-.07-.14-.55c-.04-.35-.12-.66-.27-1.03.68.23.85.27,1.26.27.62,0,.88-.3,1.17-1.35.2-.69.3-1.57.3-2.54,0-1.01-.25-1.38-.94-1.38-.23,0-.61.04-.91.08-.04.16-.05.17-.1.34-.37,1.34-1.03,3.08-1.69,4.49-.69,1.42-.86,1.7-1.03,1.7-.1,0-.46-.18-.83-.43-.3-.18-.38-.26-.38-.36q0-.07.53-.91c.71-1.11,1.65-3.26,1.98-4.55-.96.22-1.49.34-1.61.38ZM249.91,115.4c-.21.16-.35.22-.42.22-.04,0-.08-.03-.12-.09-.27-.44-.73-.95-1.11-1.27-.03-.03-.04-.05-.04-.08,0-.05.09-.14.31-.31.22-.16.29-.2.38-.2.21,0,1.35,1.16,1.35,1.37,0,.08-.1.17-.36.36ZM248.53,116.78c0-.09.12-.21.49-.51.26-.19.39-.27.49-.27.17,0,.75.62,1.3,1.39.46.65.95,1.57.95,1.79,0,.13-.04.17-.46.51-.26.21-.56.38-.66.38-.09,0-.13-.04-.22-.26-.25-.62-.47-1.05-.82-1.61-.35-.56-.38-.58-1-1.26-.05-.06-.08-.1-.08-.16ZM250.23,112.79c.22,0,1.33,1.1,1.33,1.33,0,.06-.08.14-.34.32-.23.18-.35.25-.4.25q-.07,0-.33-.36c-.22-.3-.64-.74-.87-.94-.04-.04-.06-.07-.06-.1,0-.1.53-.49.68-.49Z"/>
        <path d="M256.18,117.76c1.64-.46,2.82-.66,3.71-.66,1.83,0,2.96,1,2.96,2.63,0,.98-.4,1.83-1.17,2.48-.51.43-1.26.79-2.26,1.09-.56.16-1.16.27-1.42.27-.16,0-.23-.04-.29-.17-.18-.46-.39-.78-.66-1.05,2.86-.3,4.32-1.21,4.32-2.69,0-.75-.62-1.34-1.43-1.34-1.4,0-2.94.47-4.55,1.37-.13.07-.21.1-.26.1-.22,0-.59-.65-.88-1.59.64-.09.86-.14,1.94-.44Z"/>
        <path d="M267.85,116.52c-.34.08-.46.12-.92.29-.17.07-.26.09-.34.09-.29,0-.54-.53-.78-1.65.83-.04,1.13-.08,2.57-.3,1.56-.23,3.54-.53,4.58-.66,1.17-.16,2.11-.31,2.6-.42.09-.03.13-.03.2-.03.17,0,.23.08.35.4.1.27.18.66.18.84,0,.16-.05.21-.23.21-.27,0-.52.03-.77.07-2.2.36-3.95,2.29-3.95,4.32,0,1.52,1.2,2.52,3.22,2.7.18.01.25.08.25.23,0,.33-.13.95-.25,1.24-.07.14-.17.21-.34.21s-.56-.08-.96-.2c-2.21-.65-3.37-2.05-3.37-4.04,0-1.08.35-2.08,1.03-2.94.36-.47.68-.73,1.42-1.24-1.7.29-3.5.62-4.49.87Z"/>
        <path d="M283.11,116.02c-1.12.2-2.28.33-2.98.33-.21,0-.3-.04-.33-.16-.05-.19-.1-.58-.13-1.07,1.05,0,1.86-.07,3.02-.25q-.06-.2-.23-.68c-.12-.31-.22-.57-.36-.84.56-.12,1.07-.18,1.53-.18.12,0,.18.08.18.21v.18c0,.23.05.55.18,1.05.97-.22,1.81-.49,2.47-.78.11-.04.13-.05.17-.05.06,0,.1.07.22.34.12.3.23.64.23.7s-.03.09-.1.13c-.77.32-1.12.44-2.63.82.18.46.23.57.46,1.04.71-.19,1.07-.31,1.33-.44l1.22-.61s.04-.03.04-.03c.01,0,.04.01.05.01.05,0,.1.08.22.32.16.31.29.66.29.74q0,.09-.27.23c-.71.39-1.27.61-2.21.87.52.77,1.26,1.6,1.7,1.91.44.31.46.34.46.47,0,.12-.13.39-.38.82-.22.38-.32.48-.47.48-.08,0-.09,0-.29-.14-.66-.51-2-.86-3.29-.86-1.12,0-1.82.39-1.82,1.04,0,.4.31.73.87.94.51.18,1.62.3,2.83.3.29,0,.53-.01,1.04-.04-.23.34-.35.57-.51,1.12-.08.27-.17.33-.57.33-1.39,0-2.62-.16-3.46-.46-1.11-.39-1.69-1.12-1.69-2.09,0-1.39,1.14-2.24,3.04-2.24,1.17,0,1.91.13,2.73.49-.73-.69-1.12-1.16-1.5-1.77-.62.13-.94.18-1.35.25-.74.1-2.09.21-2.64.21-.42,0-.43-.01-.55-1.24.29.01.51.01.64.01.83,0,2.42-.17,3.29-.35-.16-.33-.33-.7-.47-1.08Z"/>
        <path d="M292.91,116.52c-.34.08-.46.12-.92.29-.17.07-.26.09-.34.09-.29,0-.55-.53-.78-1.65.83-.04,1.13-.08,2.57-.3,1.56-.23,3.54-.53,4.58-.66,1.17-.16,2.11-.31,2.6-.42.09-.03.13-.03.2-.03.17,0,.23.08.35.4.11.27.18.66.18.84,0,.16-.05.21-.23.21-.27,0-.52.03-.77.07-2.2.36-3.95,2.29-3.95,4.32,0,1.52,1.2,2.52,3.22,2.7.18.01.25.08.25.23,0,.33-.13.95-.25,1.24-.06.14-.17.21-.34.21s-.56-.08-.96-.2c-2.21-.65-3.37-2.05-3.37-4.04,0-1.08.35-2.08,1.03-2.94.36-.47.68-.73,1.42-1.24-1.7.29-3.5.62-4.48.87Z"/>
        <path d="M304.03,115.7c0-.38-.01-.88-.04-1.17.6.06,1.04.16,1.39.29.31.12.42.2.42.34q0,.08-.05.21c-.17.44-.22.94-.22,2.12,0,1.66.1,2.71.36,3.5.2.61.49.96.85.96.53,0,.97-.62,1.46-2.07.25.66.34.86.7,1.33.06.09.1.18.1.27,0,.21-.2.65-.46,1.03-.51.74-1.16,1.14-1.85,1.14-1,0-1.75-.81-2.22-2.41-.3-1.04-.44-2.35-.44-4.17v-1.36ZM311.76,115.91c.08,0,.14.04.25.13.65.62,1.32,1.66,1.75,2.68.29.69.56,1.61.56,1.89,0,.13-.06.19-.34.34-.3.16-.91.36-1.07.36-.12,0-.17-.06-.21-.3-.17-1-.4-1.73-.81-2.57-.36-.75-.39-.79-1.27-1.88.55-.4.97-.64,1.13-.64Z"/>
        <path d="M322.76,117.52c1.83,0,3.13,1.25,3.13,3.02,0,1.21-.64,2.3-1.7,2.94-.74.44-1.65.66-2.68.66-1.65,0-2.61-.66-2.61-1.79,0-1.03.86-1.75,2.08-1.75,1.11,0,1.9.56,2.43,1.7.66-.48.94-.99.94-1.69,0-1.12-.79-1.85-2.04-1.85s-2.64.64-3.77,1.77c-.21.21-.4.43-.64.73-.09.13-.16.18-.23.18-.23,0-1.16-.91-1.16-1.14,0-.12.05-.18.34-.39.3-.23.73-.61,1.27-1.13,1.26-1.2,2.18-2.2,3.55-3.86-1.62.21-2.72.39-3.12.53-.07.01-.11.03-.14.03-.1,0-.17-.07-.25-.26-.16-.39-.23-.82-.27-1.39.35.05.6.07.88.07.62,0,1.68-.09,3.04-.25.48-.05.64-.09,1-.23.12-.05.18-.06.26-.06.18,0,.36.16.7.68.25.34.33.51.33.61,0,.17-.04.22-.33.4-.23.14-.38.26-.68.55-.65.62-.66.62-1.47,1.44-.57.58-.64.65-1.16,1.17.84-.47,1.51-.66,2.29-.66ZM321.51,122.02c-.2-.13-.42-.2-.66-.2-.4,0-.66.2-.66.51,0,.38.4.61,1.03.61.29,0,.53-.03.86-.12-.16-.43-.29-.62-.56-.81Z"/>
        <path d="M198.74,137.28q1.44,1.3,3.35,2.65c-1.48,1.01-2.12,1.51-3.35,2.67l-.3-.35c.27-.29.29-.3.62-.65q.33-.35.68-.7c.25-.26.38-.38.65-.68h-9.98v-.57h9.98c-.81-.79-.88-.87-1-1.01q-.62-.7-.95-1.05l.3-.3Z"/>
        <path d="M210.43,143.11c.85-1.6,1.12-2.59,1.42-5.07l1.38.29c-.42,3.03-.62,3.82-1.43,5.56l-1.37-.78ZM215.34,143.7c0,.3.23.36,1.39.36,1,0,1.35-.09,1.49-.38.16-.35.25-1.17.27-2.47.54.26.87.38,1.39.49-.1,1.7-.23,2.41-.51,2.92-.35.65-.9.79-2.9.79-1.44,0-1.92-.08-2.26-.35-.22-.18-.31-.47-.31-.99v-5.89c0-.47-.01-.75-.08-1.27h1.59c-.05.4-.08.77-.08,1.23v5.54ZM218.07,137.35c-1.23-.83-2.17-1.29-4.21-2.01l.79-1.2c1.86.64,2.81,1.05,4.28,1.88l-.86,1.33ZM220.92,143.61c-.57-2.16-1.11-3.52-2.02-5.17l1.33-.6c.92,1.64,1.4,2.78,2.11,5.06l-1.42.71Z"/>
        <path d="M224.66,135.77c-.53,0-1.03.03-1.35.05v-1.33c.4.05.86.08,1.36.08h3.06c.53,0,.97-.03,1.4-.08v1.33c-.35-.04-.82-.05-1.26-.05h-.4v1.03h.17c.66,0,.92-.01,1.3-.04-.03.35-.04.82-.04,1.37v5.99c0,.62.01.97.05,1.38h-1.21v-.47h-2.95v.69h-1.25c.05-.47.08-.96.08-1.7v-5.77c0-.62-.01-1.07-.05-1.48.36.03.64.04,1.27.04h.26v-1.03h-.44ZM224.79,141.8h2.96v-.96h-.35c-.8,0-.94-.08-.94-.56v-2.43h-.35v.14c0,.74-.1,1.73-.25,2.34-.12.49-.22.75-.55,1.33-.16-.38-.27-.58-.53-.91v1.05ZM224.79,140.6c.35-.7.46-1.31.49-2.76h-.49v2.76ZM224.79,143.85h2.96v-.97h-2.96v.97ZM226.12,136.8h.35v-1.03h-.35v1.03ZM227.29,139.58c0,.2.03.21.47.22v-1.95h-.47v1.73ZM234.13,138.55c0,.52.01.84.05,1.22-.43-.04-.69-.05-1.25-.05h-2.02v4.08c0,.22.03.3.11.34.1.07.44.1.88.1.92,0,1.17-.08,1.29-.39.09-.26.14-.91.14-1.85.52.29.85.42,1.31.52-.08,1.47-.2,2.11-.46,2.44-.31.39-.92.53-2.37.53-1.95,0-2.24-.17-2.24-1.3v-4.56c0-.6-.01-.87-.05-1.24.38.04.71.05,1.25.05h2.02v-2.63h-1.99c-.64,0-.99.01-1.37.07v-1.4c.4.05.82.08,1.38.08h2.07c.55,0,.92-.01,1.29-.05-.04.47-.05.66-.05,1.26v2.77Z"/>
        <path d="M241.68,134.77c0,.33.16.94.47,1.75,1-.25,1.59-.46,2.95-1.04.08-.03.12-.04.16-.04.13,0,.22.23.42,1.08.01.07.01.08.03.13.01.03.01.04.01.05,0,.09-.05.14-.18.2-.66.29-1.42.52-2.81.88.68,1.26,1.64,2.35,2.57,2.9.06.04.1.09.1.16,0,.16-.29.77-.51,1.08-.12.17-.2.23-.31.23-.09,0-.12-.01-.29-.14-.27-.2-.92-.49-1.39-.62-.56-.16-1.06-.22-1.66-.22-1.53,0-2.31.43-2.31,1.26,0,.47.25.79.78,1.05.61.3,1.73.47,3.04.47.39,0,.65-.01,1.04-.07-.21.4-.27.57-.52,1.38-.07.2-.17.25-.52.25-.87,0-1.96-.12-2.62-.27-1.73-.43-2.72-1.4-2.72-2.7,0-.62.25-1.23.68-1.68.6-.58,1.56-.91,2.79-.91.81,0,1.33.09,2.02.36-.75-.81-1.13-1.33-1.59-2.21-.79.14-1.46.23-2.22.31-.46.04-1.46.1-1.65.1-.18,0-.23-.04-.3-.26-.08-.25-.14-.66-.21-1.24.43.01.64.03.87.03.78,0,2.07-.1,2.91-.23-.12-.26-.34-.82-.47-1.17-.21-.57-.3-.78-.47-1.07.61-.1,1.28-.17,1.57-.17.25,0,.34.07.34.22v.14Z"/>
        <path d="M250.78,138.15c-.59.12-1.14.26-1.51.39-.09.04-.17.05-.23.05-.12,0-.18-.07-.26-.29-.09-.29-.18-.74-.23-1.2.2.01.29.03.4.03.49,0,1.03-.07,1.85-.22l.03-.78c.01-.18.01-.31.01-.35,0-.56-.01-.9-.07-1.25.69.03,1.12.08,1.54.18.17.04.25.12.25.23,0,.05-.01.09-.08.23-.12.25-.13.4-.22,1.48.29.2.53.47.53.6,0,.08-.04.14-.16.29-.2.21-.26.3-.51.66q-.03.34-.03.43c.43-.38.71-.62,1.16-.95.49-.38,1.04-.73,1.43-.92.51-.27.86-.36,1.33-.36.69,0,1.18.26,1.46.75.16.31.22.61.22,1.12,0,.44-.03.86-.1,1.81-.1,1.12-.16,1.95-.16,2.46s.12.66.48.66c.52,0,1.16-.38,1.71-1.01.01.51.05.66.22,1.18.04.1.05.17.05.22,0,.14-.06.26-.29.43-.53.43-1.3.7-1.99.7-1.14,0-1.66-.6-1.66-1.91,0-.6.04-1.36.17-3.18.04-.43.05-.79.05-.98,0-.53-.18-.78-.57-.78s-1.16.42-2.18,1.21c-.52.39-.82.66-1.37,1.22v.6c0,.98.07,3.22.12,4.02v.16c0,.1-.01.14-.04.18-.06.08-.44.13-1.04.13-.38,0-.46-.05-.46-.27,0-.08,0-.21.01-.35v-.3q.01-.46.07-2.92-.74.96-1.18,1.68c-.12.18-.2.25-.3.25s-.34-.21-.74-.65c-.25-.29-.34-.4-.34-.48,0-.07.03-.12.12-.21.82-.85,1.51-1.65,2.48-2.87l.03-1.11Z"/>
        <path d="M263.04,137.78c-.34.08-.46.12-.92.29-.17.07-.26.09-.34.09-.29,0-.54-.53-.78-1.65.83-.04,1.13-.08,2.57-.3,1.56-.23,3.54-.53,4.58-.66,1.17-.16,2.11-.31,2.6-.42.09-.03.13-.03.2-.03.17,0,.23.08.35.4.1.27.18.66.18.84,0,.16-.05.21-.23.21-.27,0-.52.03-.77.07-2.2.36-3.95,2.29-3.95,4.32,0,1.52,1.2,2.52,3.22,2.7.18.01.25.08.25.23,0,.33-.13.95-.25,1.24-.07.14-.17.21-.34.21s-.56-.08-.96-.2c-2.21-.65-3.37-2.05-3.37-4.04,0-1.08.35-2.08,1.03-2.94.36-.47.68-.73,1.42-1.24-1.7.29-3.5.62-4.49.87Z"/>
        <path d="M280.36,138.78c1.83,0,3.13,1.25,3.13,3.02,0,1.21-.64,2.3-1.7,2.94-.74.44-1.65.66-2.68.66-1.65,0-2.61-.66-2.61-1.79,0-1.03.86-1.75,2.08-1.75,1.11,0,1.9.56,2.43,1.7.66-.48.94-.99.94-1.69,0-1.12-.79-1.85-2.04-1.85s-2.64.64-3.77,1.77c-.21.21-.4.43-.64.73-.09.13-.16.18-.23.18-.23,0-1.16-.91-1.16-1.14,0-.12.05-.18.34-.39.3-.23.73-.61,1.27-1.13,1.26-1.2,2.18-2.2,3.55-3.86-1.62.21-2.72.39-3.12.53-.07.01-.11.03-.14.03-.1,0-.17-.07-.25-.26-.16-.39-.23-.82-.27-1.39.35.05.6.07.88.07.62,0,1.68-.09,3.04-.25.48-.05.64-.09,1-.23.12-.05.18-.06.26-.06.18,0,.36.16.7.68.25.34.33.51.33.61,0,.17-.04.22-.33.4-.23.14-.38.26-.68.55-.65.62-.66.62-1.47,1.44-.57.58-.64.65-1.16,1.17.84-.47,1.51-.66,2.29-.66ZM279.11,143.28c-.2-.13-.42-.2-.66-.2-.4,0-.66.2-.66.51,0,.38.4.61,1.03.61.29,0,.53-.03.86-.12-.16-.43-.29-.62-.56-.81Z"/>
        <path d="M288.22,136.81c.3-.78.59-1.2,1.08-1.61.6-.49,1.31-.73,2.22-.73,1.95,0,3.2,1.07,3.2,2.73,0,.56-.16,1.09-.46,1.52-.23.34-.34.44-1.07,1.1-1.01.91-1.23,1.26-1.23,1.95v.69h-1.33v-.73c0-.58.12-1.1.35-1.52.18-.33.38-.55.9-1.07.55-.53.71-.73.86-.96.18-.26.29-.62.29-.97,0-.87-.59-1.42-1.51-1.42s-1.47.48-1.86,1.61l-1.44-.6ZM292.37,144.39c0,.57-.46,1.03-1.03,1.03s-1.03-.46-1.03-1.03.46-1.03,1.03-1.03,1.03.46,1.03,1.03Z"/>
      </g>
      <g>
        <path d="M59.02,124.98c.78,0,1.28-.03,1.7-.09v1.74c-.45-.06-.93-.09-1.68-.09h-5.55c-.4,1.01-.81,1.83-1.21,2.48.18-.02.58-.02,1.21-.03h4.46c.74,0,1.12-.01,1.51-.06-.06.45-.07.85-.07,1.47v3.93c0,.75.03,1.25.09,1.7h-1.75v-.75h-5.52v.73h-1.68c.06-.45.09-.94.09-1.75v-2.13c0-.27,0-.52.02-.84-.62.69-1.19,1.25-2.06,1.95-.36-.58-.63-.95-1.09-1.44.92-.62,1.79-1.38,2.46-2.16.81-.94,1.37-1.84,1.88-3.09h-2.22c-.75,0-1.26.03-1.74.09v-1.74c.48.08.92.09,1.75.09h2.78c.24-.87.4-1.67.42-2.22l1.84.22q-.06.17-.13.42s-.03.14-.08.27q-.06.21-.22.79c-.06.21-.09.31-.15.51h4.96ZM52.18,133.78h5.55v-3.31h-5.55v3.31Z"/>
        <path d="M65.86,128.31c-.12,2.91-.19,3.76-.48,4.84-.27,1.06-.64,1.83-1.35,2.85-.41-.5-.71-.78-1.26-1.17.6-.81.93-1.48,1.16-2.46.17-.66.25-1.42.3-2.43s.09-2.4.09-3.18c0-.74-.01-1.04-.06-1.65.43.03.97.04,1.58.04h8.04c.62,0,.98-.01,1.31-.04-.03.27-.04.65-.04.93v1.27c.03.62.03.81.06,1.04-.36-.03-.64-.04-1.29-.04h-8.04ZM76.01,124.59c-.45-.04-.87-.06-1.68-.06h-9.36c-.82,0-1.15.02-1.67.06v-1.49c.5.06.95.09,1.67.09h9.38c.75,0,1.18-.01,1.67-.09v1.49ZM73.64,127.11v-.75h-7.77v.23c0,.07,0,.24-.02.52h7.79ZM68.09,133.81v.72c0,.58.01,1.02.08,1.53h-1.67c.08-.44.09-.79.09-1.58v-4.33c0-.63-.01-.87-.04-1.25.36.03.75.04,1.38.04h5.97c.62,0,1.02-.01,1.38-.04-.04.41-.06.78-.06,1.41v4.33c0,1.05-.41,1.33-1.94,1.33-.54,0-.92-.02-1.41-.06-.06-.52-.12-.76-.36-1.36.79.13,1.2.17,1.71.17.39,0,.48-.06.48-.32v-.6h-5.61ZM73.7,130.18h-5.61v.63h5.61v-.63ZM68.09,131.97v.7h5.61v-.7h-5.61Z"/>
        <path d="M80.47,125.02c-.71,0-1.33.03-1.93.09v-1.69c.55.06,1.18.09,1.93.09h9.04c.73,0,1.33-.03,1.93-.09v1.69c-.63-.06-1.21-.09-1.93-.09h-4.08v1.7c2.19.94,3.24,1.47,5.19,2.64l-.82,1.44c-1.32-.91-2.83-1.77-4.37-2.46v5.64c0,.9.03,1.42.09,1.98h-1.84c.06-.55.09-1.05.09-1.98v-8.96h-3.3Z"/>
        <path d="M95.21,128.71c-.12.03-.18.06-.27.1-.08.04-.12.06-.18.06-.33,0-.57-.57-.75-1.68h.29c.63,0,2.24-.19,3.2-.39.31-1.3.48-2.31.48-3.01,0-.06,0-.15-.01-.25.64.06,1.26.19,1.68.38.24.09.36.21.36.36,0,.08-.02.13-.09.25q-.23.39-.69,2.04c.36-.04.76-.08,1.02-.08.62,0,1.1.12,1.44.36.6.43.9,1.32.9,2.68,0,2.24-.41,4.16-1.1,5.1-.48.66-1.11.98-2,.98-.54,0-1.05-.08-1.2-.17q-.12-.08-.17-.63c-.04-.41-.13-.77-.32-1.19.78.27.98.32,1.46.32.72,0,1.02-.34,1.35-1.56.23-.79.35-1.82.35-2.92,0-1.17-.29-1.59-1.08-1.59-.27,0-.71.05-1.05.09-.04.18-.06.19-.12.39-.42,1.54-1.19,3.55-1.95,5.17-.79,1.63-.99,1.96-1.18,1.96-.12,0-.53-.21-.96-.5-.35-.21-.44-.3-.44-.42q0-.08.62-1.05c.83-1.28,1.91-3.76,2.28-5.25-1.11.25-1.73.39-1.86.44ZM104.63,125.64c-.24.18-.41.25-.48.25-.04,0-.09-.03-.13-.11-.32-.51-.84-1.09-1.28-1.47-.03-.03-.04-.06-.04-.09,0-.06.11-.17.36-.36.25-.18.33-.22.43-.22.24,0,1.56,1.33,1.56,1.58,0,.09-.12.19-.42.42ZM103.04,127.23c0-.11.13-.24.57-.58.3-.22.45-.32.57-.32.2,0,.87.72,1.5,1.61.52.75,1.09,1.81,1.09,2.07,0,.15-.04.2-.52.58-.3.24-.65.44-.77.44-.1,0-.15-.04-.25-.3-.29-.72-.54-1.21-.95-1.86-.4-.64-.43-.67-1.15-1.46-.06-.08-.09-.12-.09-.18ZM105.01,122.62c.25,0,1.53,1.27,1.53,1.53,0,.08-.09.17-.39.38-.27.21-.41.29-.46.29q-.08,0-.38-.42c-.25-.34-.74-.85-1-1.08-.04-.04-.08-.08-.08-.12,0-.12.62-.57.78-.57Z"/>
        <path d="M113.78,128.44q.07-.12.73-1.23c.09.25.18.42.36.66.1.17.15.26.15.35s-.03.17-.39.75c-.25.45-.69,1.38-.87,1.83-.15.42-.21.45-.71.45s-.88-.06-.94-.15c-.09-.12-.15-.93-.15-2.04,0-1.47.11-2.5.5-5.12.04-.3.06-.45.06-.78,1.17.21,1.94.55,1.94.84,0,.08-.02.12-.12.25-.2.29-.32.67-.46,1.47-.18,1-.32,2.33-.32,3.12q.13-.24.23-.41ZM119.23,124.06v.25c.01.06.01.18.03.35q.01.24.04.61,0,.17.03.72c.04.72.07,1.44.07,1.8,0,2.82-.73,5.01-2.29,6.85-.6.71-1.12,1.11-1.42,1.11-.18,0-.19,0-.51-.24-.29-.23-.67-.42-1.06-.53,1.05-.75,1.62-1.27,2.17-2.07.93-1.33,1.38-2.93,1.38-4.86,0-2.05-.14-3.31-.48-4.23.63-.08,1.09-.11,1.53-.11s.51.03.51.29v.04Z"/>
      </g>
      <rect class="cls-4" x="0" y="164.5" width="170" height="63.46"/>
      <rect class="cls-4" x="173.75" y="164.5" width="170" height="63.46"/>
      <g>
        <path d="M195.44,197.94c-.47.87-1,1.73-1.48,2.43-.53.77-1.14,1.16-1.78,1.16-.94,0-1.57-.77-1.57-1.91,0-.99.49-1.83,1.42-2.38.61-.35,1.54-.6,2.28-.6h.13c.66-1.35.83-1.72,1.27-2.73-1.2.05-1.92.16-2.46.34-.03.01-.06.01-.09.01-.22,0-.43-.68-.49-1.65.29.05.56.08.91.08.44,0,1.2-.04,1.99-.12q.74-.06.91-.17c.1-.05.17-.08.23-.08.17,0,.43.21.71.56.21.27.34.49.34.58,0,.1-.05.19-.21.35-.19.21-.79,1.33-1.55,2.91,1.24.25,1.7.39,2.6.78.06-.46.12-.99.12-1.35,0-.17-.01-.36-.04-.58.56.08,1.03.17,1.4.26.23.06.31.13.31.23,0,.09-.03.18-.1.34-.12.25-.16.42-.25.95-.04.27-.08.46-.15.83.66.42,1.23.82,1.49,1.07.06.06.1.13.1.19,0,.36-.56,1.21-.79,1.21-.06,0-.13-.04-.23-.12-.35-.31-.78-.68-1.04-.87-.44.94-.9,1.53-1.61,2.14-.61.51-1.46.98-1.77.98-.1,0-.22-.05-.31-.13-.04-.04-.04-.05-.21-.29-.2-.3-.36-.44-.68-.58,1.04-.36,1.55-.62,2.11-1.11.56-.49.99-1.09,1.28-1.79-.88-.48-1.76-.78-2.78-.95ZM191.93,199.5c0,.31.12.51.32.51.29,0,.79-.64,1.61-2.04-1.24.13-1.94.69-1.94,1.53Z"/>
        <path d="M209.04,192.4c.16.1.22.18.22.27s-.01.1-.21.32c-.06.08-.26.36-.47.72q-.65,1.08-1,1.7c-.36.61-.6,1.03-.73,1.22q-.04.07-.22.39c-.17.3-.27.46-.46.7.85-.74,1.3-.94,2.16-.94.57,0,1.08.25,1.4.68.27.36.35.7.47,1.98.07.77.13,1.11.22,1.3.09.18.27.29.51.29.9,0,1.96-1.08,2.48-2.5.13.55.23.81.51,1.29.09.16.12.26.12.39,0,.14-.06.33-.22.57-.68,1.09-1.78,1.74-2.96,1.74-.74,0-1.37-.26-1.69-.69-.26-.36-.38-.84-.48-2.12-.07-.83-.13-1.12-.31-1.33-.14-.16-.35-.23-.64-.23-.86,0-1.99,1.16-2.65,2.69-.2.44-.33.85-.47,1.34-.05.2-.12.27-.21.27-.27,0-.9-.26-1.24-.51-.09-.08-.13-.13-.13-.21,0-.07.03-.13.2-.49.1-.23.14-.3.23-.53q.96-2.25,3.63-7.64c.3-.6.44-.97.53-1.36.68.25.99.4,1.4.69Z"/>
        <path d="M216.98,195.4c-.23.01-.38.03-.53.04-.12.01-.13.01-.14.01-.1,0-.16-.04-.2-.17-.06-.21-.16-.9-.17-1.29.14.01.52.03.99.03.14,0,1.17-.06,1.62-.1.22-1.05.3-1.6.3-2.3,1.34.18,1.82.34,1.82.58,0,.09-.01.12-.21.42-.1.16-.14.3-.36,1.11.61-.1.97-.2,1.46-.35.09-.03.13-.04.2-.04.09,0,.12.06.2.44.06.33.1.6.1.74,0,.16-.04.18-.38.26-.44.1-1.2.23-2,.34-.48,1.46-.81,2.24-1.4,3.46-.46.91-.71,1.39-1.07,1.94-.1.16-.17.21-.26.21-.13,0-.49-.2-.95-.53-.21-.14-.26-.21-.26-.3s.05-.17.22-.4c.38-.47.87-1.27,1.3-2.13.36-.71.49-1.01.87-2.04-.51.04-.55.05-1.14.09ZM221.26,202.89c-1.42,0-2.38-.78-2.38-1.94s1-2.09,2.34-2.09c.31,0,.46.01.99.09-.05-.62-.05-.87-.1-2.08,0-.25-.03-.58-.05-1,.66.06,1.17.14,1.42.25.1.04.16.1.16.21,0,.07-.01.12-.03.21-.06.27-.08.47-.08.82,0,.48.04,1.3.08,1.94.92.42,1.3.62,1.95,1.13.29.22.39.34.39.44,0,.13-.06.25-.43.83-.16.26-.27.38-.37.38q-.08,0-.44-.34c-.29-.29-.61-.51-1.07-.78,0,1.21-.88,1.94-2.38,1.94ZM221.23,200.11c-.62,0-1.05.3-1.05.75,0,.43.39.7.97.7.69,0,1.05-.35,1.05-1.04,0-.1,0-.21-.01-.21-.26-.13-.61-.21-.96-.21ZM226.09,196.42c-.16.22-.23.29-.32.29-.06,0-.12-.03-.21-.12-.32-.31-.78-.65-1.26-.95q-.31-.2-.88-.46c-.18-.08-.25-.13-.25-.23,0-.09.06-.21.26-.51.31-.46.39-.53.51-.53.25,0,1.21.49,1.9.96.56.38.73.53.73.68,0,.1-.21.49-.47.87Z"/>
        <path d="M229.21,196.67c-.1.03-.16.05-.23.09-.06.04-.1.05-.16.05-.29,0-.49-.49-.65-1.46h.25c.55,0,1.94-.17,2.77-.34.27-1.13.42-2,.42-2.61,0-.05,0-.13-.01-.22.56.05,1.09.17,1.46.33.21.08.31.18.31.31,0,.07-.01.12-.08.22q-.2.34-.6,1.77c.31-.04.66-.07.88-.07.53,0,.95.1,1.25.31.52.38.78,1.14.78,2.33,0,1.94-.35,3.6-.95,4.42-.42.57-.96.84-1.73.84-.47,0-.91-.06-1.04-.14q-.11-.07-.14-.55c-.04-.35-.12-.66-.27-1.03.68.23.84.27,1.26.27.62,0,.88-.3,1.17-1.35.2-.69.3-1.57.3-2.54,0-1.01-.25-1.38-.94-1.38-.23,0-.61.04-.91.08-.04.16-.05.17-.1.34-.36,1.34-1.03,3.08-1.69,4.49-.69,1.42-.86,1.7-1.03,1.7-.1,0-.46-.18-.83-.43-.3-.18-.38-.26-.38-.36q0-.07.53-.91c.71-1.11,1.65-3.26,1.98-4.55-.96.22-1.5.34-1.61.38ZM237.38,194c-.21.16-.35.22-.42.22-.04,0-.08-.03-.12-.09-.27-.44-.73-.95-1.1-1.27-.03-.03-.04-.05-.04-.08,0-.05.09-.14.31-.31.22-.16.29-.2.38-.2.21,0,1.35,1.16,1.35,1.37,0,.08-.11.17-.37.36ZM236,195.38c0-.09.12-.21.49-.51.26-.19.39-.27.49-.27.17,0,.75.62,1.3,1.39.46.65.95,1.57.95,1.79,0,.13-.04.17-.46.51-.26.21-.56.38-.66.38-.09,0-.13-.04-.22-.26-.25-.62-.47-1.05-.82-1.61-.35-.56-.38-.58-1-1.26-.05-.06-.08-.1-.08-.16ZM237.7,191.39c.22,0,1.33,1.1,1.33,1.33,0,.06-.08.14-.34.32-.23.18-.35.25-.4.25q-.06,0-.32-.36c-.22-.3-.64-.74-.87-.94-.04-.04-.06-.07-.06-.1,0-.1.53-.49.68-.49Z"/>
        <path d="M245.59,197.76c-.47,0-.79.01-1.14.06v-.87c-.21.35-.23.4-.49,1.11-.29-.49-.43-.81-.62-1.39.01.83.03,1.38.03,1.74v3.16c0,.65.03,1.14.08,1.53h-1.42c.05-.4.08-.9.08-1.53v-2.57c.03-.94.05-1.51.08-1.73-.34,1.22-.62,1.88-1.27,2.95-.2-.66-.36-1.05-.64-1.53.49-.6.82-1.21,1.18-2.13.27-.73.36-1.03.47-1.55h-.49c-.38,0-.62.01-.83.05v-1.3c.21.04.44.05.83.05h.68v-1c0-.66-.03-.99-.08-1.3h1.4c-.05.35-.06.7-.06,1.29v1.01h.34c.32,0,.47-.01.7-.05v1.29c-.23-.03-.44-.04-.72-.04h-.27c.14.49.57,1.2,1.04,1.69v-.12c.38.05.71.07,1.26.07h1.53v-.68h-1.16c-.65,0-.81,0-1.18.05v-1.18c.35.04.56.05,1.16.05h1.18v-.65h-1.38c-.57,0-.79.01-1.18.05v-1.23c.36.05.69.06,1.18.06h.18c-.17-.4-.37-.73-.71-1.21l1.18-.4c.38.6.61,1.05.83,1.61h1.09c.36-.6.56-1.01.74-1.61l1.34.35c-.3.61-.51.96-.71,1.26h.61c.49,0,.88-.03,1.24-.06v1.25c-.37-.05-.7-.07-1.22-.07h-1.91v.65h1.53c.62,0,.88-.01,1.25-.05v1.18c-.38-.04-.57-.05-1.25-.05h-1.53v.68h2.01c.51,0,.94-.03,1.3-.07v1.25c-.44-.04-.83-.06-1.29-.06h-1.94c.2.58.37.88.78,1.47.44-.39.75-.78,1.16-1.38l1,.71c-.52.66-.86,1.04-1.4,1.52.64.61,1.13.95,1.97,1.35-.35.4-.56.71-.82,1.24-1.4-.9-2.22-1.82-2.83-3.22.03.4.04.66.04.9v1.73c0,.73-.39.96-1.59.96-.18,0-.49-.01-.87-.04-.06-.55-.14-.87-.34-1.26.44.08.77.12,1.18.12.29,0,.35-.06.35-.3v-1.16c-.62.47-1.33.95-1.91,1.29-.61.35-.73.43-1.04.66l-.52-1.34c.36-.1.6-.21,1.04-.42.79-.4,1.05-.55,2.43-1.46v-1.38h-1.65ZM245.3,197.85c.62.57.86.83,1.26,1.42l-.92.69c-.4-.58-.6-.82-1.21-1.42l.87-.69Z"/>
        <path d="M258.18,195.9c0-.38-.01-.66-.04-.95h.65c.85-.51,1.21-.78,2.12-1.6h-4.98c-.66,0-1.06.03-1.51.08v-1.48c.44.05.85.08,1.5.08h5.65c.64,0,.83-.01,1.09-.05l.81.9q-.34.31-1.18,1.12c-.6.57-1.59,1.29-2.65,1.94v.53h3.05c.82,0,1.29-.03,1.7-.08v1.52c-.48-.06-.92-.08-1.7-.08h-3.05v3.64c0,1.1-.42,1.38-2.09,1.38-.26,0-.44-.01-1.39-.05-.11-.73-.16-.95-.38-1.5.75.1,1.21.14,1.82.14.49,0,.59-.05.59-.31v-3.3h-3.35c-.75,0-1.18.01-1.7.08v-1.52c.46.05.92.08,1.74.08h3.31v-.56Z"/>
        <path d="M268.46,199.37c-.59,0-1.04.01-1.35.04.04-.36.06-.77.06-1.33v-4.55c0-.68-.03-1.23-.06-1.55.36.04.75.05,1.31.05h5.76c.54,0,.95-.01,1.31-.05-.04.27-.06.84-.06,1.55v4.55c0,.62.01.96.06,1.33-.32-.03-.83-.04-1.33-.04h-1.08v1.92c0,.35.1.39,1.12.39.94,0,1.18-.05,1.33-.26.13-.18.2-.68.22-1.6.52.27.83.4,1.3.52-.13,1.39-.25,1.86-.57,2.16-.35.31-.88.42-2.28.42-2.09,0-2.47-.17-2.47-1.11v-2.44h-1.12c-.14.95-.55,1.73-1.18,2.31-.79.73-1.73,1.18-3.16,1.51-.21-.52-.37-.78-.73-1.23,1.18-.21,1.83-.43,2.44-.83.66-.43,1.03-.98,1.18-1.75h-.71ZM268.49,194.1h5.63v-.82h-5.63v.82ZM268.49,196.09h5.63v-.82h-5.63v.82ZM268.49,198.16h5.63v-.9h-5.63v.9Z"/>
        <path d="M282.4,192.13c.32.09.42.16.42.3,0,.09-.01.13-.08.31-.14.38-.25,1.04-.3,1.95-.1,2.09-.16,3.72-.16,5,0,.42.04.73.1.94.14.43.6.65,1.33.65,1.17,0,2.28-.48,3.29-1.43.47-.44.75-.79,1.24-1.51.08.42.18.69.47,1.27.04.1.06.18.06.3,0,.23-.25.55-.9,1.13-1.29,1.16-2.72,1.75-4.21,1.75-.99,0-1.72-.25-2.19-.71-.49-.52-.69-1.2-.69-2.48,0-1.01.01-1.79.12-4.82.01-.46.03-.73.03-.84,0-1.11-.01-1.43-.09-1.99.66.03,1.17.08,1.56.18Z"/>
        <path d="M292.91,195.12c-.34.08-.46.12-.92.29-.17.07-.26.09-.34.09-.29,0-.55-.53-.78-1.65.83-.04,1.13-.08,2.57-.3,1.56-.23,3.54-.53,4.58-.66,1.17-.16,2.11-.31,2.6-.42.09-.03.13-.03.2-.03.17,0,.23.08.35.4.11.27.18.66.18.84,0,.16-.05.21-.23.21-.27,0-.52.03-.77.07-2.2.36-3.95,2.29-3.95,4.32,0,1.52,1.2,2.52,3.22,2.7.18.01.25.08.25.23,0,.33-.13.95-.25,1.24-.06.14-.17.21-.34.21s-.56-.08-.96-.2c-2.21-.65-3.37-2.05-3.37-4.04,0-1.08.35-2.08,1.03-2.94.36-.47.68-.73,1.42-1.24-1.7.29-3.5.62-4.48.87Z"/>
        <path d="M310.23,196.12c1.83,0,3.13,1.25,3.13,3.02,0,1.21-.64,2.3-1.7,2.94-.74.44-1.65.66-2.68.66-1.65,0-2.61-.66-2.61-1.79,0-1.03.86-1.75,2.08-1.75,1.11,0,1.9.56,2.43,1.7.66-.48.94-.99.94-1.69,0-1.12-.79-1.85-2.04-1.85s-2.64.64-3.77,1.77c-.21.21-.4.43-.64.73-.09.13-.16.18-.23.18-.23,0-1.16-.91-1.16-1.14,0-.12.05-.18.34-.39.3-.23.73-.61,1.27-1.13,1.26-1.2,2.19-2.2,3.55-3.86-1.63.21-2.72.39-3.12.53-.06.01-.1.03-.14.03-.1,0-.17-.07-.25-.26-.16-.39-.23-.82-.27-1.39.35.05.6.07.88.07.62,0,1.68-.09,3.04-.25.48-.05.64-.09,1-.23.12-.05.18-.06.26-.06.18,0,.37.16.7.68.25.34.32.51.32.61,0,.17-.04.22-.32.4-.23.14-.38.26-.68.55-.65.62-.66.62-1.47,1.44-.57.58-.64.65-1.16,1.17.85-.47,1.51-.66,2.29-.66ZM308.98,200.62c-.2-.13-.42-.2-.66-.2-.4,0-.66.2-.66.51,0,.38.4.61,1.03.61.29,0,.53-.03.86-.12-.16-.43-.29-.62-.56-.81Z"/>
        <path d="M318.1,194.14c.3-.78.58-1.2,1.08-1.61.6-.49,1.31-.73,2.22-.73,1.95,0,3.2,1.07,3.2,2.73,0,.56-.16,1.09-.46,1.52-.23.34-.34.44-1.07,1.1-1.01.91-1.23,1.26-1.23,1.95v.69h-1.33v-.73c0-.58.12-1.1.35-1.52.18-.33.38-.55.9-1.07.54-.53.71-.73.86-.96.18-.26.29-.62.29-.97,0-.87-.58-1.42-1.51-1.42s-1.47.48-1.86,1.61l-1.44-.6ZM322.24,201.72c0,.57-.46,1.03-1.03,1.03s-1.03-.46-1.03-1.03.46-1.03,1.03-1.03,1.03.46,1.03,1.03Z"/>
      </g>
      <g>
        <path d="M54.71,189.99h4.17c.73,0,1.41-.03,1.93-.09v1.74c-.6-.08-1.2-.11-1.92-.11h-9.15c-.67,0-1.33.03-1.98.11v-1.74c.56.06,1.17.09,1.98.09h3.29v-9.3c0-.66-.03-1.08-.09-1.67h1.86c-.06.54-.09,1.02-.09,1.67v2.46h3.39c.63,0,1.17-.03,1.68-.09v1.72c-.54-.06-1.08-.09-1.68-.09h-3.39v5.29Z"/>
        <path d="M64.46,184.75c-.12.03-.18.06-.27.1-.08.04-.12.06-.18.06-.33,0-.57-.57-.75-1.68h.29c.63,0,2.24-.19,3.2-.39.31-1.3.48-2.31.48-3.01,0-.06,0-.15-.01-.25.64.06,1.26.19,1.68.38.24.09.36.21.36.36,0,.08-.02.13-.09.25q-.23.39-.69,2.04c.36-.04.76-.08,1.02-.08.62,0,1.1.12,1.44.36.6.43.9,1.32.9,2.68,0,2.24-.41,4.16-1.1,5.1-.48.66-1.11.98-2,.98-.54,0-1.05-.08-1.2-.17q-.12-.08-.17-.63c-.04-.41-.13-.77-.32-1.19.78.27.98.32,1.46.32.72,0,1.02-.34,1.35-1.56.23-.79.35-1.82.35-2.92,0-1.17-.29-1.59-1.08-1.59-.27,0-.71.05-1.05.09-.04.18-.06.19-.12.39-.42,1.54-1.19,3.55-1.95,5.17-.79,1.63-.99,1.96-1.18,1.96-.12,0-.53-.21-.96-.5-.35-.21-.44-.3-.44-.42q0-.08.62-1.05c.83-1.28,1.91-3.76,2.28-5.25-1.11.25-1.73.39-1.86.44ZM73.88,181.68c-.24.18-.41.25-.48.25-.04,0-.09-.03-.13-.11-.32-.51-.84-1.09-1.28-1.47-.03-.03-.04-.06-.04-.09,0-.06.11-.17.36-.36.25-.18.33-.22.43-.22.24,0,1.56,1.33,1.56,1.58,0,.09-.12.19-.42.42ZM72.29,183.27c0-.11.13-.24.57-.58.3-.22.45-.32.57-.32.2,0,.87.72,1.5,1.61.52.75,1.09,1.81,1.09,2.07,0,.15-.04.2-.52.58-.3.24-.65.44-.77.44-.1,0-.15-.04-.25-.3-.29-.72-.54-1.21-.95-1.86-.4-.64-.43-.67-1.15-1.46-.06-.08-.09-.12-.09-.18ZM74.26,178.66c.25,0,1.53,1.27,1.53,1.53,0,.08-.09.17-.39.38-.27.21-.41.29-.46.29q-.08,0-.38-.42c-.25-.34-.74-.85-1-1.08-.04-.04-.08-.08-.08-.12,0-.12.62-.57.78-.57Z"/>
        <path d="M82.03,184.39c1.89-.53,3.25-.76,4.27-.76,2.12,0,3.42,1.15,3.42,3.03,0,1.12-.46,2.12-1.35,2.87-.58.5-1.46.92-2.61,1.26-.64.18-1.33.32-1.63.32-.18,0-.27-.05-.33-.2-.21-.53-.45-.9-.76-1.21,3.3-.34,4.98-1.4,4.98-3.11,0-.87-.72-1.54-1.65-1.54-1.62,0-3.39.54-5.25,1.58-.15.08-.24.12-.3.12-.25,0-.67-.75-1.02-1.83.74-.1.99-.17,2.24-.51Z"/>
        <path d="M94.91,183.67h-.09c-.08.01-.14.01-.17.01-.13,0-.21-.06-.25-.25-.09-.38-.15-.84-.18-1.41.21.02.38.02.48.02.81,0,1.75-.06,2.55-.17.15-.99.22-1.75.22-2.37v-.35c1.74.23,2.07.33,2.06.6,0,.08-.03.12-.09.25-.18.34-.19.39-.43,1.58.58-.11,1.33-.3,1.63-.41.06-.03.08-.03.12-.03.13,0,.17.06.29.58.06.3.12.72.12.84,0,.11-.04.17-.18.2q-.27.09-2.32.45c-.69,3.04-1.41,5.29-2.57,7.99-.08.2-.15.27-.24.27-.2,0-.72-.21-1.23-.5-.25-.13-.33-.21-.33-.29,0-.06.04-.17.12-.31,1.14-2.16,1.96-4.46,2.54-6.93-.66.09-1.12.13-2.04.21ZM101.32,189.37c.44.29,1.07.42,1.95.42.97,0,1.82-.09,2.29-.24.12-.03.15-.05.21-.05.13,0,.2.05.24.18.1.31.18.93.18,1.39,0,.2-.06.27-.25.32-.5.1-1.33.17-2.22.17-1.88,0-2.92-.3-3.62-1.02-.25-.27-.46-.61-.58-.99-.09-.21-.15-.47-.15-.56,0-.25.45-.52,1.23-.78.17.63.34.9.72,1.15ZM105.53,185.01c-.3-.04-.93-.08-1.46-.08-1.11,0-1.57.04-2.89.27-.03.02-.08.02-.1.02-.09,0-.14-.03-.17-.12-.04-.11-.11-.84-.11-1.16,0-.2.03-.29.15-.33.06-.03.15-.04.46-.1,1.02-.18,1.88-.25,2.92-.25.87,0,1.32.03,1.42.1.08.06.09.18.09.67,0,.44-.03.83-.06.92-.02.04-.08.08-.15.08-.03,0-.08,0-.12-.01Z"/>
        <path d="M113.78,184.48q.07-.12.73-1.23c.09.25.18.42.36.66.1.17.15.26.15.35s-.03.17-.39.75c-.25.45-.69,1.38-.87,1.83-.15.42-.21.45-.71.45s-.88-.06-.94-.15c-.09-.12-.15-.93-.15-2.04,0-1.47.11-2.5.5-5.12.04-.3.06-.45.06-.78,1.17.21,1.94.55,1.94.84,0,.08-.02.12-.12.25-.2.29-.32.67-.46,1.47-.18,1-.32,2.33-.32,3.12q.13-.24.23-.41ZM119.23,180.1v.25c.01.06.01.18.03.35q.01.24.04.61,0,.17.03.72c.04.72.07,1.44.07,1.8,0,2.82-.73,5.01-2.29,6.85-.6.71-1.12,1.11-1.42,1.11-.18,0-.19,0-.51-.24-.29-.23-.67-.42-1.06-.53,1.05-.75,1.62-1.27,2.17-2.07.93-1.33,1.38-2.93,1.38-4.86,0-2.05-.14-3.31-.48-4.23.63-.08,1.09-.11,1.53-.11s.51.03.51.29v.04Z"/>
        <path d="M49.72,203.74c-.71,0-1.33.03-1.93.09v-1.69c.55.06,1.18.09,1.93.09h9.04c.73,0,1.33-.03,1.93-.09v1.69c-.63-.06-1.21-.09-1.93-.09h-4.08v1.7c2.19.94,3.24,1.47,5.19,2.64l-.82,1.44c-1.32-.92-2.83-1.77-4.37-2.46v5.64c0,.9.03,1.42.09,1.98h-1.84c.06-.55.09-1.05.09-1.98v-8.96h-3.3Z"/>
        <path d="M64.46,207.43c-.12.03-.18.06-.27.1-.08.04-.12.06-.18.06-.33,0-.57-.57-.75-1.68h.29c.63,0,2.24-.19,3.2-.39.31-1.3.48-2.31.48-3.01,0-.06,0-.15-.01-.25.64.06,1.26.19,1.68.38.24.09.36.21.36.36,0,.08-.02.13-.09.25q-.23.39-.69,2.04c.36-.04.76-.08,1.02-.08.62,0,1.1.12,1.44.36.6.43.9,1.32.9,2.68,0,2.24-.41,4.16-1.1,5.1-.48.66-1.11.97-2,.97-.54,0-1.05-.08-1.2-.17q-.12-.08-.17-.63c-.04-.41-.13-.77-.32-1.19.78.27.98.32,1.46.32.72,0,1.02-.34,1.35-1.56.23-.79.35-1.82.35-2.92,0-1.17-.29-1.59-1.08-1.59-.27,0-.71.04-1.05.09-.04.18-.06.19-.12.39-.42,1.54-1.19,3.55-1.95,5.17-.79,1.63-.99,1.96-1.18,1.96-.12,0-.53-.21-.96-.5-.35-.21-.44-.3-.44-.42q0-.08.62-1.05c.83-1.28,1.91-3.76,2.28-5.25-1.11.25-1.73.39-1.86.44ZM73.88,204.35c-.24.18-.41.25-.48.25-.04,0-.09-.03-.13-.11-.32-.51-.84-1.09-1.28-1.47-.03-.03-.04-.06-.04-.09,0-.06.11-.17.36-.36.25-.18.33-.22.43-.22.24,0,1.56,1.33,1.56,1.58,0,.09-.12.19-.42.42ZM72.29,205.94c0-.11.13-.24.57-.58.3-.22.45-.32.57-.32.2,0,.87.72,1.5,1.61.52.75,1.09,1.81,1.09,2.07,0,.15-.04.2-.52.58-.3.24-.65.44-.77.44-.1,0-.15-.04-.25-.3-.29-.72-.54-1.21-.95-1.86-.4-.64-.43-.67-1.15-1.46-.06-.08-.09-.12-.09-.18ZM74.26,201.34c.25,0,1.53,1.27,1.53,1.53,0,.08-.09.17-.39.38-.27.21-.41.29-.46.29q-.08,0-.38-.42c-.25-.34-.74-.85-1-1.08-.04-.04-.08-.08-.08-.12,0-.12.62-.57.78-.57Z"/>
        <path d="M82.03,207.07c1.89-.53,3.25-.76,4.27-.76,2.12,0,3.42,1.15,3.42,3.03,0,1.12-.46,2.12-1.35,2.87-.58.5-1.46.92-2.61,1.26-.64.18-1.33.32-1.63.32-.18,0-.27-.05-.33-.2-.21-.53-.45-.9-.76-1.21,3.3-.34,4.98-1.4,4.98-3.11,0-.87-.72-1.54-1.65-1.54-1.62,0-3.39.54-5.25,1.58-.15.08-.24.12-.3.12-.25,0-.67-.75-1.02-1.83.74-.1.99-.17,2.24-.51Z"/>
        <path d="M94.91,206.35h-.09c-.08.01-.14.01-.17.01-.13,0-.21-.06-.25-.25-.09-.38-.15-.84-.18-1.41.21.01.38.01.48.01.81,0,1.75-.06,2.55-.16.15-.99.22-1.76.22-2.37v-.34c1.74.22,2.07.33,2.06.6,0,.08-.03.12-.09.25-.18.34-.19.39-.43,1.58.58-.11,1.33-.3,1.63-.41.06-.03.08-.03.12-.03.13,0,.17.06.29.58.06.3.12.72.12.84,0,.11-.04.17-.18.2q-.27.09-2.32.45c-.69,3.04-1.41,5.29-2.57,7.99-.08.2-.15.27-.24.27-.2,0-.72-.21-1.23-.5-.25-.13-.33-.21-.33-.29,0-.06.04-.17.12-.31,1.14-2.16,1.96-4.46,2.54-6.93-.66.09-1.12.13-2.04.21ZM101.32,212.05c.44.29,1.07.42,1.95.42.97,0,1.82-.09,2.29-.24.12-.03.15-.05.21-.05.13,0,.2.05.24.18.1.31.18.93.18,1.39,0,.2-.06.27-.25.32-.5.1-1.33.17-2.22.17-1.88,0-2.92-.3-3.62-1.02-.25-.27-.46-.61-.58-.99-.09-.21-.15-.47-.15-.56,0-.25.45-.52,1.23-.78.17.63.34.9.72,1.15ZM105.53,207.68c-.3-.04-.93-.08-1.46-.08-1.11,0-1.57.04-2.89.27-.03.02-.08.02-.1.02-.09,0-.14-.03-.17-.12-.04-.11-.11-.84-.11-1.16,0-.2.03-.29.15-.33.06-.03.15-.04.46-.1,1.02-.18,1.88-.25,2.92-.25.87,0,1.32.03,1.42.1.08.06.09.18.09.67,0,.44-.03.83-.06.92-.02.04-.08.08-.15.08-.03,0-.08,0-.12-.01Z"/>
        <path d="M113.78,207.16q.07-.12.73-1.23c.09.25.18.42.36.66.1.17.15.26.15.35s-.03.17-.39.75c-.25.45-.69,1.38-.87,1.83-.15.42-.21.45-.71.45s-.88-.06-.94-.15c-.09-.12-.15-.93-.15-2.04,0-1.47.11-2.5.5-5.12.04-.3.06-.45.06-.78,1.17.21,1.94.55,1.94.84,0,.07-.02.12-.12.25-.2.29-.32.67-.46,1.47-.18,1-.32,2.33-.32,3.12q.13-.24.23-.41ZM119.23,202.78v.25c.01.06.01.18.03.35q.01.24.04.61,0,.17.03.72c.04.72.07,1.44.07,1.8,0,2.82-.73,5.01-2.29,6.85-.6.71-1.12,1.11-1.42,1.11-.18,0-.19,0-.51-.24-.29-.23-.67-.42-1.06-.53,1.05-.75,1.62-1.27,2.17-2.07.93-1.33,1.38-2.93,1.38-4.86,0-2.05-.14-3.31-.48-4.23.63-.08,1.09-.11,1.53-.11s.51.03.51.29v.04Z"/>
      </g>
    </g>
  </g>
</svg>