<?xml version="1.0" encoding="UTF-8"?>
<svg id="_レイヤー_2" data-name="レイヤー 2" xmlns="http://www.w3.org/2000/svg" width="339.66" height="238.01" viewBox="0 0 339.66 238.01">
  <defs>
    <style>
      .cls-1 {
        fill: #211815;
      }

      .cls-2 {
        fill: #f5f19b;
      }

      .cls-3 {
        fill: #ecbb6e;
      }

      .cls-4 {
        fill: #93c9ce;
      }

      .cls-5 {
        fill: #5c948d;
      }

      .cls-6 {
        fill: #fffba1;
      }

      .cls-7, .cls-8 {
        fill: #fff;
      }

      .cls-9 {
        fill: #d3f2c9;
      }

      .cls-10 {
        fill: #de8a4c;
      }

      .cls-11 {
        fill: #ceeaeb;
      }

      .cls-12 {
        fill: #f2d496;
      }

      .cls-8 {
        stroke: #ceeaeb;
        stroke-miterlimit: 10;
        stroke-width: 2.83px;
      }
    </style>
  </defs>
  <g id="_レイヤー_1-2" data-name="レイヤー 1">
    <g>
      <path class="cls-8" d="M329.77,1.42H90.4c-4.68,0-8.47,3.79-8.47,8.47v64.05s-9.69,9.69-9.69,9.69h9.69s0,.5,0,.5c0,4.68,3.79,8.47,8.47,8.47h239.38c4.68,0,8.47-3.79,8.47-8.47V9.89c0-4.68-3.79-8.47-8.47-8.47Z"/>
      <g>
        <path d="M104.5,20.19h2.13c.68,0,1.1-.03,1.54-.09v1.63c-.48-.04-.93-.07-1.56-.07h-1.62c.86,1.5,2.1,2.74,3.58,3.58-.48.48-.69.78-.99,1.5-.61-.43-1.05-.85-1.62-1.5-.74-.85-1.05-1.32-1.53-2.22.03.54.04,1,.04,1.44v1.81c0,.67.03,1.2.09,1.67h-1.67c.06-.46.09-1,.09-1.68v-1.71c0-.4.02-.88.04-1.48-.91,1.65-1.93,2.76-3.39,3.73-.38-.71-.58-1-.9-1.36,1.54-.89,2.8-2.17,3.67-3.78h-.95c-.64,0-1.11.03-1.58.09v-.6c-.25.36-.43.69-.61,1.21-.38-.58-.6-1.05-.89-1.8.03.47.06,1.27.06,1.91v3.69c0,.77.03,1.32.09,1.77h-1.67c.06-.46.09-1.02.09-1.77v-3.1c0-.57.02-.93.11-1.86-.44,1.46-.87,2.43-1.51,3.41-.18-.68-.38-1.11-.68-1.6.72-.92,1.47-2.61,1.92-4.35h-.57c-.44,0-.69.02-.96.06v-1.53c.24.04.51.06.96.06h.72v-1.16c0-.76-.01-1.14-.08-1.5h1.65c-.06.39-.08.8-.08,1.5v1.16h.43c.36,0,.54-.02.78-.06v1.42c.57-1.02,1.05-2.52,1.09-3.49l1.46.38c-.06.16-.1.34-.21.79-.08.27-.1.4-.18.69h1.15v-.99c0-.61-.03-.99-.09-1.36h1.68c-.06.36-.09.77-.09,1.36v.99h1.7c.72,0,1.14-.03,1.54-.09v1.58c-.42-.04-.9-.08-1.54-.08h-1.7v1.81ZM101.37,18.37c-.25.62-.39.9-.81,1.6q-.36-.38-1.17-.94c.12-.17.17-.24.24-.35-.2-.03-.44-.04-.71-.04h-.38c.34.79.71,1.4,1.36,2.28v-.83c.45.06.87.09,1.56.09h1.53v-1.81h-1.63Z"/>
        <path d="M115.35,24.24c-.72,1.25-1.71,1.94-2.73,1.94-1.56,0-2.67-1.53-2.67-3.66,0-2.37,1.2-4.41,3.25-5.49,1-.54,2.08-.78,3.51-.78,3.14,0,5.46,2.22,5.46,5.19,0,2.62-1.29,4.51-3.78,5.58-.5.21-.89.33-1.08.33-.18,0-.25-.06-.45-.34-.25-.39-.54-.68-.95-.95,3.09-.79,4.49-2.25,4.49-4.68,0-1.25-.53-2.29-1.46-2.96-.53-.36-.95-.51-1.77-.64-.42,3.16-.92,4.89-1.83,6.46ZM113.19,18.93c-1,.88-1.58,2.15-1.58,3.55,0,1.16.38,1.83,1,1.83.75,0,1.52-1.04,2.08-2.82.36-1.12.54-1.98.77-3.65-1.07.23-1.59.48-2.28,1.08Z"/>
        <path d="M126.9,19.27c.75-.85.87-.99,1.16-1.17.31-.19.55-.27.94-.27.44,0,.71.09,1.05.33q.26.17,1.2,1.12c.98,1,2.34,2.23,3.44,3.09.73.58,1.17.89,2.19,1.53.15.09.21.15.21.25s-.12.36-.42.87c-.34.6-.53.81-.71.81-.08,0-.15-.03-.24-.09-1.88-1.33-3.66-2.92-5.68-5.07-.75-.79-.79-.84-1.05-.84-.17,0-.27.06-.43.23-.14.15-1.08,1.36-1.56,1.99-.38.5-.39.52-.72.9-.22.24-.29.31-.36.45-.1.18-.18.24-.29.24-.17,0-.46-.22-.82-.61-.24-.27-.38-.45-.72-.98.71-.44,1.26-.99,2.82-2.79ZM135.72,17.83c0,.9-.71,1.6-1.6,1.6s-1.61-.7-1.61-1.6.71-1.6,1.61-1.6,1.6.7,1.6,1.6ZM133.32,17.83c0,.44.36.8.79.8s.79-.36.79-.8-.36-.79-.79-.79-.79.36-.79.79Z"/>
        <path d="M144.45,20.35c2.75,0,4.32-.03,5.83-.13h.19c.45,0,.45.01.45,1.21,0,.61-.04.72-.3.72h-.06c-.99-.04-1.54-.04-5.88-.04-1.59,0-2.38.02-3.76.06h-.44c-.48,0-.55.02-.84.06-.08,0-.13.02-.17.02-.17,0-.27-.08-.3-.21-.09-.38-.15-1.14-.15-1.83,1.21.12,2.28.15,5.42.15Z"/>
        <path d="M157.63,21.61c-.21.33-.27.39-.39.39q-.1,0-.75-.44c-.52-.34-1.18-.66-2.26-1.03-.24-.09-.32-.15-.32-.25,0-.08.12-.33.36-.74.06-.12.12-.21.15-.28.17-.3.24-.39.36-.39.25,0,1.38.42,2.19.81.45.23,1.02.55,1.14.65.04.06.08.1.08.18,0,.15-.21.56-.56,1.11ZM165.36,19.9c.06.15.07.24.07.33,0,.2-.07.32-.36.63-1.25,1.38-2.52,2.5-4.05,3.54-1.31.89-2.81,1.68-4.26,2.29-.44.18-.57.25-.74.41-.13.1-.18.13-.25.13-.29,0-.79-.82-1.25-2.01,1.46-.25,3.17-.96,4.91-2.01,1.08-.64,2.37-1.62,3.3-2.49.82-.76,1.29-1.33,2.16-2.55.09.71.15.9.47,1.73ZM159.07,18.67c-.2.24-.27.3-.38.3-.06,0-.13-.03-.22-.12-.93-.81-1.82-1.38-2.78-1.75-.15-.06-.21-.12-.21-.21,0-.06.01-.1.09-.23.72-1.09.75-1.14.92-1.14.3,0,1.54.6,2.4,1.17.72.48.88.61.88.76,0,.17-.34.77-.71,1.22ZM164.04,17.68c-.34-.61-.65-1.03-1.11-1.51-.07-.08-.09-.1-.09-.14,0-.09.09-.19.34-.38.24-.17.33-.23.42-.23.12,0,.27.12.64.53.46.52.83,1,.83,1.14,0,.17-.67.71-.88.71-.06,0-.09-.03-.15-.12ZM166.14,16.56c-.19.14-.33.21-.4.21-.05,0-.08-.01-.15-.13-.41-.66-.67-1-1.12-1.47-.06-.05-.08-.09-.08-.11,0-.13.6-.55.78-.55.12,0,.33.17.63.5.43.48.79.99.79,1.11,0,.1-.12.21-.45.45Z"/>
        <path d="M173.79,23.23c-1.48.87-1.91,1.31-1.91,1.96,0,.27.11.45.33.58.33.2,1.07.3,2.01.3.81,0,1.93-.08,2.7-.18.32-.04.5-.09,1.09-.24h.08c.11,0,.18.07.23.18.09.31.15.77.15,1.31,0,.23-.08.31-.27.36-.36.08-2.03.17-3.12.17-1.83,0-2.8-.12-3.52-.42-.87-.36-1.31-1.04-1.31-1.98,0-.87.41-1.63,1.21-2.28.65-.51.79-.62,2.17-1.4-.12-.5-.34-.71-.81-.71-.62,0-1.26.24-1.96.71-.43.3-.95.72-1.26,1.03-.45.47-.5.5-.62.5-.15,0-.46-.34-.78-.87-.15-.25-.24-.45-.24-.55,0-.14.03-.17.39-.39,1.23-.82,2.25-1.88,2.87-2.95-1.07.07-1.62.09-2.21.09-.23,0-.27-.04-.34-.3-.05-.2-.12-.99-.14-1.4.51.07.81.09,1.53.09.58,0,1.23-.02,1.91-.04.31-.85.42-1.4.43-2.1,1.33.23,1.95.45,1.95.71,0,.06-.02.09-.06.18-.1.19-.22.43-.42.9q-.03.06-.04.1c.86-.12,1.61-.27,2.13-.39.33-.09.41-.1.48-.1.12,0,.18.04.21.14.06.27.15.96.15,1.17,0,.16-.06.24-.25.28-.48.14-2.13.39-3.51.52-.45.83-.76,1.31-1.23,1.81.67-.31,1.18-.43,1.78-.43.68,0,1.12.39,1.43,1.23,1.48-.81,2.28-1.24,2.37-1.3.69-.4.98-.63,1.31-1,.61.63,1.27,1.57,1.27,1.83,0,.09-.06.15-.25.2-.74.19-2.1.78-4.38,1.89.01.27.04.96.04,1.44v.72c0,.18-.03.27-.1.31-.08.08-.48.12-.93.12-.51,0-.6-.04-.6-.29v-.06c.03-.44.04-1,.04-1.36v-.08Z"/>
        <path d="M185.14,23.64c-.67,0-1.2.01-1.56.04.04-.42.08-.89.08-1.53v-5.25c0-.78-.03-1.42-.08-1.79.42.05.87.06,1.52.06h6.64c.63,0,1.09-.01,1.51-.06-.04.31-.08.98-.08,1.79v5.25c0,.72.02,1.11.08,1.53-.38-.03-.96-.04-1.53-.04h-1.24v2.22c0,.4.12.45,1.29.45,1.08,0,1.36-.06,1.53-.3.15-.21.23-.78.25-1.84.6.31.96.46,1.5.6-.15,1.6-.29,2.14-.66,2.49-.4.36-1.02.48-2.62.48-2.42,0-2.85-.2-2.85-1.27v-2.82h-1.29c-.17,1.09-.63,1.99-1.36,2.67-.92.84-2,1.36-3.65,1.74-.24-.6-.42-.9-.84-1.42,1.37-.24,2.12-.5,2.82-.96.76-.5,1.18-1.12,1.36-2.02h-.82ZM185.17,17.56h6.5v-.94h-6.5v.94ZM185.17,19.86h6.5v-.94h-6.5v.94ZM185.17,22.24h6.5v-1.04h-6.5v1.04Z"/>
        <path d="M198.9,18.73c-.39.09-.53.13-1.07.33-.19.08-.3.1-.39.1-.33,0-.63-.61-.9-1.9.96-.04,1.31-.09,2.97-.34,1.8-.27,4.08-.62,5.28-.77,1.35-.18,2.43-.36,3-.48.1-.03.15-.03.22-.03.2,0,.27.09.41.47.12.31.21.76.21.98,0,.18-.06.24-.27.24-.32,0-.6.03-.89.08-2.53.42-4.56,2.64-4.56,4.98,0,1.75,1.38,2.91,3.72,3.12.21.01.29.09.29.27,0,.38-.15,1.09-.29,1.42-.08.17-.19.24-.39.24s-.65-.09-1.11-.22c-2.55-.75-3.88-2.37-3.88-4.67,0-1.25.41-2.4,1.19-3.39.42-.54.78-.84,1.63-1.43-1.96.33-4.04.72-5.17,1.01Z"/>
        <path d="M211.86,19.44h-.09c-.08.02-.14.02-.17.02-.13,0-.21-.06-.25-.25-.09-.38-.15-.84-.18-1.41.21.02.38.02.48.02.81,0,1.75-.06,2.55-.17.15-.99.22-1.75.22-2.37v-.35c1.74.23,2.07.33,2.06.6,0,.07-.03.12-.09.25-.18.35-.19.39-.43,1.57.58-.1,1.33-.3,1.63-.4.06-.03.08-.03.12-.03.13,0,.17.06.29.58.06.3.12.72.12.84,0,.1-.04.17-.18.19q-.27.09-2.32.45c-.69,3.04-1.41,5.29-2.57,7.99-.08.19-.15.27-.24.27-.2,0-.72-.21-1.23-.5-.25-.13-.33-.21-.33-.29,0-.06.04-.16.12-.31,1.14-2.16,1.96-4.45,2.54-6.93-.66.09-1.12.14-2.04.21ZM218.26,25.14c.44.29,1.07.42,1.95.42.97,0,1.82-.09,2.29-.24.12-.03.15-.04.21-.04.13,0,.2.04.24.18.1.31.18.93.18,1.39,0,.2-.06.27-.25.31-.5.11-1.33.17-2.22.17-1.88,0-2.92-.3-3.62-1.02-.25-.27-.46-.62-.58-.99-.09-.21-.15-.46-.15-.55,0-.26.45-.53,1.23-.78.17.63.34.9.72,1.15ZM222.48,20.77c-.3-.04-.93-.07-1.46-.07-1.11,0-1.57.04-2.89.27-.03.01-.08.01-.1.01-.09,0-.14-.03-.17-.12-.04-.1-.11-.84-.11-1.16,0-.19.03-.28.15-.33.06-.03.15-.04.46-.1,1.02-.18,1.88-.25,2.92-.25.87,0,1.32.03,1.42.1.08.06.09.18.09.68,0,.43-.03.82-.06.91-.02.05-.08.08-.15.08-.03,0-.08,0-.12-.02Z"/>
        <path d="M233.64,20.22c2.05,0,3.39,1.21,3.39,3.06s-1.12,3.02-3.37,3.73c-.81.26-2.15.5-2.75.5-.32,0-.39-.08-.6-.51-.16-.35-.34-.56-.79-.87,3.77-.3,5.62-1.26,5.62-2.9,0-.92-.64-1.46-1.72-1.46-1.37,0-2.78.71-3.93,1.95-.21.21-.41.46-.54.69s-.23.3-.36.3c-.22,0-.75-.22-1.11-.49-.18-.14-.24-.24-.24-.48q0-.12.04-.48s0-.15.01-.31c.08-.96.12-1.37.3-2.72q.03-.16.14-.87s.04-.33.12-.89c.01-.13.03-.25.03-.49.72.1,1.4.27,1.68.43.12.06.18.14.17.23,0,.06-.03.1-.07.2-.17.25-.21.39-.35.96-.13.57-.34,1.89-.38,2.38,1.53-1.41,2.87-1.96,4.71-1.96ZM233.37,15.94c.58.34.76.51.76.67,0,.14-.24.58-.5.96-.24.35-.33.42-.45.42-.07,0-.12-.03-.3-.17-1-.76-1.8-1.2-2.92-1.59-.22-.09-.27-.12-.27-.24,0-.15.12-.41.39-.79.24-.36.34-.45.51-.45.36,0,1.83.63,2.78,1.19Z"/>
        <path d="M240.03,24.06c.27-.24.34-.3.45-.3.19,0,1.09.66,1.75,1.29.75.69,1.59,1.69,1.59,1.9,0,.14-.03.17-.46.56-.57.52-.69.61-.79.61-.09,0-.18-.06-.25-.21-.53-.93-1.73-2.16-2.79-2.85-.12-.09-.18-.15-.18-.24,0-.1.03-.15.69-.76Z"/>
        <path d="M259.36,18.73c-1.04,1.38-2.81,3.03-3.24,3.03-.13,0-.2-.03-.5-.29-.22-.19-.62-.46-1.11-.75,1.06-.57,2.16-1.47,2.98-2.44.88-1.05,1.41-1.92,1.94-3.24.73.24,1.12.42,1.62.69.21.12.29.21.29.34,0,.1-.04.2-.18.29-.15.12-.3.3-.69.84l2.24.02c.81,0,.96-.02,1.41-.18.06-.01.1-.03.17-.03.24,0,.49.23.93.78.29.36.36.51.36.68s-.04.24-.25.45c-.12.12-.31.41-.46.68-1.62,2.92-3.18,4.77-5.56,6.54-1.04.78-2.4,1.57-2.68,1.57-.12,0-.23-.06-.36-.21-.25-.27-.66-.55-1.25-.87,2.19-1.05,3.72-2.1,5.22-3.62,1.07-1.06,1.82-2.08,2.47-3.34.14-.25.23-.45.47-.94l-3.79.02ZM266.5,17.11c-.33.29-.53.42-.62.42s-.09,0-.36-.45c-.24-.41-.6-.87-.94-1.22-.06-.06-.08-.09-.08-.13,0-.12.57-.54.74-.54.12,0,.3.15.75.66.4.46.69.87.69.97s-.04.17-.18.29ZM267.18,16.35c-.36-.61-.71-1.05-1.11-1.44-.06-.06-.07-.09-.07-.12,0-.08.07-.15.33-.33.2-.15.29-.18.39-.18.17.02.55.39,1.06,1.05.21.27.35.5.35.57s-.05.15-.23.28c-.24.18-.46.31-.55.31-.06,0-.11-.03-.17-.15Z"/>
        <path d="M270.36,20.82s-.11.02-.12.02c-.33,0-.46-.51-.57-2.05.74.12,1.77.17,4.56.17,3,0,3.81,0,4.1-.03.22-.02.27-.03.57-.12.11-.04.2-.06.29-.06.22,0,.41.1.64.36.41.46.68.88.68,1.06,0,.17-.08.28-.25.48-.12.1-.2.24-.48.88-1,2.21-2.13,3.56-3.9,4.68-.81.53-2.12,1.12-2.42,1.12-.21,0-.33-.09-.58-.39-.39-.47-.57-.63-.99-.84,1.71-.51,3.27-1.36,4.38-2.43.84-.81,1.47-1.86,1.91-3.17-5.69.08-6.74.12-7.8.31ZM275.26,15.49q1.56,0,3.29-.12h.18c.2,0,.27.15.29.6,0,.18,0,.35.01.5v.06c0,.54-.06.69-.25.69-.06,0-.18-.02-.31-.02-.29-.03-1.41-.06-1.88-.06-2.25,0-3.86.03-4.74.1h-.12c-.39,0-.45-.22-.54-1.9.98.12,1.92.15,4.08.15Z"/>
        <path d="M289.9,17.92c-2.69,0-4.58.09-5.06.23-.01.01-.03.01-.04.01-.29,0-.38-.49-.42-2.04.74.12,1.7.15,3.92.15,2.01,0,4.37-.04,4.74-.09.27-.03.36-.04.63-.15.08-.03.1-.03.17-.03.25,0,.57.24,1.05.81.29.36.34.45.34.61,0,.1-.04.19-.15.33-.15.18-.17.23-.5,1.27-.84,2.64-2.5,5.01-4.75,6.75-.9.69-1.75,1.22-1.98,1.22-.17,0-.19-.02-.54-.36-.4-.4-.72-.63-1.12-.85,2.21-1.09,3.41-2.02,4.56-3.48,1.03-1.32,1.68-2.73,2.02-4.41q-1.17.02-2.86.03Z"/>
        <path d="M303.33,21.99c-.54,1-1.16,1.99-1.71,2.8-.62.88-1.32,1.33-2.05,1.33-1.08,0-1.82-.89-1.82-2.21,0-1.14.57-2.11,1.63-2.74.71-.41,1.77-.69,2.62-.69h.15c.76-1.56.96-1.98,1.47-3.15-1.38.06-2.22.18-2.83.39-.03.02-.08.02-.11.02-.25,0-.49-.78-.57-1.9.33.06.64.09,1.05.09.51,0,1.38-.04,2.29-.13q.85-.08,1.05-.2c.12-.06.2-.09.27-.09.19,0,.49.24.82.65.24.31.39.57.39.67,0,.12-.06.23-.24.41-.22.24-.92,1.53-1.79,3.36,1.42.28,1.96.45,3,.9.08-.52.13-1.14.13-1.56,0-.19-.01-.42-.04-.67.65.09,1.19.19,1.62.3.27.08.36.15.36.27,0,.1-.03.21-.12.39-.13.28-.18.48-.29,1.09-.04.31-.09.52-.18.96.76.48,1.42.94,1.72,1.23.08.08.12.15.12.23,0,.42-.65,1.4-.92,1.4-.08,0-.15-.04-.27-.14-.4-.36-.9-.78-1.2-1-.51,1.08-1.04,1.77-1.86,2.48-.71.58-1.68,1.12-2.04,1.12-.12,0-.25-.06-.36-.15-.04-.04-.04-.06-.24-.33-.23-.35-.42-.51-.78-.68,1.2-.42,1.79-.72,2.43-1.27.65-.57,1.14-1.26,1.47-2.07-1.02-.56-2.03-.9-3.21-1.09ZM299.28,23.79c0,.36.13.58.38.58.33,0,.92-.73,1.86-2.35-1.42.15-2.23.79-2.23,1.77Z"/>
        <path d="M313.08,19.44h-.09c-.08.02-.14.02-.17.02-.13,0-.21-.06-.25-.25-.09-.38-.15-.84-.18-1.41.21.02.38.02.48.02.81,0,1.75-.06,2.55-.17.15-.99.22-1.75.22-2.37v-.35c1.74.23,2.07.33,2.06.6,0,.07-.03.12-.09.25-.18.35-.19.39-.43,1.57.58-.1,1.33-.3,1.63-.4.06-.03.08-.03.12-.03.13,0,.17.06.29.58.06.3.12.72.12.84,0,.1-.04.17-.18.19q-.27.09-2.32.45c-.69,3.04-1.41,5.29-2.57,7.99-.08.19-.15.27-.24.27-.2,0-.72-.21-1.23-.5-.25-.13-.33-.21-.33-.29,0-.06.04-.16.12-.31,1.14-2.16,1.96-4.45,2.54-6.93-.66.09-1.12.14-2.04.21ZM319.48,25.14c.44.29,1.07.42,1.95.42.97,0,1.82-.09,2.29-.24.12-.03.15-.04.21-.04.13,0,.2.04.24.18.1.31.18.93.18,1.39,0,.2-.06.27-.25.31-.5.11-1.33.17-2.22.17-1.88,0-2.92-.3-3.62-1.02-.25-.27-.46-.62-.58-.99-.09-.21-.15-.46-.15-.55,0-.26.45-.53,1.23-.78.17.63.34.9.72,1.15ZM323.7,20.77c-.3-.04-.93-.07-1.46-.07-1.11,0-1.57.04-2.89.27-.03.01-.08.01-.1.01-.09,0-.14-.03-.17-.12-.04-.1-.11-.84-.11-1.16,0-.19.03-.28.15-.33.06-.03.15-.04.46-.1,1.02-.18,1.88-.25,2.92-.25.87,0,1.32.03,1.42.1.08.06.09.18.09.68,0,.43-.03.82-.06.91-.02.05-.08.08-.15.08-.03,0-.08,0-.12-.02Z"/>
        <path d="M96.04,44.04c0-.44-.02-1.02-.04-1.35.69.07,1.2.18,1.6.33.36.14.48.23.48.39q0,.09-.06.24c-.2.51-.25,1.08-.25,2.44,0,1.92.12,3.12.42,4.03.22.71.57,1.11.97,1.11.62,0,1.12-.72,1.68-2.38.28.77.39.99.81,1.53.08.1.12.21.12.31,0,.24-.22.75-.53,1.19-.58.85-1.33,1.32-2.13,1.32-1.15,0-2.02-.93-2.56-2.77-.34-1.2-.51-2.71-.51-4.81v-1.58ZM104.97,44.28c.09,0,.17.04.29.15.75.72,1.53,1.92,2.03,3.09.33.79.64,1.86.64,2.17,0,.15-.08.23-.39.39-.34.18-1.05.42-1.23.42-.13,0-.19-.08-.24-.34-.2-1.16-.46-2-.93-2.97-.42-.87-.45-.92-1.47-2.17.63-.46,1.12-.73,1.3-.73Z"/>
        <path d="M111.28,45.31c-.27.02-.43.03-.61.05-.14.01-.15.01-.17.01-.12,0-.18-.04-.23-.19-.08-.24-.18-1.04-.19-1.48.17.01.6.03,1.14.03.17,0,1.35-.07,1.88-.12.25-1.21.34-1.84.34-2.65,1.54.21,2.1.39,2.1.68,0,.1-.01.13-.24.48-.12.18-.17.34-.42,1.27.7-.12,1.12-.23,1.68-.41.1-.03.15-.04.22-.04.11,0,.13.08.23.51.07.37.12.69.12.85,0,.18-.04.21-.43.3-.51.12-1.38.27-2.31.39-.56,1.68-.93,2.58-1.62,3.99-.53,1.05-.83,1.6-1.23,2.23-.12.18-.19.24-.3.24-.15,0-.57-.22-1.09-.61-.24-.17-.3-.24-.3-.35s.06-.19.25-.46c.43-.54,1-1.47,1.5-2.46.42-.82.57-1.17,1-2.35-.58.05-.63.06-1.32.1ZM116.22,53.95c-1.64,0-2.75-.9-2.75-2.23s1.15-2.41,2.7-2.41c.36,0,.53.01,1.14.1-.06-.72-.06-1.01-.12-2.4,0-.29-.03-.68-.06-1.16.77.08,1.35.17,1.64.29.12.04.18.12.18.24,0,.08-.01.14-.03.24-.08.31-.09.54-.09.94,0,.56.04,1.5.09,2.23,1.07.48,1.5.72,2.25,1.31.33.25.45.39.45.51,0,.15-.08.29-.5.96-.18.3-.31.44-.42.44q-.09,0-.51-.39c-.33-.33-.71-.58-1.23-.9,0,1.4-1.02,2.23-2.74,2.23ZM116.19,50.74c-.72,0-1.21.34-1.21.87,0,.5.45.81,1.12.81.79,0,1.21-.4,1.21-1.2,0-.12,0-.24-.02-.24-.3-.15-.7-.24-1.11-.24ZM121.8,46.48c-.18.26-.27.33-.38.33-.08,0-.13-.03-.24-.13-.38-.36-.9-.75-1.46-1.1q-.36-.22-1.02-.52c-.21-.09-.29-.15-.29-.27,0-.1.08-.24.3-.58.36-.52.45-.61.58-.61.28,0,1.39.57,2.19,1.11.65.44.84.61.84.78,0,.12-.24.57-.54,1Z"/>
        <path d="M129.81,50.49c-.72,1.25-1.71,1.94-2.73,1.94-1.56,0-2.67-1.53-2.67-3.66,0-2.37,1.2-4.41,3.25-5.49,1-.54,2.08-.78,3.51-.78,3.14,0,5.46,2.22,5.46,5.19,0,2.62-1.29,4.51-3.78,5.58-.5.21-.89.33-1.08.33-.18,0-.25-.06-.45-.34-.25-.39-.54-.68-.95-.95,3.09-.79,4.49-2.25,4.49-4.68,0-1.25-.53-2.29-1.46-2.96-.53-.36-.95-.51-1.77-.64-.42,3.16-.92,4.89-1.83,6.46ZM127.65,45.18c-1,.88-1.58,2.15-1.58,3.55,0,1.16.38,1.83,1,1.83.75,0,1.52-1.04,2.08-2.82.36-1.12.54-1.98.77-3.65-1.07.23-1.59.48-2.28,1.08Z"/>
        <path d="M139.86,46.77c-.12.03-.18.06-.27.1-.08.04-.12.06-.18.06-.33,0-.57-.57-.75-1.68h.29c.63,0,2.24-.2,3.2-.39.31-1.31.48-2.31.48-3.02,0-.06,0-.15-.01-.25.64.06,1.26.19,1.68.38.24.09.36.21.36.36,0,.08-.02.14-.09.26q-.23.39-.69,2.04c.36-.04.76-.07,1.02-.07.62,0,1.1.12,1.44.36.6.44.9,1.32.9,2.69,0,2.23-.41,4.15-1.1,5.1-.48.66-1.11.98-2,.98-.54,0-1.05-.08-1.2-.17q-.12-.08-.17-.63c-.04-.41-.13-.77-.32-1.19.78.27.98.31,1.46.31.72,0,1.02-.35,1.35-1.56.23-.79.35-1.81.35-2.92,0-1.17-.29-1.59-1.08-1.59-.27,0-.71.04-1.05.09-.04.18-.06.2-.12.39-.42,1.54-1.19,3.55-1.95,5.17-.79,1.63-.99,1.96-1.18,1.96-.12,0-.53-.21-.96-.5-.35-.21-.44-.3-.44-.42q0-.07.62-1.05c.83-1.27,1.91-3.77,2.28-5.25-1.11.25-1.73.39-1.86.44ZM149.28,43.69c-.24.18-.41.25-.48.25-.04,0-.09-.03-.13-.1-.32-.51-.84-1.1-1.28-1.47-.03-.03-.04-.06-.04-.09,0-.06.11-.17.36-.36.25-.18.33-.23.43-.23.24,0,1.56,1.33,1.56,1.58,0,.09-.12.19-.42.42ZM147.69,45.28c0-.1.13-.24.57-.58.3-.23.45-.31.57-.31.2,0,.87.72,1.5,1.6.52.75,1.09,1.81,1.09,2.07,0,.15-.04.19-.52.58-.3.24-.65.44-.77.44-.1,0-.15-.04-.25-.3-.29-.72-.54-1.21-.95-1.86-.4-.65-.43-.67-1.15-1.45-.06-.08-.09-.12-.09-.18ZM149.65,40.68c.25,0,1.53,1.27,1.53,1.53,0,.07-.09.17-.39.38-.27.21-.41.28-.46.28q-.08,0-.38-.42c-.25-.34-.74-.85-1-1.08-.04-.04-.08-.07-.08-.12,0-.12.62-.57.78-.57Z"/>
        <path d="M158.58,42.36c0-.69-.03-1.05-.09-1.44h1.81c-.07.42-.09.76-.09,1.44v3.13h3.06v-2.34c0-.46-.02-.77-.06-1.12h1.74c-.06.42-.08.72-.08,1.25v2.85c0,.38.01.66.04.92-.3-.03-.66-.04-1.02-.04h-3.69v4.74h3.54v-2.37c0-.51-.03-.9-.08-1.24h1.75c-.06.36-.07.81-.07,1.38v3.09c0,.67.01,1.05.07,1.46h-1.68v-.75h-8.55v.75h-1.69c.06-.44.09-.85.09-1.46v-3.03c0-.58-.03-.98-.08-1.38h1.74c-.04.36-.06.65-.06,1.23v2.32h3.38v-4.74h-3.45c-.39,0-.72.02-1.03.04.03-.38.04-.58.04-.92v-2.83c0-.52-.03-.9-.08-1.26h1.74c-.04.33-.06.66-.06,1.14v2.32h2.83v-3.13Z"/>
        <path d="M169.98,44.98c-.39.09-.53.13-1.07.33-.19.08-.3.1-.39.1-.33,0-.63-.61-.9-1.9.96-.04,1.31-.09,2.97-.34,1.8-.27,4.08-.62,5.28-.77,1.35-.18,2.43-.36,3-.48.1-.03.15-.03.22-.03.2,0,.27.09.41.47.12.31.21.76.21.98,0,.18-.06.24-.27.24-.32,0-.6.03-.89.08-2.53.42-4.56,2.64-4.56,4.98,0,1.75,1.38,2.91,3.72,3.12.21.01.29.09.29.27,0,.38-.15,1.09-.29,1.42-.08.17-.19.24-.39.24s-.65-.09-1.11-.22c-2.55-.75-3.88-2.37-3.88-4.67,0-1.25.41-2.4,1.19-3.39.42-.54.78-.84,1.63-1.43-1.96.33-4.04.72-5.17,1.01Z"/>
        <path d="M187.59,44.4c-1.29.22-2.62.37-3.43.37-.24,0-.34-.04-.38-.18-.06-.23-.12-.67-.15-1.23,1.22,0,2.15-.08,3.48-.29q-.08-.23-.27-.78c-.13-.36-.25-.66-.42-.98.65-.13,1.23-.21,1.77-.21.13,0,.21.09.21.24v.21c0,.27.06.63.21,1.21,1.12-.25,2.08-.57,2.85-.9.12-.04.15-.06.2-.06.07,0,.12.07.25.39.13.34.27.73.27.81s-.03.1-.12.15c-.88.38-1.29.51-3.03.94.21.52.27.66.52,1.2.83-.22,1.23-.36,1.53-.51l1.41-.71s.04-.03.04-.03c.01,0,.04.01.06.01.06,0,.12.09.25.38.18.36.33.77.33.85q0,.1-.31.27c-.83.45-1.47.71-2.55,1,.6.89,1.46,1.85,1.96,2.21s.52.39.52.54c0,.13-.15.45-.43.94-.25.44-.38.56-.54.56-.09,0-.11,0-.33-.17-.76-.58-2.31-.99-3.79-.99-1.29,0-2.1.45-2.1,1.2,0,.46.36.84,1,1.08.58.21,1.88.34,3.27.34.33,0,.62-.01,1.2-.04-.27.39-.41.66-.58,1.29-.09.31-.2.38-.66.38-1.6,0-3.03-.18-3.99-.52-1.28-.45-1.95-1.29-1.95-2.42,0-1.6,1.32-2.58,3.51-2.58,1.35,0,2.21.15,3.15.57-.84-.79-1.29-1.33-1.72-2.04-.72.15-1.08.21-1.56.29-.86.12-2.42.24-3.04.24-.48,0-.5-.02-.63-1.42.33.02.58.02.73.02.96,0,2.79-.2,3.79-.41-.18-.38-.38-.81-.54-1.24Z"/>
        <path d="M197.4,45.69h-.09c-.08.02-.14.02-.17.02-.13,0-.21-.06-.25-.25-.09-.38-.15-.84-.18-1.41.21.02.38.02.48.02.81,0,1.75-.06,2.55-.17.15-.99.22-1.75.22-2.37v-.35c1.74.23,2.07.33,2.06.6,0,.07-.03.12-.09.25-.18.35-.19.39-.43,1.57.58-.1,1.33-.3,1.63-.4.06-.03.08-.03.12-.03.13,0,.17.06.29.58.06.3.12.72.12.84,0,.1-.04.17-.18.19q-.27.09-2.32.45c-.69,3.04-1.41,5.29-2.57,7.99-.08.19-.15.27-.24.27-.2,0-.72-.21-1.23-.5-.25-.13-.33-.21-.33-.29,0-.06.04-.16.12-.31,1.14-2.16,1.96-4.45,2.54-6.93-.66.09-1.12.14-2.04.21ZM203.8,51.39c.44.29,1.07.42,1.95.42.97,0,1.82-.09,2.29-.24.12-.03.15-.04.21-.04.13,0,.2.04.24.18.1.31.18.93.18,1.39,0,.2-.06.27-.25.31-.5.11-1.33.17-2.22.17-1.88,0-2.92-.3-3.62-1.02-.25-.27-.46-.62-.58-.99-.09-.21-.15-.46-.15-.55,0-.26.45-.53,1.23-.78.17.63.34.9.72,1.15ZM208.02,47.02c-.3-.04-.93-.07-1.46-.07-1.11,0-1.57.04-2.89.27-.03.01-.08.01-.1.01-.09,0-.14-.03-.17-.12-.04-.1-.11-.84-.11-1.16,0-.19.03-.28.15-.33.06-.03.15-.04.46-.1,1.02-.18,1.88-.25,2.92-.25.87,0,1.32.03,1.42.1.08.06.09.18.09.68,0,.43-.03.82-.06.91-.02.05-.08.08-.15.08-.03,0-.08,0-.12-.02Z"/>
        <path d="M217.8,41.85c.18.12.25.21.25.31s-.01.12-.24.38c-.08.09-.3.42-.54.83q-.75,1.25-1.16,1.96c-.42.71-.69,1.19-.84,1.41q-.04.07-.25.45c-.2.35-.32.52-.53.81.97-.85,1.5-1.08,2.49-1.08.66,0,1.25.29,1.62.78.31.42.4.81.54,2.28.07.88.15,1.27.25,1.5.1.21.31.33.58.33,1.03,0,2.26-1.25,2.86-2.88.15.63.27.93.58,1.48.11.18.14.3.14.45,0,.17-.08.38-.26.66-.78,1.26-2.05,2.01-3.42,2.01-.85,0-1.57-.3-1.95-.79-.3-.42-.44-.98-.56-2.44-.07-.96-.15-1.29-.36-1.53-.17-.18-.41-.27-.74-.27-.99,0-2.29,1.33-3.06,3.1-.22.51-.38.97-.54,1.54-.06.22-.13.31-.24.31-.31,0-1.04-.3-1.42-.58-.1-.09-.15-.15-.15-.24,0-.07.03-.15.22-.57.12-.27.17-.35.27-.62q1.11-2.59,4.19-8.82c.34-.69.51-1.12.61-1.58.78.29,1.14.47,1.62.79Z"/>
        <path d="M226.21,45.87h-.09c-.08.02-.13.02-.17.02-.13,0-.21-.06-.25-.26-.09-.37-.15-.82-.18-1.41.21.02.38.02.48.02.81,0,1.75-.06,2.55-.17.15-.99.23-1.74.23-2.37v-.34c1.74.24,2.07.33,2.05.6,0,.08-.03.12-.09.26-.18.34-.2.39-.44,1.57.58-.1,1.33-.3,1.64-.4.06-.03.07-.03.12-.03.13,0,.16.06.28.58.06.3.12.72.12.84,0,.11-.04.17-.18.2q-.27.09-2.33.45c-.69,3.06-1.41,5.29-2.56,7.99-.08.2-.15.27-.24.27-.2,0-.72-.21-1.23-.49-.26-.14-.33-.2-.33-.29,0-.06.04-.17.12-.31,1.14-2.16,1.97-4.45,2.54-6.91-.66.07-1.12.12-2.04.19ZM232.62,51.57c.43.29,1.06.42,1.95.42.97,0,1.81-.09,2.29-.24.12-.03.15-.04.21-.04.13,0,.19.04.24.18.11.31.18.93.18,1.4,0,.19-.06.27-.26.31-.49.1-1.33.17-2.22.17-1.88,0-2.92-.3-3.61-1.02-.25-.27-.46-.6-.58-.98-.09-.22-.15-.48-.15-.57,0-.25.45-.52,1.23-.78.17.63.34.92.72,1.15ZM236.83,47.2c-.3-.04-.93-.08-1.46-.08-1.11,0-1.58.05-2.89.27-.03.02-.08.02-.11.02-.09,0-.13-.03-.17-.12-.04-.1-.1-.84-.1-1.15,0-.19.03-.29.15-.33.06-.03.15-.04.46-.1,1.02-.18,1.88-.25,2.92-.25.87,0,1.32.03,1.43.1.07.06.09.18.09.67,0,.44-.03.83-.06.92-.01.04-.08.08-.15.08-.03,0-.08,0-.12-.02ZM235.18,41.92c.2,0,1.47,1.42,1.47,1.65,0,.06-.1.19-.22.29-.06.04-.15.12-.25.21-.13.12-.18.15-.33.21t-.08.03c-.06,0-.06-.01-.34-.45-.25-.39-.74-.99-.99-1.22-.03-.03-.07-.09-.07-.1.03-.06.04-.09.04-.09.07-.09.33-.3.39-.34.15-.08.24-.14.25-.15.01-.03.03-.03.04-.03h.09ZM237.72,42.97c-.21.15-.36.24-.43.24-.06,0-.09-.03-.17-.15-.33-.54-.65-.93-1.14-1.43-.04-.04-.06-.07-.06-.12,0-.14.57-.56.76-.56.11,0,.29.15.62.5.48.49.83.94.83,1.09,0,.09-.11.19-.41.42Z"/>
        <path d="M241.56,41.82v-.21c.94.17,1.42.3,1.81.5.11.04.13.1.13.21,0,.06-.03.13-.09.24-.13.24-.18.42-.41,1.41-.28,1.29-.43,2.73-.43,4.3,0,.84.03,1.3.12,2.1l.79-1.6c.09.31.21.57.39.78.12.15.14.19.14.31s0,.12-.29.75c-.32.67-.5,1.26-.66,2.02-.04.24-.09.31-.17.35-.12.06-.63.13-.93.13-.21,0-.29-.04-.33-.18-.36-1.02-.66-3.12-.66-4.62,0-1.29.17-3.07.43-4.95.09-.62.14-1.06.14-1.38v-.17ZM246.67,46.06c-.84,0-1.08-.03-1.16-.13-.1-.14-.19-.75-.19-1.31v-.22c.6.06,1.08.09,1.84.09.58,0,.92-.02,1.51-.06-.04-1.56-.13-2.49-.31-2.97h.4c.53,0,1.17.04,1.5.12.15.03.23.12.23.24,0,.06-.02.12-.04.23-.08.21-.12.54-.12.93,0,.23.01.93.01,1.11v.15c.75-.12,1.11-.2,1.74-.41.06-.02.12-.03.18-.03.09,0,.13.04.17.13.06.17.12.75.12,1.08,0,.24-.04.35-.17.39-.2.07-1.11.25-2,.38.02.42.02.65.02.88,0,2.21-.27,3.78-.87,4.96-.54,1.06-1.71,2.31-2.19,2.31-.13,0-.19-.03-.36-.18-.5-.44-.58-.51-1.17-.78,1.05-.58,1.72-1.22,2.19-2.07.5-.91.76-2.17.76-3.55,0-.1,0-.36-.01-.72-.01-.15-.01-.38-.03-.68-.54.04-1.75.1-2.05.1Z"/>
        <path d="M258.64,45.88c-.19-.66-.25-1.06-.43-2.91-.06-.72-.12-1.08-.27-1.59.91.02,1.5.06,1.9.17.23.06.33.17.33.33,0,.06-.01.13-.04.25-.1.36-.15.63-.15,1.02,0,.73.15,1.94.32,2.46.09.28.18.39.34.39.36,0,1.68-.69,2.4-1.24.19-.15.22-.17.3-.17.13,0,.27.1.5.39.38.51.67,1.06.67,1.27,0,.17-.11.27-.36.34-.93.25-2.46.85-3.49,1.35-1.83.9-2.66,1.73-2.66,2.65s.76,1.29,2.7,1.29c1.12,0,2.14-.1,3.52-.33.06-.02.17-.03.2-.03.12,0,.19.06.25.18.04.15.15,1.06.15,1.43,0,.21-.06.28-.26.34-.33.08-2.14.18-3.28.18-1.92,0-3.2-.26-3.99-.79-.67-.47-1.04-1.2-1.04-2.1,0-.69.2-1.31.6-1.9.52-.78,1.09-1.27,2.35-2.02-.31-.29-.43-.5-.57-.96ZM264.09,42.52c.12-.09.2-.12.29-.12.21,0,1.51,1.38,1.51,1.6,0,.09-.12.23-.41.46-.3.25-.33.27-.4.27-.09,0-.11,0-.39-.42-.3-.42-.72-.9-1.04-1.17-.04-.04-.07-.09-.07-.14,0-.07.13-.21.51-.49ZM267.34,42.93c0,.09-.04.15-.22.3-.21.18-.5.38-.56.38-.09,0-.12-.04-.3-.28-.34-.5-.55-.73-1.09-1.23-.06-.06-.08-.09-.08-.14,0-.13.57-.57.75-.57.25,0,1.5,1.27,1.5,1.54Z"/>
        <path d="M268.95,50.31c.27-.24.34-.3.45-.3.19,0,1.09.66,1.75,1.29.75.69,1.59,1.69,1.59,1.9,0,.14-.03.17-.46.56-.57.52-.69.61-.79.61-.09,0-.18-.06-.25-.21-.53-.93-1.73-2.16-2.79-2.85-.12-.09-.18-.15-.18-.24,0-.1.03-.15.69-.76Z"/>
        <path d="M287.25,44.53c-.69.04-1.33.06-1.91.06-.63,0-.67,0-.71-.09-.04-.09-.09-.72-.09-1.16v-.28c.71.03,1,.04,1.38.04s.95-.02,1.4-.03c.08-.87.09-1.17.09-1.47,0-.14,0-.23-.01-.44.72.02,1.27.06,1.71.17.12.03.18.09.18.19,0,.08-.02.14-.09.31-.12.29-.21.68-.27,1.14.96-.08,2.12-.23,2.58-.33.45-.1.76-.17.84-.17.32-.03.54-.09.63-.17.02-.01.03-.01.03-.01.03,0,.04.01.08.01.06,0,.1.06.13.17.03.23.08.75.08,1.08,0,.23-.04.29-.2.31-.88.18-2.71.41-4.29.54-.01.06-.01.09-.01.24-.03.29-.03.32-.04,1.06.66-.15,1.25-.22,1.98-.22.11-.48.12-.6.15-.95,1.16.24,1.72.45,1.72.63,0,.06-.01.1-.13.3-.04.06-.08.1-.11.21,1.94.45,3.17,1.88,3.17,3.72,0,1.64-.88,2.94-2.58,3.84-.63.33-1.51.63-1.84.63-.17,0-.29-.06-.38-.18-.31-.45-.51-.66-.99-1.06,1.56-.29,2.32-.6,3.07-1.21.69-.58,1.02-1.26,1.02-2.1,0-1.2-.71-2.1-1.91-2.44-.9,2.07-1.5,3.04-2.58,4.15.08.25.13.4.27.72.06.12.07.17.07.21,0,.15-.06.19-.4.37-.38.2-.81.35-.96.35-.13,0-.17-.04-.33-.51-.87.61-1.8.94-2.71.94-1.02,0-1.71-.83-1.71-2.02,0-1.88,1.37-3.71,3.63-4.83.01-.78.03-1.44.04-1.74ZM285.13,50.83c0,.38.23.6.6.6.51,0,1.18-.29,1.86-.78-.21-1.02-.3-1.71-.38-2.83-1.32.98-2.08,2.1-2.08,3.02ZM290.38,46.69c-.67.06-1.04.12-1.65.33.03,1.06.06,1.52.18,2.28.63-.8,1.05-1.54,1.47-2.61Z"/>
        <path d="M300.43,45.4c-.67.13-1.32.3-1.74.45-.11.04-.2.06-.27.06-.13,0-.21-.07-.3-.33-.11-.33-.21-.85-.27-1.38.22.02.33.03.46.03.57,0,1.18-.08,2.13-.26l.03-.9c.02-.21.02-.36.02-.4,0-.65-.02-1.04-.08-1.44.79.03,1.29.09,1.77.21.2.04.29.13.29.27,0,.06-.01.1-.09.27-.13.28-.15.46-.25,1.71.33.23.62.54.62.69,0,.09-.04.17-.18.33-.22.24-.3.34-.58.76q-.03.39-.03.5c.5-.44.82-.72,1.33-1.09.57-.44,1.2-.84,1.65-1.07.58-.31.99-.42,1.53-.42.79,0,1.37.3,1.68.87.18.36.25.71.25,1.29,0,.51-.03.99-.12,2.08-.12,1.29-.18,2.25-.18,2.83s.13.76.55.76c.6,0,1.33-.44,1.98-1.17.01.58.06.77.25,1.37.04.12.06.19.06.25,0,.17-.08.3-.33.5-.61.49-1.5.81-2.29.81-1.32,0-1.92-.69-1.92-2.2,0-.69.04-1.58.2-3.67.04-.5.06-.92.06-1.12,0-.62-.21-.9-.66-.9s-1.33.48-2.52,1.39c-.6.45-.94.77-1.57,1.41v.69c0,1.12.07,3.72.13,4.63v.18c0,.12-.02.17-.04.21-.08.09-.51.15-1.2.15-.43,0-.53-.06-.53-.31,0-.09,0-.24.02-.4v-.35q.01-.52.08-3.38-.86,1.11-1.37,1.94c-.13.21-.23.29-.34.29s-.39-.24-.86-.75c-.29-.33-.39-.47-.39-.56,0-.07.03-.13.13-.24.95-.98,1.74-1.91,2.87-3.31l.03-1.27Z"/>
        <path d="M315.57,46.41c1.89-.52,3.25-.77,4.27-.77,2.12,0,3.42,1.16,3.42,3.03,0,1.12-.46,2.12-1.35,2.87-.58.49-1.46.91-2.61,1.26-.64.18-1.33.31-1.63.31-.18,0-.27-.04-.33-.19-.21-.52-.45-.9-.76-1.21,3.3-.35,4.98-1.4,4.98-3.1,0-.87-.72-1.54-1.65-1.54-1.62,0-3.39.54-5.25,1.57-.15.08-.24.12-.3.12-.25,0-.67-.75-1.02-1.83.74-.1.99-.17,2.24-.51Z"/>
        <path d="M97.68,71.23c-.39.09-.53.13-1.07.33-.19.08-.3.1-.39.1-.33,0-.63-.61-.9-1.9.96-.04,1.31-.09,2.97-.34,1.8-.27,4.08-.62,5.28-.77,1.35-.18,2.43-.36,3-.48.1-.03.15-.03.22-.03.2,0,.27.09.41.47.12.31.21.76.21.98,0,.18-.06.24-.27.24-.32,0-.6.03-.89.08-2.53.42-4.56,2.64-4.56,4.98,0,1.75,1.38,2.91,3.72,3.12.21.01.29.09.29.27,0,.38-.15,1.09-.29,1.42-.08.17-.19.24-.39.24s-.65-.09-1.11-.22c-2.55-.75-3.88-2.37-3.88-4.67,0-1.25.41-2.4,1.19-3.39.42-.54.78-.84,1.63-1.43-1.96.33-4.04.72-5.17,1.01Z"/>
        <path d="M111.28,71.56c-.27.02-.43.03-.61.05-.14.01-.15.01-.17.01-.12,0-.18-.04-.23-.19-.08-.24-.18-1.04-.19-1.48.17.01.6.03,1.14.03.17,0,1.35-.07,1.88-.12.25-1.21.34-1.84.34-2.65,1.54.21,2.1.39,2.1.68,0,.1-.01.13-.24.48-.12.18-.17.34-.42,1.27.7-.12,1.12-.23,1.68-.41.1-.03.15-.04.22-.04.11,0,.13.08.23.51.07.37.12.69.12.85,0,.18-.04.21-.43.3-.51.12-1.38.27-2.31.39-.56,1.68-.93,2.58-1.62,3.99-.53,1.05-.83,1.6-1.23,2.23-.12.18-.19.24-.3.24-.15,0-.57-.22-1.09-.61-.24-.17-.3-.24-.3-.35s.06-.19.25-.46c.43-.54,1-1.47,1.5-2.46.42-.82.57-1.17,1-2.35-.58.05-.63.06-1.32.1ZM116.22,80.2c-1.64,0-2.75-.9-2.75-2.23s1.15-2.41,2.7-2.41c.36,0,.53.01,1.14.1-.06-.72-.06-1.01-.12-2.4,0-.29-.03-.68-.06-1.16.77.08,1.35.17,1.64.29.12.04.18.12.18.24,0,.08-.01.14-.03.24-.08.31-.09.54-.09.94,0,.56.04,1.5.09,2.23,1.07.48,1.5.72,2.25,1.31.33.25.45.39.45.51,0,.15-.08.29-.5.96-.18.3-.31.44-.42.44q-.09,0-.51-.39c-.33-.33-.71-.58-1.23-.9,0,1.4-1.02,2.23-2.74,2.23ZM116.19,76.99c-.72,0-1.21.34-1.21.87,0,.5.45.81,1.12.81.79,0,1.21-.4,1.21-1.2,0-.12,0-.24-.02-.24-.3-.15-.7-.24-1.11-.24ZM121.8,72.73c-.18.26-.27.33-.38.33-.08,0-.13-.03-.24-.13-.38-.36-.9-.75-1.46-1.1q-.36-.22-1.02-.52c-.21-.09-.29-.15-.29-.27,0-.1.08-.24.3-.58.36-.52.45-.61.58-.61.28,0,1.39.57,2.19,1.11.65.44.84.61.84.78,0,.12-.24.57-.54,1Z"/>
        <path d="M128.08,76.02c.04.07.06.13.06.21,0,.1-.02.12-.15.45-.3.69-.66,1.77-.84,2.58-.04.17-.09.25-.15.29-.08.03-.58.1-.75.1h-.06c-.08,0-.18-.02-.3-.02-.2,0-.24-.04-.3-.23-.29-.97-.51-2.98-.51-4.5,0-1.65.1-2.67.52-4.92.15-.81.22-1.26.29-1.75.63.12,1.17.27,1.62.48.25.1.33.18.33.33,0,.1-.02.15-.18.39-.5.79-1.05,3.98-1.05,6.12,0,.34.02.81.06,1.56.42-.94.57-1.23.92-1.96.13.31.22.46.49.87ZM131.34,77.08c.48.25,1.05.34,2.06.34s1.53-.07,2.46-.34c.09-.03.17-.04.21-.04.1,0,.18.06.19.21.08.51.13,1.11.13,1.41,0,.15-.04.2-.25.26-.81.21-1.63.31-2.64.31-1.38,0-2.23-.17-2.94-.58-.66-.41-1.35-1.23-1.35-1.64,0-.21.32-.49,1.12-.99.27.54.53.81,1,1.06ZM130.29,69.43c.33.08,1.29.14,2.03.14.99,0,1.98-.08,2.91-.24q.08-.01.14-.01c.1,0,.15.04.18.16.03.15.08.81.08,1.22,0,.22-.04.3-.21.33-.62.12-1.63.2-2.71.2-1.29,0-2.45-.08-2.59-.17-.08-.04-.11-.15-.11-.42,0-.41.04-1,.08-1.12.01-.06.06-.09.15-.09.02,0,.05,0,.08.01Z"/>
        <path d="M141.19,70.11c.34-.9.67-1.38,1.25-1.86.69-.57,1.51-.84,2.56-.84,2.25,0,3.69,1.23,3.69,3.15,0,.65-.18,1.26-.53,1.75-.27.39-.39.51-1.23,1.27-1.17,1.05-1.42,1.46-1.42,2.25v.79h-1.53v-.84c0-.67.13-1.27.41-1.75.21-.38.43-.63,1.03-1.23.63-.61.83-.84.99-1.11.21-.3.33-.72.33-1.12,0-1-.67-1.63-1.74-1.63s-1.69.55-2.14,1.86l-1.67-.69ZM145.98,78.85c0,.66-.53,1.18-1.19,1.18s-1.18-.52-1.18-1.18.52-1.19,1.18-1.19,1.19.52,1.19,1.19Z"/>
      </g>
      <circle class="cls-11" cx="31.42" cy="80.73" r="30"/>
      <g>
        <path class="cls-8" d="M9.89,127.81h239.38c4.68,0,8.47,3.79,8.47,8.47v70.05s9.69,9.69,9.69,9.69h-9.69s0,.5,0,.5c0,4.68-3.79,8.47-8.47,8.47H9.89c-4.68,0-8.47-3.79-8.47-8.47v-80.24c0-4.68,3.79-8.47,8.47-8.47Z"/>
        <g>
          <path d="M25.9,151.39c-.69,0-1.79.22-2.54.51-1.59.61-2.64,1.74-2.64,2.83,0,.69.45,1.15,1.35,1.38.41.1,1.11.18,1.6.17h.15c.25,0,.34.09.34.28,0,.5-.09,1.19-.17,1.38-.06.12-.13.17-.29.17-.91,0-2.07-.24-2.85-.6-1.15-.51-1.79-1.39-1.79-2.5,0-.71.27-1.42.78-2.07.29-.35.51-.56,1.05-.93-2.73.83-4.09,1.35-5.01,1.95-.12.08-.19.1-.27.1-.17,0-.3-.13-.51-.51-.21-.34-.36-.76-.36-.99,0-.14.06-.18.42-.29.34-.11.58-.25,1.16-.66.69-.51,1.77-1.44,2.7-2.33.77-.73,1.2-1.18,2.1-2.23-.87.1-3.23.51-3.57.6-.21.06-.22.06-.27.06-.14,0-.2-.06-.25-.21-.12-.33-.23-.88-.3-1.51.21.01.32.01.45.01.67,0,2.13-.12,3.93-.34.67-.08,1.07-.17,1.33-.3.18-.09.21-.1.32-.1.18,0,.42.19.84.7.3.35.39.51.39.68s-.06.24-.25.38q-.27.17-1.53,1.33c-1.04.96-2.27,2.01-3.65,3.1,2.12-.63,3.22-.93,5.52-1.44.51-.1,1.01-.24,1.58-.42.08-.03.13-.04.18-.04.12,0,.18.06.25.2.17.34.36,1.08.36,1.35,0,.21-.06.3-.22.3h-.34Z"/>
          <path d="M31.59,149.62c-.67.13-1.32.3-1.74.45-.11.04-.2.06-.27.06-.13,0-.21-.07-.3-.33-.1-.33-.21-.85-.27-1.38.22.02.33.03.46.03.57,0,1.18-.08,2.13-.25l.03-.9c.02-.21.02-.36.02-.4,0-.65-.02-1.04-.08-1.44.79.03,1.29.09,1.77.21.2.04.29.13.29.27,0,.06-.01.1-.09.27-.13.29-.15.46-.25,1.71.33.23.62.54.62.69,0,.09-.04.17-.18.33-.22.24-.3.34-.58.76q-.03.39-.03.5c.5-.44.82-.72,1.33-1.09.57-.44,1.2-.84,1.65-1.07.58-.32.99-.42,1.53-.42.79,0,1.37.3,1.68.87.18.36.25.71.25,1.29,0,.51-.03.99-.12,2.08-.12,1.29-.18,2.25-.18,2.83s.13.76.55.76c.6,0,1.33-.44,1.98-1.17.01.58.06.76.25,1.37.04.12.06.19.06.25,0,.17-.08.3-.33.5-.61.49-1.5.81-2.29.81-1.32,0-1.92-.69-1.92-2.21,0-.69.04-1.58.2-3.67.04-.5.06-.92.06-1.12,0-.62-.21-.9-.66-.9s-1.33.48-2.52,1.39c-.6.45-.94.76-1.57,1.41v.69c0,1.12.07,3.72.13,4.63v.18c0,.12-.02.17-.04.21-.08.09-.51.15-1.2.15-.43,0-.53-.06-.53-.31,0-.09,0-.24.02-.41v-.34q.01-.53.08-3.38-.86,1.11-1.37,1.93c-.13.21-.23.29-.34.29s-.39-.24-.86-.75c-.29-.33-.39-.46-.39-.55,0-.08.03-.13.13-.24.95-.97,1.74-1.91,2.87-3.31l.03-1.28Z"/>
          <path d="M47.13,154.27c.04.06.06.1.06.16q0,.09-.25.78c-.32.92-.51,1.67-.57,2.25-.01.2-.08.27-.27.32-.21.06-.61.09-1,.09-.15,0-.22-.03-.27-.12-.13-.29-.38-1.32-.5-2.16-.1-.71-.15-1.44-.15-2.21,0-1.72.2-3.36.74-6.3.09-.48.12-.71.17-1.17.69.09,1.17.23,1.6.44.23.12.32.22.32.36,0,.09-.03.17-.11.29-.61,1.05-1.18,4.29-1.18,6.69,0,.36.01.93.06,1.65.36-.93.52-1.35.85-2.07.11.41.21.6.51,1.01ZM49.65,150.32c-.72,0-.87-.03-.92-.2-.04-.13-.09-.61-.09-.96,0-.12,0-.24.01-.51.41.03.64.04,1.14.04.81,0,1.32-.01,2.1-.08-.02-1.9-.03-2.14-.18-2.85.74.01,1.29.07,1.77.19.22.06.31.13.31.29,0,.06-.01.1-.06.22-.15.34-.23.93-.25,1.98.55-.07,1.03-.18,1.93-.39.08-.03.1-.03.15-.03.09,0,.13.04.17.15.03.13.07.71.07,1.02,0,.38-.01.44-.17.5-.24.12-.9.23-2.17.39,0,1.03.09,2.74.2,3.72.95.4,1.59.75,2.25,1.21.42.3.51.41.51.51,0,.17-.27.67-.58,1.11-.18.25-.27.33-.38.33s-.1,0-.45-.33c-.33-.33-.67-.58-1.33-1.02v.12c0,1.32-1.09,2.19-2.76,2.19s-2.8-.9-2.8-2.25,1.14-2.36,2.66-2.36c.55,0,.84.02,1.24.08q-.06-1.17-.1-3.18c-.65.04-1.67.09-2.26.09ZM50.88,154.73c-.75,0-1.25.34-1.25.87,0,.48.46.78,1.19.78.79,0,1.21-.36,1.21-1.05,0-.21-.02-.38-.02-.38-.39-.15-.73-.22-1.14-.22Z"/>
          <path d="M67.02,150.65h2.13c.68,0,1.1-.03,1.54-.09v1.63c-.48-.04-.93-.08-1.56-.08h-1.62c.86,1.5,2.1,2.75,3.58,3.58-.48.48-.69.78-.99,1.5-.61-.43-1.05-.86-1.62-1.5-.74-.85-1.05-1.32-1.53-2.22.03.54.04,1,.04,1.44v1.82c0,.67.03,1.2.09,1.67h-1.67c.06-.46.09-1,.09-1.68v-1.71c0-.4.02-.88.04-1.48-.91,1.65-1.93,2.76-3.39,3.73-.38-.71-.58-1-.9-1.36,1.54-.89,2.8-2.17,3.67-3.78h-.95c-.64,0-1.11.03-1.58.09v-.6c-.25.36-.43.69-.61,1.21-.38-.58-.6-1.05-.89-1.8.03.46.06,1.27.06,1.91v3.69c0,.76.03,1.32.09,1.77h-1.67c.06-.46.09-1.02.09-1.77v-3.1c0-.57.02-.93.11-1.86-.44,1.46-.87,2.43-1.51,3.41-.18-.68-.38-1.11-.68-1.61.72-.92,1.47-2.61,1.92-4.35h-.57c-.44,0-.69.01-.96.06v-1.53c.24.04.51.06.96.06h.72v-1.16c0-.76-.01-1.14-.08-1.5h1.65c-.06.39-.08.8-.08,1.5v1.16h.43c.36,0,.54-.01.78-.06v1.42c.57-1.02,1.05-2.52,1.09-3.49l1.46.38c-.06.16-.1.34-.21.79-.08.27-.1.41-.18.69h1.15v-.99c0-.61-.03-.99-.09-1.36h1.68c-.06.36-.09.77-.09,1.36v.99h1.7c.72,0,1.14-.03,1.54-.09v1.58c-.42-.04-.9-.08-1.54-.08h-1.7v1.82ZM63.88,148.84c-.25.62-.39.9-.81,1.61q-.36-.38-1.17-.95c.12-.17.17-.24.24-.34-.2-.03-.44-.04-.71-.04h-.38c.34.79.71,1.39,1.36,2.28v-.83c.45.06.87.09,1.56.09h1.53v-1.82h-1.63Z"/>
          <path d="M73.17,152.42c0-.57.02-.99.03-1.57-.25.51-.57.99-.95,1.48-.19-.71-.34-1.11-.63-1.72.92-1,1.59-2.16,2.16-3.74.32-.87.45-1.35.54-1.98l1.54.63c-.11.32-.15.44-.27.79q-.28.88-.93,2.37v8.04c0,.79.02,1.23.06,1.67h-1.65c.08-.57.09-.99.09-1.68v-4.29ZM83.61,149.23c.54,0,.98-.02,1.31-.06-.04.38-.06.77-.06,1.35v5.98c0,.72.03,1.21.09,1.8h-1.65v-.79h-6.1v.78h-1.59c.05-.48.08-1.05.08-1.58v-6.17c0-.51-.03-.99-.06-1.38.41.04.72.06,1.3.06h1.37v-1.94h-.72c-.69,0-1.23.03-1.7.08v-1.6c.42.06.92.09,1.7.09h6.03c.79,0,1.32-.03,1.75-.09v1.6c-.42-.04-1.02-.08-1.71-.08h-1.49v1.94h1.46ZM77.13,150.61v5.5h1.16v-5.5h-1.16ZM80.77,147.29h-1.11v1.94h1.11v-1.94ZM79.66,156.11h1.11v-5.5h-1.11v5.5ZM82.15,156.11h1.2v-5.5h-1.2v5.5Z"/>
          <path d="M92.53,150.62c.01-.34.01-.55.01-1.11,0-.14,0-.54-.01-1.23-1.08.23-2.96.51-3.32.51-.15,0-.25-.07-.33-.25-.09-.22-.31-.62-.46-.84,0-.01-.12-.15-.36-.43,1.99-.02,3.93-.32,5.81-.9.85-.27,1.36-.51,2.07-.93.66.58,1.2,1.27,1.2,1.53,0,.14-.09.2-.29.23-.29.03-.46.08-.84.2-.78.25-.92.3-1.68.49.01.58.01.68.01,1.47v1.26c2.24-.03,3.88-.08,4.37-.12.06-.01.1-.01.15-.01.2,0,.24.15.24.79,0,.96-.01.99-.24.99-.03,0-.51-.03-.67-.04-.63-.04-1.51-.06-3.94-.06-.18,1.5-.62,2.76-1.31,3.81-.43.66-1.17,1.47-1.74,1.92-.09.06-.15.09-.23.09q-.13,0-.63-.3c-.3-.2-.67-.34-1.23-.54,1.09-.64,1.81-1.33,2.4-2.33.44-.75.78-1.72.9-2.62-2.79.03-3.93.07-4.64.19-.17.02-.23.03-.27.03-.13,0-.19-.04-.22-.15-.11-.34-.18-1-.21-1.72.64.08,1.6.11,3.54.11h.42l1.5-.02Z"/>
          <path d="M110.52,149.66c.15-.09.21-.1.32-.1.36,0,1.33.99,1.33,1.35,0,.11-.04.17-.15.25-.21.18-.29.25-.48.58-.39.65-.95,1.37-1.53,1.98-.24.25-.38.34-.5.34-.09,0-.18-.04-.29-.12-.4-.32-.61-.42-1.26-.64.84-.56,1.41-1.1,2.07-2.01q-1.95.46-3.12.77c.63,2.49.85,3.3,1.41,5.16.03.14.04.2.04.25,0,.14-.15.23-.55.33-.26.08-.77.17-.9.17-.18,0-.21-.06-.29-.5-.13-.79-.67-2.97-1.23-5.02-1.11.32-1.29.36-1.86.63-.17.08-.25.11-.33.11-.29,0-.62-.68-.87-1.73.75-.03,1.11-.09,2.67-.43-.31-1.17-.46-1.59-.82-2.25.81-.13,1.41-.2,1.8-.2.25,0,.36.08.36.24,0,.04,0,.08-.01.17-.03.09-.03.15-.03.22,0,.3.06.6.27,1.49,2.88-.64,3.58-.83,3.94-1.04Z"/>
          <path d="M121.42,150.82c2.75,0,4.32-.03,5.83-.13h.2c.45,0,.45.01.45,1.21,0,.61-.04.72-.3.72h-.06c-.99-.04-1.54-.04-5.88-.04-1.59,0-2.38.01-3.76.06h-.44c-.48,0-.55.02-.84.06-.08,0-.13.01-.17.01-.17,0-.27-.08-.3-.21-.09-.38-.15-1.14-.15-1.83,1.21.12,2.28.15,5.42.15Z"/>
          <path d="M135.93,153.22c0,.92.04,3.36.08,4.07v.08c0,.13-.03.24-.11.28-.1.09-.7.17-1.26.17-.48,0-.57-.04-.57-.34v-.06c.03-.39.07-4.71.07-6.5,0-3.45-.03-4.42-.17-5.29,1.08.07,1.56.12,2,.21.15.04.23.12.23.24q0,.08-.06.33c-.06.18-.09.39-.1.63,0,.03-.03.93-.08,2.7q1.06.3,1.68.52c1.5.53,2.35.92,3.69,1.62.12.09.18.17.18.25,0,.15-.27.87-.51,1.32-.12.25-.2.33-.29.33-.06,0-.13-.03-.24-.11-1.47-.97-3.01-1.69-4.54-2.14v1.69Z"/>
          <path d="M152.1,156.82c0,.66-.53,1.18-1.18,1.18s-1.19-.53-1.19-1.18.53-1.19,1.19-1.19,1.18.53,1.18,1.19ZM151.57,154.6h-1.33l-.41-8.98h2.16l-.42,8.98Z"/>
          <path d="M168.24,150.65h2.13c.68,0,1.1-.03,1.54-.09v1.63c-.48-.04-.93-.08-1.56-.08h-1.62c.86,1.5,2.1,2.75,3.58,3.58-.48.48-.69.78-.99,1.5-.61-.43-1.05-.86-1.62-1.5-.74-.85-1.05-1.32-1.53-2.22.03.54.04,1,.04,1.44v1.82c0,.67.03,1.2.09,1.67h-1.67c.06-.46.09-1,.09-1.68v-1.71c0-.4.02-.88.04-1.48-.91,1.65-1.93,2.76-3.39,3.73-.38-.71-.58-1-.9-1.36,1.54-.89,2.8-2.17,3.67-3.78h-.95c-.64,0-1.11.03-1.58.09v-.6c-.25.36-.43.69-.61,1.21-.38-.58-.6-1.05-.89-1.8.03.46.06,1.27.06,1.91v3.69c0,.76.03,1.32.09,1.77h-1.67c.06-.46.09-1.02.09-1.77v-3.1c0-.57.02-.93.11-1.86-.44,1.46-.87,2.43-1.52,3.41-.18-.68-.37-1.11-.67-1.61.72-.92,1.47-2.61,1.92-4.35h-.57c-.44,0-.69.01-.96.06v-1.53c.24.04.51.06.96.06h.72v-1.16c0-.76-.01-1.14-.08-1.5h1.65c-.06.39-.08.8-.08,1.5v1.16h.43c.36,0,.54-.01.78-.06v1.42c.57-1.02,1.05-2.52,1.09-3.49l1.46.38c-.06.16-.1.34-.21.79-.08.27-.1.41-.18.69h1.15v-.99c0-.61-.03-.99-.09-1.36h1.68c-.06.36-.09.77-.09,1.36v.99h1.7c.72,0,1.14-.03,1.54-.09v1.58c-.42-.04-.9-.08-1.54-.08h-1.7v1.82ZM165.1,148.84c-.25.62-.39.9-.81,1.61q-.36-.38-1.17-.95c.12-.17.17-.24.24-.34-.2-.03-.44-.04-.71-.04h-.38c.34.79.71,1.39,1.36,2.28v-.83c.45.06.87.09,1.56.09h1.53v-1.82h-1.63Z"/>
          <path d="M179.08,154.7c-.72,1.25-1.71,1.93-2.73,1.93-1.56,0-2.67-1.53-2.67-3.66,0-2.37,1.2-4.41,3.25-5.49,1-.54,2.08-.78,3.51-.78,3.14,0,5.46,2.22,5.46,5.19,0,2.62-1.29,4.51-3.78,5.58-.5.21-.89.33-1.08.33-.18,0-.25-.06-.45-.34-.25-.39-.54-.67-.95-.95,3.09-.79,4.49-2.25,4.49-4.68,0-1.25-.53-2.29-1.46-2.96-.53-.36-.95-.51-1.77-.64-.42,3.17-.92,4.89-1.83,6.46ZM176.92,149.39c-1,.88-1.58,2.14-1.58,3.55,0,1.16.38,1.83,1,1.83.75,0,1.52-1.04,2.08-2.82.36-1.12.54-1.98.77-3.64-1.07.22-1.59.48-2.28,1.08Z"/>
          <path d="M188.97,152.41c0-.53,0-1.04.03-1.61-.42.74-.62,1.02-1,1.5-.15-.6-.36-1.17-.65-1.71.96-1.06,1.59-2.14,2.13-3.58.35-.9.45-1.33.56-2.06l1.63.39q-.71,2.13-1.21,3.24v8.08c0,.63.01,1.12.07,1.67h-1.65c.06-.58.09-.97.09-1.68v-4.25ZM191.43,158.36c.06-.51.08-.89.08-1.77v-6.34c0-.72-.03-1.2-.09-1.62h1.6c-.04.45-.06.89-.06,1.64v6.04h6.34c.72,0,1.15-.01,1.59-.07v1.54c-.5-.06-.96-.09-1.61-.09h-6.33v.68h-1.53ZM193.08,147.64c-.58,0-.93.01-1.35.06v-1.51c.38.06.77.08,1.52.08h2.56c.06-.51.08-.65.1-1.2l1.59.09q-.14.8-.2,1.11h2.19c.69,0,1.02-.02,1.5-.09v1.53c-.42-.04-.84-.06-1.32-.06h-2.62c-.06.3-.13.61-.21.94h2.07c.6,0,.95-.01,1.21-.03-.04.46-.04.7-.04,1.38v4.36c0,.6,0,.83.04,1.28-.45-.02-.82-.03-1.23-.03h-3.71c-.42,0-.76.01-1.21.03.03-.32.04-.69.04-1.14v-4.71c0-.54-.01-.93-.04-1.17.36.03.57.03,1.16.03h.21c.1-.34.15-.58.22-.94h-2.49ZM195.48,150.55h3.15v-.75h-3.15v.75ZM195.48,152.39h3.15v-.77h-3.15v.77ZM195.48,154.31h3.15v-.84h-3.15v.84Z"/>
          <path d="M210.48,146.98c-.03.97-.12,1.46-.36,2.05-.28.72-.61,1.17-1.41,1.88-.41-.51-.57-.67-1.02-1-.54-.04-.62-.04-1.21-.04h-2.05v1.39h2.02c.72,0,.93-.01,1.35-.06v1.46c-.39-.03-.72-.04-1.33-.04h-2.04v1.72c1.58-.2,1.83-.24,3.52-.58l.03,1.39c-1.51.35-2.29.5-3.55.69v.95c0,.57.03,1,.09,1.53h-1.7c.06-.57.09-.97.09-1.51v-.75c-.24.04-.39.08-.48.09-.13.01-.15.01-.22.04l-.18-1.67c.17.02.21.02.25.02.15,0,.41-.02.63-.03v-6.99c0-.61-.02-.88-.08-1.32,1.41-.12,2.96-.45,3.87-.82.36-.14.38-.15.74-.38l.87,1.47q-.25.06-.88.27c-1.32.42-1.63.5-3,.75v1.04h2.04c.72,0,.93-.02,1.35-.06v1.12c.95-.75,1.25-1.54,1.25-3.29,0-.33-.01-.58-.04-.82.3.03.58.04,1.05.04h2.17c.55,0,.79-.02,1.14-.04-.03.38-.04.67-.04,1.2v2.08c0,.2.09.24.46.24.3,0,.39-.08.45-.36.06-.33.09-.66.11-1.35.43.27.75.41,1.25.57-.09,1.18-.2,1.69-.42,2.05-.23.34-.57.45-1.53.45-.66,0-1.17-.06-1.38-.18-.25-.13-.33-.33-.33-.82v-2.37h-1.46ZM214.89,151.84c-.15.23-.27.42-.39.65-.67,1.25-1.26,2.1-1.99,2.91.94.65,1.9,1.07,3.27,1.38-.36.52-.48.75-.76,1.5-1.59-.54-2.6-1.06-3.62-1.86-1.07.83-2.33,1.44-4.04,1.95-.21-.58-.42-.98-.79-1.47,1.63-.38,2.67-.79,3.76-1.54-.7-.88-1.06-1.53-1.51-2.8-.25.02-.39.03-.66.06v-1.59c.27.04.48.06.93.06h3.97c.54,0,.73-.01,1.02-.06l.81.82ZM210.26,152.54c.34.86.6,1.28,1.15,1.88.71-.72.92-.99,1.4-1.88h-2.55Z"/>
          <path d="M218.06,150.98c-.12.03-.18.06-.27.1-.08.04-.12.06-.18.06-.33,0-.57-.57-.75-1.68h.29c.63,0,2.24-.2,3.2-.39.31-1.3.48-2.31.48-3.01,0-.06,0-.15-.01-.25.64.06,1.26.19,1.68.38.24.09.36.21.36.36,0,.08-.02.14-.09.26q-.23.39-.69,2.04c.36-.04.76-.07,1.02-.07.62,0,1.1.12,1.44.36.6.44.9,1.32.9,2.69,0,2.23-.41,4.15-1.1,5.1-.48.66-1.11.97-2,.97-.54,0-1.05-.08-1.2-.17q-.12-.08-.17-.63c-.04-.41-.13-.76-.32-1.18.78.27.98.31,1.46.31.72,0,1.02-.34,1.35-1.56.23-.79.35-1.82.35-2.92,0-1.17-.29-1.59-1.08-1.59-.27,0-.71.04-1.05.09-.04.18-.06.2-.12.39-.42,1.54-1.19,3.55-1.95,5.17-.79,1.63-.99,1.96-1.18,1.96-.12,0-.53-.21-.96-.5-.35-.21-.44-.3-.44-.42q0-.07.62-1.05c.83-1.27,1.91-3.76,2.28-5.25-1.11.25-1.73.39-1.86.44ZM227.47,147.91c-.24.18-.41.25-.48.25-.04,0-.09-.03-.13-.1-.32-.51-.84-1.1-1.28-1.47-.03-.03-.04-.06-.04-.09,0-.06.11-.17.36-.36.25-.18.33-.23.43-.23.24,0,1.56,1.33,1.56,1.57,0,.09-.12.2-.42.42ZM225.89,149.5c0-.1.13-.24.57-.58.3-.22.45-.31.57-.31.2,0,.87.72,1.5,1.6.52.75,1.09,1.82,1.09,2.07,0,.15-.04.19-.52.58-.3.24-.65.43-.77.43-.1,0-.15-.04-.25-.3-.29-.72-.54-1.21-.95-1.86-.4-.64-.43-.67-1.15-1.45-.06-.08-.09-.12-.09-.18ZM227.85,144.89c.25,0,1.53,1.27,1.53,1.53,0,.07-.09.17-.39.38-.27.21-.41.28-.46.28q-.08,0-.38-.42c-.25-.34-.74-.85-1-1.08-.04-.04-.08-.07-.08-.12,0-.12.62-.57.78-.57Z"/>
          <path d="M232.08,148.25c0-.43-.02-1.02-.04-1.35.69.08,1.2.18,1.6.33.36.13.48.22.48.39q0,.09-.06.24c-.2.51-.25,1.08-.25,2.45,0,1.92.12,3.12.42,4.03.22.71.57,1.11.97,1.11.62,0,1.12-.72,1.68-2.38.28.76.39.99.81,1.53.08.11.12.21.12.32,0,.24-.22.75-.53,1.18-.58.86-1.33,1.32-2.13,1.32-1.15,0-2.02-.93-2.56-2.78-.34-1.2-.51-2.71-.51-4.81v-1.58ZM241,148.49c.09,0,.17.04.29.15.75.72,1.53,1.92,2.03,3.09.33.79.64,1.86.64,2.17,0,.15-.08.22-.39.39-.34.18-1.05.42-1.23.42-.13,0-.19-.08-.24-.34-.2-1.16-.46-2-.93-2.97-.42-.87-.45-.92-1.47-2.17.63-.46,1.12-.74,1.3-.74Z"/>
          <path d="M17.19,174.62c2.49-.71,3.78-.93,5.19-.93,1.51,0,2.7.41,3.5,1.18.66.68,1.02,1.61,1.02,2.7,0,1.92-1.03,3.54-2.83,4.47-.96.48-1.93.81-3.27,1.07-.58.12-.88.17-1.11.17-.18,0-.27-.06-.36-.23-.34-.69-.48-.9-.93-1.36,2.23-.27,3.45-.57,4.62-1.16,1.28-.63,1.98-1.67,1.98-2.92,0-1.41-.96-2.33-2.43-2.33-1.78,0-3.76.51-6.04,1.56-.41.18-.62.29-.77.38-.27.15-.34.18-.43.18-.29,0-.79-.92-1.14-2.07.69-.09,1.38-.25,3.01-.71Z"/>
          <path d="M33.18,176.35c-.19-.66-.25-1.07-.43-2.91-.06-.72-.12-1.08-.27-1.59.91.01,1.5.06,1.9.17.23.06.33.17.33.33,0,.06-.01.13-.04.25-.1.36-.15.63-.15,1.02,0,.74.15,1.94.32,2.46.09.29.18.39.34.39.36,0,1.68-.69,2.4-1.24.19-.15.22-.17.3-.17.13,0,.27.1.5.39.38.51.67,1.07.67,1.28,0,.17-.11.27-.36.34-.93.25-2.46.85-3.49,1.35-1.83.9-2.66,1.73-2.66,2.66s.76,1.29,2.7,1.29c1.12,0,2.14-.11,3.52-.33.06-.02.17-.03.2-.03.12,0,.19.06.25.18.04.15.15,1.07.15,1.43,0,.21-.06.28-.26.34-.33.08-2.14.18-3.28.18-1.92,0-3.2-.25-3.99-.79-.67-.46-1.04-1.2-1.04-2.1,0-.69.2-1.31.6-1.91.52-.78,1.09-1.27,2.35-2.02-.31-.29-.43-.5-.57-.96ZM38.62,172.99c.12-.09.2-.12.29-.12.21,0,1.51,1.38,1.51,1.61,0,.09-.12.22-.41.46-.3.25-.33.27-.4.27-.09,0-.11,0-.39-.42-.3-.42-.72-.9-1.04-1.17-.04-.04-.07-.09-.07-.13,0-.08.13-.21.51-.5ZM41.88,173.39c0,.09-.04.15-.23.3-.21.18-.49.38-.55.38-.09,0-.12-.04-.3-.29-.34-.5-.55-.73-1.09-1.23-.06-.06-.08-.09-.08-.14,0-.13.57-.57.75-.57.25,0,1.5,1.27,1.5,1.54Z"/>
          <path d="M48.94,180.95c-.72,1.25-1.71,1.93-2.73,1.93-1.56,0-2.67-1.53-2.67-3.66,0-2.37,1.2-4.41,3.25-5.49,1-.54,2.08-.78,3.51-.78,3.14,0,5.46,2.22,5.46,5.19,0,2.62-1.29,4.51-3.78,5.58-.5.21-.89.33-1.08.33-.18,0-.25-.06-.45-.34-.25-.39-.54-.67-.95-.95,3.09-.79,4.49-2.25,4.49-4.68,0-1.25-.53-2.29-1.46-2.96-.53-.36-.95-.51-1.77-.64-.42,3.17-.92,4.89-1.83,6.46ZM46.78,175.64c-1,.88-1.58,2.14-1.58,3.55,0,1.16.38,1.83,1,1.83.75,0,1.52-1.04,2.08-2.82.36-1.12.54-1.98.77-3.64-1.07.22-1.59.48-2.28,1.08Z"/>
          <path d="M66.82,172.81c0,.13-.06.18-.32.33-.1.06-.24.18-.38.34-.93,1.08-2.26,2.54-3.45,3.73-.25.26-.36.45-.36.63,0,.16.12.34.41.6.88.81,2.32,2.28,3.39,3.5.75.84.94,1.11.94,1.26,0,.17-.25.42-.87.9-.29.23-.47.33-.56.33-.13,0-.19-.06-.34-.3-.64-1.02-2.22-2.92-3.42-4.14-.67-.67-.81-.83-1.02-1.12-.25-.36-.36-.66-.36-1,0-.3.09-.62.27-.92q.17-.27,1.08-1.25c.87-.9,1.8-2.04,2.38-2.88.39-.55.58-.92.78-1.42,1.17.64,1.82,1.14,1.82,1.41Z"/>
          <path d="M80.47,176.93c2.05,0,3.39,1.21,3.39,3.06s-1.12,3.01-3.37,3.73c-.81.26-2.15.5-2.75.5-.32,0-.39-.08-.6-.51-.16-.34-.34-.55-.79-.87,3.77-.3,5.62-1.26,5.62-2.89,0-.92-.64-1.46-1.72-1.46-1.37,0-2.78.71-3.93,1.95-.21.21-.41.46-.54.69-.13.23-.23.3-.36.3-.22,0-.75-.22-1.11-.49-.18-.14-.24-.24-.24-.48q0-.12.04-.48s0-.15.01-.32c.08-.96.12-1.37.3-2.71q.03-.17.14-.87s.04-.33.12-.88c.01-.13.03-.25.03-.5.72.11,1.4.27,1.68.43.12.06.18.14.17.23,0,.06-.03.1-.07.2-.17.25-.21.39-.35.96-.13.57-.34,1.89-.38,2.38,1.53-1.41,2.87-1.96,4.71-1.96ZM80.2,172.66c.58.34.76.51.76.67,0,.14-.24.58-.5.96-.24.35-.33.42-.45.42-.07,0-.12-.03-.3-.17-1-.76-1.8-1.2-2.92-1.59-.22-.09-.27-.12-.27-.24,0-.15.12-.41.39-.79.24-.36.34-.45.51-.45.36,0,1.83.63,2.78,1.18Z"/>
          <path d="M87.48,174.5c0-.43-.02-1.02-.04-1.35.69.08,1.2.18,1.6.33.36.13.48.22.48.39q0,.09-.06.24c-.2.51-.25,1.08-.25,2.45,0,1.92.12,3.12.42,4.03.22.71.57,1.11.97,1.11.62,0,1.13-.72,1.68-2.38.28.76.39.99.81,1.53.08.11.12.21.12.32,0,.24-.22.75-.53,1.18-.58.86-1.33,1.32-2.13,1.32-1.15,0-2.02-.93-2.56-2.78-.34-1.2-.51-2.71-.51-4.81v-1.58ZM96.4,174.74c.09,0,.17.04.29.15.75.72,1.53,1.92,2.03,3.09.33.79.64,1.86.64,2.17,0,.15-.08.22-.39.39-.34.18-1.05.42-1.23.42-.13,0-.19-.08-.24-.34-.2-1.16-.46-2-.93-2.97-.42-.87-.45-.92-1.47-2.17.63-.46,1.12-.74,1.3-.74Z"/>
          <path d="M104.1,173.03c-.75.06-1.42.11-2.46.17-.12-.41-.22-.64-.51-1.16,2.79,0,5.28-.3,6.27-.76l.86,1.17c-.08.02-.11.02-.2.03q-.12.01-.34.06s-.12.02-.24.04c-.57.11-1.27.21-1.96.3v.81h1.5c.66,0,1.02-.01,1.32-.06v1.29c-.23-.03-.42-.04-1.04-.04h-1.79v.62h1.41c.64,0,.93-.01,1.21-.03-.03.26-.04.54-.04,1.26v1.95c.01.67.03,1.11.04,1.31-.33-.03-.62-.03-1.3-.03h-1.32v.64h1.26c.72,0,1.02-.01,1.35-.04v1.32c-.27-.04-.45-.06-1-.06h-1.61v.71c.72-.06,1.19-.12,2.58-.31v.61c.63-.94,1.09-2.08,1.35-3.31.23-1.05.32-1.88.39-3.78-.6,0-.83.01-1.2.06v-1.56c.3.04.52.06,1.02.06h.23v-1.05c0-1.2-.02-1.44-.09-1.83h1.66c-.06.32-.07.6-.09,1.18,0,.11,0,.75-.01,1.7h1.25c.62,0,.94-.01,1.35-.06-.06.52-.06.63-.1,2.7-.06,3.71-.25,5.75-.62,6.57-.25.63-.74.85-1.77.85-.22,0-.94-.03-1.17-.04-.04-.64-.1-.93-.33-1.56-.36.73-.58,1.12-1.17,1.89-.29-.43-.66-.81-1.11-1.14-2.08.3-2.99.4-5.66.61-.28.03-.51.04-.85.11l-.25-1.53c.33.03.43.03.76.03.63,0,.87-.01,2.43-.11v-.79h-1.47c-.46,0-.96.02-1.35.06v-1.33c.41.04.71.06,1.35.06h1.47v-.64h-1.24c-.65,0-.95.01-1.4.03.03-.36.04-.66.04-1.35v-1.88c0-.66-.01-.97-.04-1.3.36.03.79.04,1.41.04h1.23v-.62h-1.75c-.6,0-.92.02-1.33.06v-1.32c.39.06.75.08,1.35.08h1.74v-.66ZM102.85,176.57v.62h1.24v-.62h-1.24ZM102.85,178.24v.63h1.24v-.63h-1.24ZM105.51,177.19h1.25v-.62h-1.25v.62ZM105.51,178.87h1.25v-.63h-1.25v.63ZM111.3,175.72c-.15,3.45-.46,5.14-1.35,7.02.64.1.97.13,1.27.13.65,0,.75-.18.92-1.51.11-.75.13-1.37.2-2.97q.03-.51.04-1.69c0-.42.01-.53.01-.97h-1.09Z"/>
          <path d="M116.4,174.5c0-.43-.02-1.02-.04-1.35.69.08,1.2.18,1.6.33.36.13.48.22.48.39q0,.09-.06.24c-.2.51-.25,1.08-.25,2.45,0,1.92.12,3.12.42,4.03.22.71.57,1.11.97,1.11.62,0,1.12-.72,1.68-2.38.28.76.39.99.81,1.53.08.11.12.21.12.32,0,.24-.22.75-.53,1.18-.58.86-1.33,1.32-2.13,1.32-1.15,0-2.02-.93-2.56-2.78-.34-1.2-.51-2.71-.51-4.81v-1.58ZM125.32,174.74c.09,0,.17.04.29.15.75.72,1.53,1.92,2.03,3.09.33.79.64,1.86.64,2.17,0,.15-.08.22-.39.39-.34.18-1.05.42-1.23.42-.13,0-.19-.08-.24-.34-.2-1.16-.46-2-.93-2.97-.42-.87-.45-.92-1.47-2.17.63-.46,1.12-.74,1.3-.74Z"/>
          <path d="M130.99,176.15h-.09c-.08.01-.14.01-.17.01-.13,0-.21-.06-.25-.25-.09-.38-.15-.84-.18-1.41.21.02.38.02.48.02.81,0,1.75-.06,2.55-.17.15-.99.22-1.75.22-2.37v-.34c1.74.22,2.07.33,2.06.6,0,.08-.03.12-.09.25-.18.35-.19.39-.43,1.58.58-.11,1.33-.3,1.63-.41.06-.03.08-.03.12-.03.13,0,.17.06.29.58.06.3.12.72.12.84,0,.1-.04.17-.18.19q-.27.09-2.32.45c-.69,3.04-1.41,5.29-2.57,8-.08.19-.15.27-.24.27-.2,0-.72-.21-1.23-.5-.25-.13-.33-.21-.33-.29,0-.06.04-.16.12-.31,1.14-2.16,1.96-4.46,2.54-6.93-.66.09-1.12.13-2.04.21ZM137.4,181.85c.44.29,1.07.42,1.95.42.97,0,1.82-.09,2.29-.24.12-.03.15-.04.21-.04.13,0,.2.04.24.18.1.32.18.93.18,1.39,0,.2-.06.27-.25.32-.5.11-1.33.17-2.22.17-1.88,0-2.92-.3-3.62-1.02-.25-.27-.46-.62-.58-.99-.09-.21-.15-.46-.15-.55,0-.26.45-.53,1.23-.78.17.63.34.9.72,1.15ZM141.61,177.49c-.3-.04-.93-.08-1.46-.08-1.11,0-1.57.04-2.89.27-.03.01-.08.01-.1.01-.09,0-.14-.03-.17-.12-.04-.1-.11-.84-.11-1.16,0-.19.03-.28.15-.33.06-.03.15-.04.46-.1,1.02-.18,1.88-.25,2.92-.25.87,0,1.32.03,1.42.1.08.06.09.18.09.68,0,.43-.03.82-.06.91-.02.05-.08.08-.15.08-.03,0-.08,0-.12-.01Z"/>
          <path d="M150.16,180.95c-.72,1.25-1.71,1.93-2.73,1.93-1.56,0-2.67-1.53-2.67-3.66,0-2.37,1.2-4.41,3.25-5.49,1-.54,2.08-.78,3.51-.78,3.14,0,5.46,2.22,5.46,5.19,0,2.62-1.29,4.51-3.78,5.58-.5.21-.89.33-1.08.33-.18,0-.25-.06-.45-.34-.25-.39-.54-.67-.95-.95,3.09-.79,4.49-2.25,4.49-4.68,0-1.25-.53-2.29-1.46-2.96-.53-.36-.95-.51-1.77-.64-.42,3.17-.92,4.89-1.83,6.46ZM148,175.64c-1,.88-1.58,2.14-1.58,3.55,0,1.16.38,1.83,1,1.83.75,0,1.52-1.04,2.08-2.82.36-1.12.54-1.98.77-3.64-1.07.22-1.59.48-2.28,1.08Z"/>
          <path d="M160.42,176.9c-.12.03-.18.06-.27.1-.08.04-.12.06-.2.06-.32,0-.55-.58-.74-1.7.12.02.23.02.29.02.63,0,2.24-.2,3.2-.39.31-1.32.48-2.31.48-3.03,0-.06,0-.14-.01-.25.64.07,1.26.21,1.68.38.24.09.36.22.36.38,0,.07-.02.12-.09.24q-.23.41-.69,2.06c.36-.05.76-.08,1.02-.08.62,0,1.1.12,1.44.36.6.44.9,1.32.9,2.69,0,2.23-.41,4.14-1.1,5.08-.48.66-1.11.98-1.99.98-.54,0-1.05-.08-1.2-.17q-.12-.08-.17-.63c-.04-.41-.13-.75-.32-1.17.78.25.98.3,1.46.3.72,0,1.02-.34,1.35-1.54.23-.79.35-1.83.35-2.92,0-1.17-.29-1.59-1.08-1.59-.27,0-.71.03-1.05.09-.04.17-.06.18-.12.39-.42,1.53-1.19,3.55-1.95,5.17-.79,1.63-.99,1.96-1.18,1.96-.12,0-.53-.21-.96-.5-.35-.21-.44-.3-.44-.42q0-.07.62-1.05c.83-1.27,1.91-3.78,2.28-5.25-1.11.24-1.73.39-1.86.44ZM168.07,175.22c0-.11.14-.24.57-.58.3-.23.45-.32.55-.32.09,0,.17.04.36.24.88.85,1.71,2,2.19,2.98.15.33.24.54.24.63,0,.15-.04.2-.52.58-.3.24-.65.44-.77.44-.1,0-.15-.04-.25-.3-.3-.74-.58-1.31-.94-1.86-.39-.6-.47-.69-1.35-1.63-.06-.09-.08-.13-.08-.18Z"/>
          <path d="M173.62,180.77c.27-.24.34-.3.45-.3.19,0,1.09.66,1.75,1.29.75.69,1.59,1.7,1.59,1.91,0,.13-.03.17-.46.55-.57.53-.69.62-.79.62-.09,0-.18-.06-.25-.21-.53-.93-1.73-2.16-2.79-2.85-.12-.09-.18-.15-.18-.24,0-.11.03-.15.69-.76Z"/>
          <path d="M190.26,173.08c1.6,0,2.5-.12,3.25-.42.08-.03.12-.04.17-.04.12,0,.22.08.39.3.33.41.54.81.54.99,0,.13-.09.21-.43.39-2.26,1.11-3.71,3.25-3.71,5.48,0,1.72,1,2.8,2.59,2.8,1.41,0,2.49-.77,3.04-2.16.41-.99.58-2.19.58-3.75,0-1.16-.22-2.35-.64-3.5-.02-.06-.03-.1-.03-.15,0-.15.11-.23.53-.34.4-.11.88-.21,1.02-.21.12,0,.21.06.25.15t.06.29c.09.79.69,2.28,1.33,3.3.46.75,1.14,1.6,1.78,2.26.08.09.11.15.11.23-.02.31-.9,1.3-1.16,1.3-.13,0-.17-.03-.71-.75-.4-.53-1.02-1.91-1.53-3.36.25,1.38.28,1.7.28,2.67,0,1.74-.46,3.23-1.35,4.25-.84.99-2.02,1.49-3.5,1.49-1.32,0-2.35-.38-3.12-1.12-.78-.78-1.2-1.92-1.2-3.25,0-1.02.22-1.95.71-2.92.51-1.07,1-1.68,2.1-2.66-.78.13-.79.13-1.71.27-.09.01-.17.03-.22.04-.09.01-.17.03-.21.03-.27,0-.44-.55-.51-1.68.33.06.83.09,1.28.09Z"/>
          <path d="M206.7,176.35c-.19-.66-.25-1.07-.43-2.91-.06-.72-.12-1.08-.27-1.59.91.01,1.5.06,1.9.17.23.06.33.17.33.33,0,.06-.01.13-.04.25-.1.36-.15.63-.15,1.02,0,.74.15,1.94.32,2.46.09.29.18.39.34.39.36,0,1.68-.69,2.4-1.24.19-.15.22-.17.3-.17.13,0,.27.1.5.39.38.51.67,1.07.67,1.28,0,.17-.11.27-.36.34-.93.25-2.46.85-3.49,1.35-1.83.9-2.66,1.73-2.66,2.66s.76,1.29,2.7,1.29c1.12,0,2.14-.11,3.52-.33.06-.02.17-.03.2-.03.12,0,.19.06.25.18.04.15.15,1.07.15,1.43,0,.21-.06.28-.26.34-.33.08-2.14.18-3.28.18-1.92,0-3.2-.25-3.99-.79-.67-.46-1.04-1.2-1.04-2.1,0-.69.2-1.31.6-1.91.52-.78,1.09-1.27,2.35-2.02-.31-.29-.43-.5-.57-.96Z"/>
          <path d="M226.76,171.91c.67,0,1.11-.01,1.54-.08-.06.57-.08.99-.08,1.47v9.45c0,.74.01,1.25.09,1.75h-1.72v-.81h-6.75v.81h-1.73c.06-.48.09-1,.09-1.63v-9.51c0-.54-.03-1.06-.08-1.53.46.06.93.08,1.6.08h7.02ZM226.59,175.28v-1.84h-6.75v1.84h6.75ZM219.84,178.64h6.75v-1.85h-6.75v1.85ZM219.84,182.17h6.75v-2.02h-6.75v2.02Z"/>
          <path d="M233.72,175.45c-.39.09-.53.13-1.07.33-.19.08-.3.1-.39.1-.33,0-.63-.61-.9-1.9.96-.04,1.31-.09,2.97-.34,1.8-.27,4.08-.62,5.28-.77,1.35-.18,2.43-.36,3-.48.1-.03.15-.03.22-.03.2,0,.27.09.41.46.12.32.21.76.21.98,0,.18-.06.24-.27.24-.32,0-.6.03-.89.08-2.53.42-4.56,2.64-4.56,4.98,0,1.75,1.38,2.91,3.72,3.12.21.01.29.09.29.27,0,.38-.15,1.09-.29,1.42-.08.17-.19.24-.39.24s-.65-.09-1.11-.22c-2.55-.75-3.88-2.37-3.88-4.67,0-1.25.41-2.4,1.19-3.39.42-.54.78-.84,1.63-1.42-1.96.33-4.04.72-5.17,1ZM241.39,175.84c.21,0,1.48,1.43,1.48,1.65,0,.08-.09.17-.36.41-.29.24-.3.24-.42.28q-.08.03-.11.03c-.06,0-.08-.01-.34-.43-.24-.38-.5-.71-.97-1.2-.03-.03-.08-.11-.08-.12.03-.08.04-.12.06-.12.04-.06.3-.27.36-.31.15-.08.24-.14.25-.15.01-.03.04-.03.04-.03h.08ZM243.96,176.87c-.22.17-.36.25-.43.25-.06,0-.09-.03-.17-.15-.45-.67-.67-.96-1.16-1.42-.03-.05-.06-.09-.06-.12,0-.08.09-.17.3-.32.21-.15.39-.24.46-.24.11,0,.29.14.6.45.44.45.84,1,.84,1.14,0,.09-.11.2-.39.41Z"/>
          <path d="M17.26,208.28q0-1.63.01-2.34c-.75.83-1.26,1.48-1.51,1.95-.08.15-.18.24-.27.24-.15,0-.51-.31-.99-.85-.19-.24-.28-.38-.28-.44q0-.1.76-.85c.64-.65,1.51-1.67,2.33-2.75,0-.09,0-.43.01-1.04-.74.13-1.68.39-1.93.53-.15.08-.18.09-.25.09-.26,0-.47-.58-.66-1.75.79-.01,1.79-.12,2.88-.3,0-.54.01-1.31.01-1.73,0-.45-.03-.81-.09-1.11.95.06,1.41.12,1.83.22.22.06.31.15.31.32,0,.08-.03.15-.09.3-.15.3-.17.41-.29,1.59.36.22.71.6.71.79q0,.13-.46.71c-.04.06-.18.25-.41.54q-.01.48-.01.58c1.47-1.25,2.71-1.77,4.18-1.77,2.34,0,3.81,1.48,3.81,3.87,0,1.83-.84,3.2-2.57,4.12-.66.38-1.79.78-2.12.78-.09,0-.19-.03-.24-.09t-.23-.3c-.25-.36-.54-.64-.84-.85,2.99-.81,4.17-1.86,4.17-3.71,0-1.44-.85-2.37-2.21-2.37-.88,0-1.69.29-2.65.92q-.48.32-1.33,1.04.01.12.01.32c0,1.6,0,1.74.09,4.89.02.17.02.29.02.31,0,.29-.21.35-1.31.35-.39,0-.42-.04-.42-.47l.02-1.74Z"/>
          <path d="M30.28,203.15c-.12.03-.18.06-.27.1-.08.04-.12.06-.2.06-.32,0-.55-.58-.74-1.7.12.02.23.02.29.02.63,0,2.24-.2,3.2-.39.31-1.32.48-2.31.48-3.03,0-.06,0-.14-.01-.25.64.07,1.26.21,1.68.38.24.09.36.22.36.38,0,.07-.02.12-.09.24q-.23.41-.69,2.06c.36-.05.76-.08,1.02-.08.62,0,1.1.12,1.44.36.6.44.9,1.32.9,2.69,0,2.23-.41,4.14-1.1,5.08-.48.66-1.11.98-1.99.98-.54,0-1.05-.08-1.2-.17q-.12-.08-.17-.63c-.04-.41-.13-.75-.32-1.17.78.25.98.3,1.46.3.72,0,1.02-.34,1.35-1.54.23-.79.35-1.83.35-2.92,0-1.17-.29-1.59-1.08-1.59-.27,0-.71.03-1.05.09-.04.17-.06.18-.12.39-.42,1.53-1.19,3.55-1.95,5.17-.79,1.63-.99,1.96-1.18,1.96-.12,0-.53-.21-.96-.5-.35-.21-.44-.3-.44-.42q0-.07.62-1.05c.83-1.27,1.91-3.78,2.28-5.25-1.11.24-1.73.39-1.86.44ZM37.93,201.47c0-.11.14-.24.57-.58.3-.23.45-.32.55-.32.09,0,.17.04.36.24.88.85,1.71,2,2.19,2.98.15.33.24.54.24.63,0,.15-.04.2-.52.58-.3.24-.65.44-.77.44-.1,0-.15-.04-.25-.3-.3-.74-.58-1.31-.94-1.86-.39-.6-.47-.69-1.35-1.63-.06-.09-.08-.13-.08-.18Z"/>
          <path d="M51.25,202.85c2.12,0,3.62,1.44,3.62,3.48,0,1.4-.74,2.66-1.96,3.39-.86.51-1.91.77-3.09.77-1.91,0-3.02-.77-3.02-2.07,0-1.18.99-2.02,2.4-2.02,1.27,0,2.19.64,2.8,1.96.76-.56,1.08-1.14,1.08-1.95,0-1.29-.92-2.13-2.36-2.13s-3.04.73-4.35,2.04c-.24.24-.46.5-.73.84-.11.15-.18.21-.27.21-.27,0-1.33-1.05-1.33-1.32,0-.13.06-.21.39-.45.34-.27.84-.7,1.47-1.3,1.46-1.38,2.52-2.54,4.09-4.46-1.88.24-3.13.45-3.6.62-.08.02-.12.03-.17.03-.12,0-.2-.08-.29-.3-.18-.45-.27-.95-.32-1.61.41.06.69.08,1.02.08.72,0,1.93-.1,3.51-.29.55-.06.73-.1,1.15-.27.14-.06.21-.08.3-.08.21,0,.42.18.81.78.29.39.38.58.38.71,0,.19-.04.25-.38.46-.27.17-.43.3-.78.63-.75.72-.76.72-1.69,1.67-.66.67-.74.75-1.33,1.35.97-.54,1.74-.76,2.64-.76ZM49.81,208.04c-.23-.15-.48-.22-.77-.22-.46,0-.76.22-.76.58,0,.43.46.71,1.18.71.33,0,.62-.03.99-.14-.18-.5-.33-.72-.64-.93Z"/>
          <path d="M62.82,201.7c-1.04,1.38-2.8,3.03-3.24,3.03-.13,0-.2-.03-.5-.29-.22-.2-.62-.46-1.11-.75,1.06-.57,2.16-1.47,2.98-2.45.88-1.05,1.41-1.92,1.93-3.24.74.24,1.12.42,1.62.69.21.12.29.21.29.34,0,.11-.04.2-.18.29-.15.12-.3.3-.69.84l2.24.02c.81,0,.96-.02,1.41-.18.06-.01.1-.03.17-.03.24,0,.49.22.93.78.29.36.36.51.36.68s-.04.24-.25.45c-.12.12-.31.41-.46.68-1.62,2.92-3.18,4.77-5.56,6.54-1.04.78-2.4,1.58-2.68,1.58-.12,0-.23-.06-.36-.21-.25-.27-.66-.55-1.25-.87,2.19-1.05,3.72-2.1,5.22-3.62,1.07-1.06,1.82-2.08,2.47-3.34.14-.25.23-.45.47-.94h-3.79ZM69.96,200.08c-.33.29-.53.42-.62.42s-.09,0-.36-.45c-.24-.41-.6-.87-.94-1.22-.06-.06-.08-.09-.08-.13,0-.12.57-.54.74-.54.12,0,.3.15.75.66.4.46.69.87.69.97s-.04.17-.18.29ZM70.63,199.31c-.36-.62-.71-1.05-1.11-1.44-.06-.06-.07-.09-.07-.12,0-.08.07-.15.33-.33.2-.15.29-.18.39-.18.17.02.55.39,1.06,1.05.21.27.35.5.35.57s-.04.15-.23.29c-.24.18-.46.31-.55.31-.06,0-.11-.03-.17-.15Z"/>
          <path d="M73.81,203.78s-.11.01-.12.01c-.33,0-.46-.51-.57-2.05.74.12,1.77.17,4.56.17,3,0,3.81,0,4.1-.03.22-.01.27-.03.57-.12.11-.04.2-.06.29-.06.22,0,.41.11.64.36.41.46.68.88.68,1.06,0,.17-.08.29-.25.48-.12.1-.2.24-.48.88-1,2.21-2.13,3.55-3.9,4.68-.81.53-2.12,1.12-2.42,1.12-.21,0-.33-.09-.58-.39-.39-.47-.57-.63-.99-.84,1.71-.51,3.27-1.36,4.38-2.43.84-.81,1.47-1.86,1.91-3.17-5.69.08-6.74.12-7.8.32ZM78.72,198.46q1.56,0,3.29-.12h.18c.2,0,.27.15.29.6,0,.18,0,.34.01.5v.06c0,.54-.06.69-.25.69-.06,0-.18-.02-.31-.02-.29-.03-1.41-.06-1.88-.06-2.25,0-3.86.03-4.74.1h-.12c-.39,0-.45-.22-.54-1.9.98.12,1.92.15,4.08.15Z"/>
          <path d="M93.36,200.89c-2.69,0-4.58.09-5.06.22-.01.01-.03.01-.04.01-.29,0-.38-.49-.42-2.04.74.12,1.7.15,3.92.15,2.01,0,4.37-.04,4.74-.09.27-.03.36-.04.63-.15.08-.03.1-.03.17-.03.25,0,.57.24,1.05.81.29.36.34.45.34.62,0,.1-.04.19-.15.33-.15.18-.17.22-.5,1.27-.84,2.64-2.5,5.01-4.75,6.75-.9.69-1.75,1.21-1.98,1.21-.17,0-.19-.01-.54-.36-.4-.4-.72-.63-1.13-.85,2.21-1.09,3.41-2.03,4.56-3.48,1.03-1.32,1.68-2.73,2.02-4.41q-1.17.01-2.86.03Z"/>
          <path d="M102.72,202.03c-.27.01-.43.03-.61.04-.14.01-.15.01-.17.01-.12,0-.18-.04-.23-.19-.08-.24-.18-1.04-.19-1.49.17.01.6.03,1.14.03.17,0,1.35-.08,1.88-.12.25-1.21.34-1.84.34-2.66,1.54.21,2.1.39,2.1.68,0,.1-.01.13-.24.48-.12.18-.17.34-.42,1.28.7-.12,1.12-.23,1.68-.41.1-.03.15-.04.22-.04.11,0,.13.08.23.51.07.38.12.69.12.86,0,.18-.04.21-.43.3-.51.12-1.38.27-2.31.39-.56,1.68-.93,2.58-1.62,3.99-.53,1.05-.83,1.6-1.23,2.23-.12.18-.19.24-.3.24-.15,0-.57-.22-1.09-.62-.24-.17-.3-.24-.3-.34s.06-.2.25-.46c.43-.54,1-1.47,1.5-2.46.42-.83.57-1.17,1-2.36-.58.05-.63.06-1.32.11ZM107.65,210.67c-1.64,0-2.75-.9-2.75-2.24s1.15-2.41,2.7-2.41c.36,0,.53.01,1.14.1-.06-.72-.06-1-.12-2.4,0-.29-.03-.68-.06-1.16.77.08,1.35.17,1.64.29.12.04.18.12.18.24,0,.08-.01.14-.03.24-.08.32-.09.54-.09.95,0,.55.04,1.5.09,2.23,1.07.48,1.5.72,2.25,1.31.33.25.45.39.45.51,0,.15-.08.29-.5.96-.18.3-.31.43-.42.43q-.09,0-.51-.39c-.33-.33-.71-.58-1.23-.9,0,1.4-1.02,2.24-2.74,2.24ZM107.62,207.46c-.72,0-1.21.34-1.21.87,0,.5.45.81,1.12.81.79,0,1.21-.4,1.21-1.2,0-.12,0-.24-.02-.24-.3-.15-.7-.24-1.11-.24ZM113.23,203.2c-.18.25-.27.33-.38.33-.08,0-.13-.03-.24-.13-.38-.36-.9-.75-1.46-1.1q-.36-.22-1.02-.52c-.21-.09-.29-.15-.29-.27,0-.1.08-.24.3-.58.36-.52.45-.61.58-.61.28,0,1.39.57,2.19,1.11.65.44.84.62.84.78,0,.12-.24.57-.54,1Z"/>
          <path d="M121.24,207.2c-.72,1.25-1.71,1.93-2.73,1.93-1.56,0-2.67-1.53-2.67-3.66,0-2.37,1.2-4.41,3.25-5.49,1-.54,2.08-.78,3.51-.78,3.14,0,5.46,2.22,5.46,5.19,0,2.62-1.29,4.51-3.78,5.58-.5.21-.89.33-1.08.33-.18,0-.25-.06-.45-.34-.25-.39-.54-.67-.95-.95,3.09-.79,4.49-2.25,4.49-4.68,0-1.25-.53-2.29-1.46-2.96-.53-.36-.95-.51-1.77-.64-.42,3.17-.92,4.89-1.83,6.46ZM119.08,201.89c-1,.88-1.58,2.14-1.58,3.55,0,1.16.38,1.83,1,1.83.75,0,1.52-1.04,2.08-2.82.36-1.12.54-1.98.77-3.64-1.07.22-1.59.48-2.28,1.08Z"/>
          <path d="M136.98,202.87c.03,1.12.06,1.71.21,3.21,1.26.41,1.86.66,2.75,1.14,1.18.67,1.79,1.12,1.79,1.33,0,.18-.2.53-.54,1.02-.22.33-.39.48-.51.48-.08,0-.14-.03-.24-.13-1.07-1.02-1.92-1.58-3.18-2.08-.03.92-.2,1.39-.63,1.84-.53.53-1.44.81-2.62.81-1.96,0-3.17-.87-3.17-2.29,0-1.52,1.32-2.48,3.38-2.48.5,0,.93.03,1.3.08-.15-2.46-.2-3.64-.21-5.85-.01-.87-.04-1.39-.13-2.1.69.01,1.38.09,1.79.19.24.08.33.15.33.32,0,.08-.01.12-.06.24-.17.39-.22.96-.25,2.62q.12,0,.58-.03c.72-.04,1.74-.23,2.88-.54.04-.01.08-.01.12-.01.09,0,.12.03.18.18.15.36.32,1.09.32,1.35,0,.12-.06.17-.2.21-1.16.27-2.78.5-3.66.5h-.21ZM134.04,207.19c-1.02,0-1.63.34-1.63.91,0,.53.51.8,1.46.8,1.15,0,1.66-.41,1.66-1.35v-.12c-.49-.18-.92-.24-1.48-.24Z"/>
          <path d="M152.1,209.32c0,.66-.53,1.18-1.18,1.18s-1.19-.53-1.19-1.18.53-1.19,1.19-1.19,1.18.53,1.18,1.19ZM151.57,207.1h-1.33l-.41-8.98h2.16l-.42,8.98Z"/>
        </g>
        <circle class="cls-9" cx="308.2" cy="208.01" r="30"/>
        <g>
          <path class="cls-1" d="M325.77,201.03c1.8.14,1.23,2.13.34,3.28-.19.24-.54.27-.77.08-1.56-1.33-1.02-3.47.43-3.36Z"/>
          <path class="cls-1" d="M325.68,201.87c-.34,0-.62-.28-.62-.62v-3.55l-.89-1.24c-.2-.28-.14-.67.14-.87.28-.2.67-.14.87.14l1,1.4c.08.11.12.23.12.36v3.75c0,.34-.28.62-.62.62Z"/>
          <polygon class="cls-5" points="322.84 191.88 316.72 191.31 319.44 196.81 325.68 197.47 322.84 191.88"/>
          <rect class="cls-5" x="316.14" y="194.98" width="6.66" height="2.89" transform="translate(191.45 -156.07) rotate(38.45)"/>
          <path class="cls-1" d="M321.2,200.71c-.14,0-.27-.04-.39-.13-.27-.21-.32-.61-.1-.88l2.25-2.85c.13-.17.34-.26.56-.23l1.09.12-2.16-4.26-4.66-.43.65,1.31c.1.21.08.46-.06.65l-1.8,2.4c-.21.28-.6.33-.87.12-.28-.21-.33-.6-.12-.87l1.57-2.09-.98-1.97c-.1-.2-.08-.44.05-.63.13-.19.35-.29.57-.27l6.11.57c.21.02.4.15.5.34l2.84,5.59c.1.2.09.45-.04.64-.13.19-.35.29-.58.27l-1.89-.2-2.03,2.58c-.12.16-.31.24-.49.24Z"/>
          <path class="cls-6" d="M317.17,223.57l4.18-1.61,2.02-5.47-.29-8.13-2.24-7.53-3.73-4.66-5.58-1.9-5.51-.3-7.13,3.83-3.23,5.73-3.97,4.71-1.8,4.97,1.35,4.51,9.8,4.91c2.83,1.15,12.95,1.45,16.14.93Z"/>
          <path class="cls-12" d="M290.3,209.94c4.88.32,7.69,5.48,5.89,11-4.76-2.59-7.42-5.22-5.89-11Z"/>
          <path class="cls-12" d="M323.43,213.69c-5.63-.78-9.94,4.07-9.06,10.36,5.98-1.67,9.57-3.86,9.06-10.36Z"/>
          <path class="cls-1" d="M301.77,202.84c1.6-.65,3.04-.03,3.71,1.21.16.29-.14.54-.45.39-1-.51-1.99-.75-3.07-.96-.36-.07-.49-.51-.19-.64Z"/>
          <path class="cls-1" d="M314.46,205.28c-1.18-1.26-2.75-1.29-3.88-.44-.26.2-.1.55.25.54,1.12-.04,2.12.14,3.19.4.36.09.66-.26.44-.5Z"/>
          <path class="cls-1" d="M310.46,214.31c-.14,0-.27-.05-.39-.14-.25-.21-.28-.59-.07-.84.68-.81,1.5-1.23,2.33-1.19.74.04,1.43.46,1.93,1.18.19.27.12.65-.15.83-.27.19-.65.12-.83-.15-.2-.29-.53-.64-1-.66-.44-.02-.92.25-1.36.77-.12.14-.29.21-.46.21Z"/>
          <path class="cls-1" d="M303.02,213.04c-.19,0-.37-.09-.49-.25-.37-.52-.71-.8-1-.8,0,0,0,0-.02,0-.33,0-.68.34-.92.64-.21.26-.59.29-.84.08-.26-.21-.29-.59-.08-.84.6-.73,1.23-1.1,1.9-1.07.7.02,1.33.45,1.94,1.31.19.27.13.64-.14.84-.11.08-.23.11-.35.11Z"/>
          <path class="cls-1" d="M313.23,224.67c-.34,0-.62-.27-.62-.61,0-.34.27-.63.61-.64,3.7-.08,6.35-.94,7.88-2.56,1.96-2.07,1.86-5.03,1.77-7.4l-.02-.46c-.13-4.25-1.4-18.18-12.14-18.91-9.11-.62-12.52,5.19-14.77,9.03-.46.78-.86,1.46-1.25,1.98-.11.15-.23.31-.37.48-1.57,2.04-4.49,5.85-3.39,9.49.79,2.62,3.58,4.76,8.3,6.36,1.42.48,2.86.87,4.28,1.13.34.06.56.39.5.73-.06.34-.39.56-.73.5-1.48-.28-2.98-.67-4.45-1.18-5.11-1.74-8.17-4.16-9.09-7.18-1.29-4.25,2.01-8.54,3.59-10.61.13-.17.25-.33.36-.47.35-.46.73-1.11,1.17-1.86,2.26-3.86,6.05-10.3,15.94-9.64,5.12.35,8.86,3.36,11.13,8.95,1.72,4.24,2.1,8.82,2.17,11.16l.02.46c.09,2.47.21,5.84-2.11,8.3-1.79,1.9-4.66,2.86-8.76,2.95,0,0,0,0-.01,0Z"/>
          <path class="cls-1" d="M301.36,211.77c-.07,0-.14-.02-.19-.07-.76-.6-1.15-1.22-1.44-2.28-.05-.17.05-.34.22-.38.17-.05.34.05.38.22.29,1.06.65,1.5,1.22,1.95.14.11.16.3.05.44-.06.08-.15.12-.24.12Z"/>
          <path class="cls-1" d="M313.33,213.3c-.15,0-.29-.11-.31-.27-.02-.17.1-.33.27-.35.66-.09,1.41-.66,1.84-1.38.09-.15.28-.2.43-.11.15.09.2.28.11.43-.53.89-1.45,1.56-2.29,1.68-.01,0-.03,0-.04,0Z"/>
          <path class="cls-1" d="M314.68,213.84c-.37,0-.76-.07-1.13-.24-.16-.07-.23-.26-.15-.41.07-.16.26-.23.41-.15.85.39,1.81.08,2.46-.24.15-.08.34-.01.42.14.08.15.01.34-.14.42-.51.25-1.17.49-1.87.49Z"/>
          <path class="cls-1" d="M300.49,211.77c-.8,0-1.67-.46-2.36-1.27-.11-.13-.1-.33.04-.44.13-.11.33-.1.44.04.61.71,1.39,1.11,2.04,1.04.17-.02.33.1.34.28.02.17-.1.33-.28.34-.07,0-.15.01-.23.01Z"/>
          <g>
            <path class="cls-3" d="M310.65,217.46c-.67-1.83-3.64-3.8-5.15-3.58s-4.7,2.05-5.69,1.99-1.68-.73-1.8,1.59,1.69,3.5,4.12,2.65c3.36,1.92,9.67.49,8.52-2.65Z"/>
            <path class="cls-3" d="M310.65,219.84c-.75,3.68-4.92,5.83-6.19,5.29s-2.85-1.41-1.46-4.62c2.5.53,6.9-.12,7.02-1.63s.63.96.63.96Z"/>
            <path class="cls-10" d="M304.24,220.83c-.73,1.34-.38,3.06,1.83,1.99s2.2-2.28,2.2-2.28c0,0,1.45-.73-.48,0s-3.55.3-3.55.3Z"/>
            <path class="cls-1" d="M305.74,221.6c-1.06,0-2.2-.33-3.37-.98-2.3.65-3.58.03-4.26-.61-.86-.82-1.18-2.12-.84-3.41.34-1.31.95-1.42,1.84-1.44.64-.01,1.61-.04,3.2-.87,3.54-1.86,5.62-.79,7.64,1.39.21.22.19.57-.03.77-.22.21-.57.19-.77-.03-1.82-1.96-3.36-2.72-6.33-1.16-1.81.95-2.98.98-3.68.99q-.65.02-.81.63c-.23.89-.02,1.81.54,2.34.7.67,1.88.77,3.41.29.15-.05.31-.03.44.05,1.91,1.12,4.63,1.79,6.8-1.36.15-.21.42-.29.66-.2,0,0,.71.29,1.35.43.29.07.48.36.41.65-.07.29-.36.48-.65.41-.4-.09-.82-.23-1.12-.33-1.23,1.62-2.74,2.44-4.42,2.44Z"/>
            <path class="cls-1" d="M305.04,225.73c-.61,0-1.19-.14-1.72-.43-.86-.46-1.41-1.12-1.63-1.95-.43-1.63.61-3.33.65-3.4.16-.26.5-.33.75-.17.26.16.33.5.17.75,0,.01-.83,1.37-.52,2.54.14.53.5.95,1.09,1.27.84.45,1.89.38,2.95-.19,1.5-.81,3.11-2.77,3.32-5.31.02-.3.29-.52.59-.5.3.02.52.29.5.59-.21,2.59-1.74,5.02-3.88,6.18-.77.41-1.54.62-2.27.62Z"/>
          </g>
        </g>
      </g>
      <g>
        <path class="cls-7" d="M40.86,70.51c5.99-4.82,10.66-4.4,11.63-2.77.89,1.5-.2,9.39-9.12,4.98"/>
        <path class="cls-4" d="M45.1,73.09c2.15-3.7,6.52-2.97,7.65-2.44-1.95,3.62-3.96,4.96-7.65,2.44Z"/>
        <path class="cls-1" d="M48.09,74.67c-1.31,0-2.95-.38-4.99-1.39-.3-.15-.43-.52-.28-.82.15-.3.52-.42.82-.28,3.32,1.64,5.84,1.68,7.3.12,1.3-1.4,1.35-3.69,1.02-4.24-.21-.35-.72-.62-1.4-.75-.91-.17-4.28-.39-9.33,3.68-.26.21-.65.17-.86-.09-.21-.26-.17-.65.09-.86,3.68-2.96,7.54-4.43,10.31-3.93,1.04.19,1.83.66,2.23,1.32.64,1.09.43,3.95-1.18,5.69-.75.81-1.93,1.54-3.74,1.54Z"/>
        <path class="cls-7" d="M46.34,84.75c1.64-16.83-17.12-22.81-25.65-13.47-2.98,3.26-5.19,9.03-4.06,15.78-3.29,3.25-2.73,7.92,2.42,10.47,3.1,1.53,6.2,2.2,13.34,2.2,6.63,0,14.3-2.8,16.45-6.94,1.2-2.31.78-5.73-2.5-8.03Z"/>
        <path class="cls-2" d="M36.12,67.11c-.6-4.19-4.15-6.53-4.34-.47"/>
        <path class="cls-2" d="M24.43,68.18c-.51-4.21,2.31-7.38,4.07-1.58"/>
        <path class="cls-7" d="M19.97,71.24c-6.66-3.83-11.22-2.69-11.92-.92-.65,1.62,2.36,9.82,10.47,4.08"/>
        <path class="cls-4" d="M16.7,75.05c-2.15-3.7-7.04-2.78-8.16-2.25,1.95,3.62,4.48,4.77,8.16,2.25Z"/>
        <path class="cls-4" d="M29.53,66.63c1.23,7.47-2.33,14.46-12.54,14.46,0-11.43,12.54-14.46,12.54-14.46Z"/>
        <path class="cls-4" d="M31.78,66.64c0,8.41,6.81,12.73,13.85,13.26,0-11.43-13.85-13.26-13.85-13.26Z"/>
        <path class="cls-4" d="M15.55,93.52c13.82-6.39,25.47-3.61,33.3-.74-3.13,7.58-29.27,10.16-33.3.74Z"/>
        <path class="cls-1" d="M32.39,100.32c-7.6,0-10.65-.79-13.61-2.26-2.69-1.33-4.37-3.31-4.74-5.59-.32-1.98.37-3.97,1.94-5.63-1.1-7.14,1.47-12.92,4.26-15.98,4.25-4.65,11.26-5.93,17.43-3.18,3.01,1.34,5.47,3.51,7.11,6.28,1.79,3.02,2.53,6.55,2.2,10.5,3.38,2.57,3.64,6.23,2.4,8.6-2.36,4.55-10.5,7.26-17,7.26ZM31.01,67.46c-3.76,0-7.35,1.46-9.87,4.22-2.64,2.89-5.06,8.42-3.91,15.27.03.2-.03.39-.17.53-1.44,1.42-2.08,3.13-1.81,4.8.3,1.88,1.75,3.55,4.07,4.69,2.8,1.38,5.72,2.13,13.07,2.13,6.88,0,14.02-2.96,15.91-6.61,1.03-1.99.75-5.1-2.31-7.25-.18-.13-.28-.34-.26-.56.71-7.25-2.5-13.19-8.57-15.9-2.01-.89-4.11-1.33-6.16-1.33Z"/>
        <path class="cls-1" d="M13.31,77.03c-1.46,0-2.58-.54-3.4-1.18-2.09-1.64-2.9-4.58-2.44-5.76.29-.72.99-1.31,1.99-1.65,2.66-.93,6.7-.08,10.8,2.27.29.17.39.54.23.83-.17.29-.54.39-.83.23-5.62-3.23-8.91-2.49-9.79-2.18-.65.23-1.11.57-1.26.95-.21.53.31,2.97,2.06,4.35,1.89,1.49,4.48,1.14,7.5-.99.27-.19.65-.13.85.15.19.27.13.66-.15.85-2.23,1.58-4.07,2.14-5.56,2.14Z"/>
        <path class="cls-1" d="M36.12,67.72c-.3,0-.56-.22-.6-.52-.32-2.23-1.49-3.66-2.13-3.63-.31.02-.93.69-1,3.09-.01.34-.3.6-.63.59-.34-.01-.6-.29-.59-.63.11-3.62,1.4-4.23,2.15-4.27.03,0,.06,0,.09,0,1.46,0,2.94,2.06,3.31,4.67.05.33-.18.64-.52.69-.03,0-.06,0-.09,0Z"/>
        <path class="cls-1" d="M24.43,68.79c-.3,0-.57-.23-.6-.54-.32-2.67.61-5.08,2.07-5.39.74-.15,2.14.1,3.19,3.56.1.32-.08.66-.41.76-.32.1-.66-.08-.76-.41-.7-2.3-1.46-2.79-1.77-2.72-.62.13-1.38,1.81-1.11,4.05.04.33-.2.64-.53.68-.02,0-.05,0-.07,0Z"/>
        <path class="cls-1" d="M37.36,78.62c-.65-1.09-1.64-1.26-2.42-.7-.18.13-.11.42.12.44.71.07,1.33.3,1.99.61.22.1.44-.14.31-.35Z"/>
        <path class="cls-1" d="M26.39,78.83c.65-1.09,1.64-1.26,2.42-.7.18.13.11.42-.12.44-.71.07-1.33.3-1.99.61-.22.1-.44-.14-.31-.35Z"/>
        <circle class="cls-1" cx="33.24" cy="92.64" r=".57"/>
        <circle class="cls-1" cx="31.46" cy="92.64" r=".57"/>
        <path class="cls-1" d="M31.57,96.83c-.58,0-1.17-.13-1.74-.4-1.05-.5-1.76-1.38-1.96-2.34l-.5.2c-.32.13-.68-.02-.8-.34-.13-.32.02-.68.34-.8l1.32-.53c.21-.08.44-.05.62.09.17.14.26.36.22.59-.16.89.54,1.66,1.3,2.02.9.43,2.24.48,3.27-.69.23-.26.62-.28.87-.05.26.23.28.62.05.87-.81.91-1.88,1.39-2.99,1.39Z"/>
        <ellipse class="cls-1" cx="36.03" cy="87.17" rx="1.44" ry="1.56" transform="translate(-13.12 6.67) rotate(-8.95)"/>
        <ellipse class="cls-1" cx="28.36" cy="87.53" rx="1.56" ry="1.44" transform="translate(-60.5 111.43) rotate(-87.1)"/>
      </g>
    </g>
  </g>
</svg>