<?xml version="1.0" encoding="UTF-8"?>
<svg id="_レイヤー_2" data-name="レイヤー 2" xmlns="http://www.w3.org/2000/svg" width="339.66" height="200.76" viewBox="0 0 339.66 200.76">
  <defs>
    <style>
      .cls-1 {
        fill: #211815;
      }

      .cls-2 {
        fill: #f5f19b;
      }

      .cls-3 {
        fill: #e0a99c;
      }

      .cls-4 {
        fill: #ecbb6e;
      }

      .cls-5 {
        fill: #93c9ce;
      }

      .cls-6 {
        fill: #5c948d;
      }

      .cls-7 {
        fill: #fffba1;
      }

      .cls-8, .cls-9 {
        fill: #fff;
      }

      .cls-10 {
        fill: #d3f2c9;
      }

      .cls-11 {
        fill: #ceeaeb;
      }

      .cls-12 {
        fill: #f2d496;
      }

      .cls-9 {
        stroke: #ceeaeb;
        stroke-miterlimit: 10;
        stroke-width: 2.83px;
      }
    </style>
  </defs>
  <g id="_レイヤー_1-2" data-name="レイヤー 1">
    <g>
      <path class="cls-9" d="M329.77,1.42H90.4c-4.68,0-8.47,3.79-8.47,8.47v40.63s-9.69,9.69-9.69,9.69h9.69v.5c0,4.68,3.79,8.47,8.47,8.47h239.38c4.68,0,8.47-3.79,8.47-8.47V9.89c0-4.68-3.79-8.47-8.47-8.47Z"/>
      <g>
        <path d="M97.6,17.72c1.6,0,2.5-.12,3.25-.42.08-.03.12-.04.17-.04.12,0,.22.07.39.3.33.41.54.81.54.99,0,.13-.09.21-.43.39-2.26,1.11-3.71,3.25-3.71,5.47,0,1.72,1,2.8,2.59,2.8,1.41,0,2.49-.76,3.04-2.16.41-.99.58-2.19.58-3.75,0-1.16-.22-2.36-.64-3.5-.02-.06-.03-.11-.03-.15,0-.15.11-.22.53-.34.4-.1.88-.21,1.02-.21.12,0,.21.06.25.15t.06.28c.09.79.69,2.28,1.33,3.3.46.75,1.14,1.6,1.78,2.26.08.09.11.15.11.22-.02.32-.9,1.3-1.16,1.3-.13,0-.17-.03-.71-.75-.4-.52-1.02-1.9-1.53-3.36.25,1.38.28,1.7.28,2.67,0,1.74-.46,3.22-1.35,4.25-.84.99-2.02,1.48-3.5,1.48-1.32,0-2.35-.38-3.12-1.12-.78-.78-1.2-1.92-1.2-3.25,0-1.02.22-1.95.71-2.92.51-1.06,1-1.68,2.1-2.65-.78.13-.79.13-1.71.27-.09.01-.17.03-.22.04-.09.01-.17.03-.21.03-.27,0-.44-.55-.51-1.68.33.06.83.09,1.28.09Z"/>
        <path d="M114.04,20.99c-.19-.66-.25-1.06-.43-2.91-.06-.72-.12-1.08-.27-1.59.91.02,1.5.06,1.9.17.23.06.33.17.33.33,0,.06-.01.13-.04.25-.1.36-.15.63-.15,1.02,0,.73.15,1.93.32,2.46.09.28.18.39.34.39.36,0,1.68-.69,2.4-1.25.19-.15.22-.17.3-.17.13,0,.27.11.5.39.38.51.67,1.06.67,1.27,0,.17-.11.27-.36.34-.93.25-2.46.86-3.49,1.35-1.83.9-2.66,1.72-2.66,2.65s.76,1.29,2.7,1.29c1.12,0,2.14-.1,3.52-.33.06-.01.17-.03.2-.03.12,0,.19.06.25.18.04.15.15,1.06.15,1.42,0,.21-.06.29-.26.34-.33.08-2.14.18-3.28.18-1.92,0-3.2-.25-3.99-.79-.67-.47-1.04-1.2-1.04-2.1,0-.69.2-1.3.6-1.9.52-.78,1.09-1.28,2.35-2.03-.31-.29-.43-.5-.57-.96Z"/>
        <path d="M126.97,19.26c2.49-.71,3.78-.93,5.19-.93,1.51,0,2.7.41,3.5,1.19.66.67,1.02,1.6,1.02,2.7,0,1.92-1.03,3.54-2.83,4.47-.96.48-1.93.81-3.27,1.06-.58.12-.88.17-1.11.17-.18,0-.27-.06-.36-.22-.34-.69-.48-.9-.93-1.37,2.23-.27,3.45-.57,4.62-1.16,1.28-.63,1.98-1.67,1.98-2.92,0-1.41-.96-2.32-2.43-2.32-1.78,0-3.76.51-6.04,1.56-.41.18-.62.29-.77.38-.27.15-.34.18-.43.18-.29,0-.79-.92-1.14-2.07.69-.09,1.38-.25,3.01-.71Z"/>
        <path d="M144.27,25.59c-.72,1.25-1.71,1.94-2.73,1.94-1.56,0-2.67-1.53-2.67-3.66,0-2.37,1.2-4.41,3.25-5.49,1-.54,2.08-.78,3.51-.78,3.14,0,5.46,2.22,5.46,5.19,0,2.62-1.29,4.51-3.78,5.58-.5.21-.89.33-1.08.33-.18,0-.25-.06-.45-.34-.25-.39-.54-.68-.95-.95,3.09-.79,4.49-2.25,4.49-4.68,0-1.25-.53-2.29-1.46-2.96-.53-.36-.95-.51-1.77-.64-.42,3.16-.92,4.89-1.83,6.46ZM142.11,20.28c-1,.88-1.58,2.15-1.58,3.55,0,1.16.38,1.83,1,1.83.75,0,1.52-1.04,2.08-2.82.36-1.12.54-1.98.77-3.65-1.07.23-1.59.48-2.28,1.08Z"/>
        <path d="M158.14,20.09c-1.04,1.38-2.8,3.03-3.24,3.03-.13,0-.2-.03-.5-.29-.22-.19-.62-.46-1.11-.75,1.06-.57,2.16-1.47,2.98-2.44.88-1.05,1.41-1.92,1.93-3.24.74.24,1.12.42,1.62.69.21.12.29.21.29.34,0,.1-.04.2-.18.29-.15.12-.3.3-.69.84h2.24c.81.01.96,0,1.41-.17.06-.01.1-.03.17-.03.24,0,.49.23.93.78.29.36.36.51.36.67s-.04.24-.25.45c-.12.12-.31.41-.46.67-1.62,2.92-3.18,4.77-5.56,6.54-1.04.78-2.4,1.57-2.68,1.57-.12,0-.23-.06-.36-.21-.25-.27-.66-.55-1.25-.87,2.19-1.05,3.72-2.1,5.22-3.62,1.07-1.07,1.82-2.08,2.47-3.34.14-.25.23-.45.47-.95l-3.79.02ZM165.28,18.47c-.33.29-.53.42-.62.42s-.09,0-.36-.45c-.24-.41-.6-.87-.94-1.21-.06-.06-.08-.09-.08-.13,0-.12.57-.54.74-.54.12,0,.3.15.75.66.4.46.69.87.69.97s-.04.17-.18.29ZM165.96,17.7c-.36-.61-.71-1.05-1.11-1.44-.06-.06-.07-.09-.07-.12,0-.08.07-.15.33-.33.2-.15.29-.18.39-.18.17.01.55.39,1.06,1.05.21.27.35.5.35.57s-.04.15-.23.28c-.24.18-.46.32-.55.32-.06,0-.11-.03-.17-.15Z"/>
        <path d="M169.14,22.17s-.11.02-.12.02c-.33,0-.46-.51-.57-2.05.74.12,1.77.17,4.56.17,3,0,3.81,0,4.1-.03.22-.02.27-.03.57-.12.11-.04.2-.06.29-.06.22,0,.41.1.64.36.41.46.68.88.68,1.07,0,.17-.08.29-.25.48-.12.11-.2.24-.48.88-1,2.21-2.13,3.56-3.9,4.68-.81.52-2.12,1.12-2.42,1.12-.21,0-.33-.09-.58-.39-.39-.46-.57-.63-.99-.84,1.71-.51,3.27-1.37,4.38-2.43.84-.81,1.47-1.86,1.91-3.17-5.69.08-6.74.12-7.8.31ZM174.04,16.85q1.56,0,3.29-.12h.18c.2,0,.27.15.29.6,0,.18,0,.35.01.5v.06c0,.54-.06.69-.25.69-.06,0-.18-.01-.31-.01-.29-.03-1.41-.06-1.88-.06-2.25,0-3.86.03-4.74.11h-.12c-.39,0-.45-.22-.54-1.91.98.12,1.92.15,4.08.15Z"/>
        <path d="M188.68,19.28c-2.69,0-4.58.09-5.06.23-.01.01-.03.01-.04.01-.29,0-.38-.5-.42-2.04.74.12,1.7.15,3.92.15,2.01,0,4.37-.04,4.74-.09.27-.03.36-.04.63-.15.08-.03.1-.03.17-.03.25,0,.57.24,1.05.81.29.36.34.45.34.61,0,.11-.04.2-.15.33-.15.18-.17.23-.5,1.28-.84,2.64-2.5,5.01-4.75,6.75-.9.69-1.75,1.22-1.98,1.22-.17,0-.19-.02-.54-.36-.4-.41-.72-.63-1.12-.86,2.21-1.09,3.41-2.02,4.56-3.48,1.03-1.32,1.68-2.73,2.02-4.41q-1.17.02-2.86.03Z"/>
        <path d="M202.11,25.59c-.72,1.25-1.71,1.94-2.73,1.94-1.56,0-2.67-1.53-2.67-3.66,0-2.37,1.2-4.41,3.25-5.49,1-.54,2.08-.78,3.51-.78,3.14,0,5.46,2.22,5.46,5.19,0,2.62-1.29,4.51-3.78,5.58-.5.21-.89.33-1.08.33-.18,0-.25-.06-.45-.34-.25-.39-.54-.68-.95-.95,3.09-.79,4.49-2.25,4.49-4.68,0-1.25-.53-2.29-1.46-2.96-.53-.36-.95-.51-1.77-.64-.42,3.16-.92,4.89-1.83,6.46ZM199.95,20.28c-1,.88-1.58,2.15-1.58,3.55,0,1.16.38,1.83,1,1.83.75,0,1.52-1.04,2.08-2.82.36-1.12.54-1.98.77-3.65-1.07.23-1.59.48-2.28,1.08Z"/>
        <path d="M216.42,17.49c0-.73-.01-1.09-.09-1.57h1.83c-.06.46-.09.84-.09,1.51v.95h3.93c.63,0,.94-.02,1.32-.06-.04.41-.06.71-.06,1.28v4.38c0,.64.01,1.02.08,1.44h-1.71v-.85h-3.55v2.91c0,.87.03,1.31.1,1.8h-1.86c.07-.51.1-.97.1-1.8v-2.91h-3.39v.85h-1.71c.06-.46.08-.83.08-1.44v-4.4c0-.54-.02-.79-.06-1.26.41.04.72.06,1.31.06h3.78v-.89ZM213.03,19.91v3.12h3.39v-3.12h-3.39ZM221.62,23.03v-3.12h-3.55v3.12h3.55Z"/>
        <path d="M229.3,24.87c.04.08.06.13.06.21,0,.11-.02.12-.15.45-.3.69-.66,1.77-.84,2.58-.04.17-.09.25-.15.29-.08.03-.59.1-.75.1h-.06c-.08,0-.18-.01-.3-.01-.2,0-.24-.04-.3-.23-.29-.97-.51-2.98-.51-4.5,0-1.65.1-2.67.52-4.92.15-.81.22-1.26.29-1.75.63.12,1.17.27,1.62.48.25.11.33.18.33.33,0,.11-.02.15-.18.39-.5.79-1.05,3.98-1.05,6.12,0,.34.02.81.06,1.56.42-.94.57-1.23.92-1.96.13.32.22.46.49.87ZM232.56,25.94c.48.25,1.05.34,2.06.34s1.53-.08,2.46-.34c.09-.03.16-.04.21-.04.1,0,.18.06.19.21.08.51.13,1.11.13,1.41,0,.15-.04.2-.25.26-.81.21-1.63.31-2.64.31-1.38,0-2.23-.17-2.94-.58-.66-.41-1.35-1.23-1.35-1.63,0-.21.32-.5,1.12-.99.27.54.53.81,1,1.07ZM231.51,18.29c.33.08,1.29.14,2.03.14.99,0,1.98-.08,2.91-.24q.08-.01.14-.01c.1,0,.15.04.18.16.03.15.08.81.08,1.22,0,.22-.04.3-.21.33-.62.12-1.63.19-2.71.19-1.29,0-2.45-.08-2.59-.17-.08-.04-.11-.15-.11-.42,0-.41.04-1,.08-1.12.01-.06.06-.09.15-.09.02,0,.04,0,.08.01Z"/>
        <path d="M240.64,19.14c0-.44-.02-1.02-.04-1.35.69.07,1.2.18,1.6.33.36.14.48.23.48.39q0,.09-.06.24c-.2.51-.25,1.08-.25,2.44,0,1.92.12,3.12.42,4.04.22.71.57,1.11.97,1.11.62,0,1.12-.72,1.68-2.38.28.77.39.99.81,1.53.08.1.12.21.12.31,0,.24-.22.75-.53,1.19-.58.85-1.33,1.32-2.13,1.32-1.15,0-2.02-.93-2.56-2.77-.34-1.2-.51-2.71-.51-4.81v-1.58ZM249.57,19.38c.09,0,.17.04.29.15.75.72,1.53,1.92,2.03,3.09.33.79.64,1.86.64,2.17,0,.15-.08.23-.39.39-.34.18-1.05.42-1.23.42-.13,0-.19-.08-.24-.34-.2-1.16-.46-2-.93-2.97-.42-.87-.45-.92-1.47-2.17.63-.46,1.12-.73,1.3-.73Z"/>
        <path d="M257.73,21.51c1.89-.53,3.25-.77,4.27-.77,2.12,0,3.42,1.16,3.42,3.03,0,1.12-.46,2.12-1.35,2.87-.58.49-1.46.92-2.61,1.26-.64.18-1.33.31-1.63.31-.18,0-.27-.04-.33-.19-.21-.53-.45-.9-.76-1.21,3.3-.35,4.98-1.4,4.98-3.11,0-.87-.72-1.54-1.65-1.54-1.62,0-3.39.54-5.25,1.58-.15.08-.24.12-.3.12-.25,0-.67-.75-1.02-1.83.74-.11.99-.17,2.24-.51Z"/>
        <path d="M272.29,25.2c.04.06.06.11.06.17q0,.09-.25.78c-.31.92-.51,1.67-.57,2.25-.02.19-.08.27-.27.31-.21.06-.61.09-1,.09-.15,0-.22-.03-.27-.12-.14-.28-.38-1.32-.5-2.16-.11-.71-.15-1.44-.15-2.21,0-1.72.2-3.36.74-6.3.09-.48.12-.71.17-1.17.69.09,1.17.22,1.6.45.23.12.32.21.32.36,0,.08-.03.15-.11.27-.61,1.05-1.18,4.29-1.18,6.69,0,.36.01.93.06,1.65.36-.93.53-1.35.86-2.07.1.41.21.6.51,1ZM274.81,21.26c-.72,0-.87-.03-.92-.2-.04-.13-.09-.62-.09-.96,0-.12,0-.24.02-.51.4.03.64.04,1.14.04.81,0,1.32-.02,2.1-.06-.01-1.9-.03-2.14-.18-2.86.74.01,1.29.07,1.77.19.23.06.32.14.32.29,0,.08-.01.11-.06.23-.15.36-.23.94-.26,1.98.56-.08,1.04-.17,1.94-.38.08-.03.1-.03.15-.03.09,0,.14.04.17.15.03.13.08.71.08,1.02,0,.36-.01.44-.17.5-.24.11-.9.23-2.17.38,0,1.04.09,2.75.2,3.72.94.41,1.59.75,2.25,1.21.42.32.51.41.51.53,0,.15-.27.66-.58,1.09-.18.25-.27.33-.38.33s-.11,0-.45-.33c-.33-.33-.67-.57-1.33-1.02v.12c0,1.33-1.09,2.19-2.76,2.19s-2.8-.9-2.8-2.25,1.14-2.35,2.65-2.35c.56,0,.84.01,1.25.08q-.06-1.17-.1-3.17c-.65.04-1.67.08-2.27.08ZM276.04,25.67c-.75,0-1.25.34-1.25.87,0,.48.46.78,1.18.78.8,0,1.22-.36,1.22-1.04,0-.22-.02-.38-.02-.39-.39-.15-.73-.23-1.14-.23ZM282.55,16.82c0,.9-.71,1.61-1.61,1.61s-1.62-.71-1.62-1.61.7-1.6,1.62-1.6,1.61.71,1.61,1.6ZM280.14,16.82c0,.44.36.79.79.79s.81-.36.81-.79-.38-.79-.81-.79-.79.36-.79.79Z"/>
        <path d="M284.02,19.14c0-.44-.02-1.02-.04-1.35.69.07,1.2.18,1.6.33.36.14.48.23.48.39q0,.09-.06.24c-.2.51-.25,1.08-.25,2.44,0,1.92.12,3.12.42,4.04.22.71.57,1.11.97,1.11.62,0,1.12-.72,1.68-2.38.28.77.39.99.81,1.53.08.1.12.21.12.31,0,.24-.22.75-.53,1.19-.58.85-1.33,1.32-2.13,1.32-1.15,0-2.02-.93-2.56-2.77-.34-1.2-.51-2.71-.51-4.81v-1.58ZM292.95,19.38c.09,0,.17.04.29.15.75.72,1.53,1.92,2.03,3.09.33.79.64,1.86.64,2.17,0,.15-.08.23-.39.39-.34.18-1.05.42-1.23.42-.13,0-.19-.08-.24-.34-.2-1.16-.46-2-.93-2.97-.42-.87-.45-.92-1.47-2.17.63-.46,1.12-.73,1.3-.73Z"/>
        <path d="M297.54,22.02c.25.03.38.04.66.04h.46c.33-.42.46-.6.79-1.08-.79-.99-1.16-1.38-1.95-2.13l.75-1.23c.17.18.35.36.54.57.57-.92.99-1.83,1.11-2.42l1.41.53c-.09.13-.17.27-.32.6-.36.74-.83,1.54-1.32,2.28.33.41.36.45.54.67.66-1,1.16-1.9,1.35-2.43l1.29.69c-.18.29-.29.45-.5.77-.87,1.38-1.38,2.13-2.16,3.12.99-.06,1.08-.08,1.59-.12-.18-.58-.21-.66-.42-1.16l1.08-.43c.46,1.14.6,1.57.9,2.68l-1.14.51q-.04-.24-.08-.42-.6.08-1.06.12v4.54c0,.76.01,1.05.09,1.51h-1.58c.06-.48.09-.88.09-1.51v-4.42l-1.24.06c-.35.03-.48.04-.75.09l-.15-1.44ZM299.32,24.15c-.15,2.52-.25,3.24-.6,4.39l-1.2-.63c.34-1.08.43-1.77.57-3.92l1.23.15ZM302.38,23.9c.3,1.29.38,1.77.48,2.86l-1.14.32c-.08-1.25-.15-1.84-.36-2.92l1.02-.25ZM303.61,24.65c-.39,0-.56.01-.83.04v-1.42c.27.04.4.06.88.06h.97c.33,0,.53-.01.68-.04l.51.67c-.06.15-.06.18-.12.39-.36,1.11-.66,1.75-1.19,2.53-.48.72-.81,1.1-1.65,1.86-.22-.41-.51-.74-.99-1.14,1.17-.83,1.89-1.73,2.37-2.96h-.64ZM307.44,22.35c.17.67.33,1.09.71,1.79.58-.5,1.04-.96,1.54-1.61l1.02.92c-.72.76-1.29,1.3-1.86,1.77.74.98,1.29,1.5,2.22,2.12-.39.44-.62.76-.93,1.42-.69-.57-1.04-.93-1.51-1.53-.6-.79-.93-1.4-1.43-2.62.09.92.12,1.48.14,1.95v1.25c.01.92-.46,1.28-1.71,1.28h-.11c-.18,0-.31-.02-.36-.02-.26,0-.29,0-.51-.01-.07-.64-.17-1-.38-1.46.5.08.84.12,1.19.12s.45-.06.45-.34v-5.01h-1.23c-.46,0-1.02.01-1.41.04.03-.36.04-.84.04-1.38v-2.59c0-.54-.01-1.04-.04-1.42.36.04.71.06,1.4.06h.81c.21-.54.32-.87.41-1.28l1.6.23c-.17.48-.27.71-.42,1.05h1.59c.71,0,1.05-.01,1.4-.06-.04.43-.06.75-.06,1.44v2.58c0,.67.02,1.02.06,1.38-.41-.03-.92-.04-1.37-.04h-1.25ZM304.77,19.14h3.75v-.9h-3.75v.9ZM304.77,21.17h3.75v-.9h-3.75v.9Z"/>
        <path d="M313.38,21.87c-.12.03-.18.06-.27.11-.08.04-.12.06-.18.06-.33,0-.57-.57-.75-1.68h.29c.63,0,2.24-.2,3.2-.39.31-1.31.48-2.31.48-3.02,0-.06,0-.15-.01-.25.64.06,1.26.2,1.68.38.24.09.36.21.36.36,0,.08-.02.13-.09.25q-.23.39-.69,2.04c.36-.04.76-.08,1.02-.08.62,0,1.1.12,1.44.36.6.43.9,1.32.9,2.68,0,2.24-.41,4.16-1.1,5.1-.48.66-1.11.98-2,.98-.54,0-1.05-.08-1.2-.17q-.12-.08-.17-.63c-.04-.41-.13-.77-.32-1.19.78.27.98.32,1.46.32.72,0,1.02-.35,1.35-1.56.23-.79.35-1.81.35-2.92,0-1.17-.29-1.59-1.08-1.59-.27,0-.71.04-1.05.09-.04.18-.06.2-.12.39-.42,1.54-1.19,3.55-1.95,5.17-.79,1.63-.99,1.96-1.18,1.96-.12,0-.53-.21-.96-.5-.35-.21-.44-.3-.44-.42q0-.08.62-1.05c.83-1.28,1.91-3.77,2.28-5.25-1.11.25-1.73.39-1.86.43ZM322.8,18.8c-.24.18-.41.25-.48.25-.04,0-.09-.03-.13-.11-.32-.51-.84-1.09-1.28-1.47-.03-.03-.04-.06-.04-.09,0-.06.11-.17.36-.36.25-.18.33-.22.43-.22.24,0,1.56,1.33,1.56,1.58,0,.09-.12.19-.42.42ZM321.21,20.39c0-.11.13-.24.57-.58.3-.23.45-.32.57-.32.2,0,.87.72,1.5,1.61.52.75,1.09,1.81,1.09,2.07,0,.15-.04.2-.52.58-.3.24-.65.44-.77.44-.1,0-.15-.04-.25-.3-.29-.72-.54-1.21-.95-1.86-.4-.65-.43-.67-1.15-1.46-.06-.08-.09-.12-.09-.18ZM323.17,15.78c.25,0,1.53,1.28,1.53,1.53,0,.08-.09.17-.39.38-.27.21-.41.29-.46.29q-.08,0-.38-.42c-.25-.34-.74-.86-1-1.08-.04-.04-.08-.08-.08-.12,0-.12.62-.57.78-.57Z"/>
        <path d="M99.27,45.15c-.69.04-1.33.06-1.91.06-.63,0-.67,0-.71-.09-.04-.09-.09-.72-.09-1.16v-.28c.71.03,1,.04,1.38.04s.95-.02,1.4-.03c.08-.87.09-1.17.09-1.47,0-.14,0-.23-.01-.44.72.02,1.27.06,1.71.17.12.03.18.09.18.2,0,.08-.02.13-.09.31-.12.29-.21.68-.27,1.14.96-.08,2.12-.23,2.58-.33.45-.11.76-.17.84-.17.32-.03.54-.09.63-.17.02-.01.03-.01.03-.01.03,0,.04.01.08.01.06,0,.1.06.13.17.03.22.08.75.08,1.08,0,.22-.04.29-.2.31-.88.18-2.71.41-4.29.54-.01.06-.01.09-.01.24-.03.29-.03.32-.04,1.07.66-.15,1.25-.23,1.98-.23.11-.48.12-.6.15-.95,1.16.24,1.72.45,1.72.63,0,.06-.01.1-.13.3-.04.06-.08.1-.11.21,1.94.45,3.17,1.88,3.17,3.72,0,1.63-.88,2.94-2.58,3.84-.63.33-1.51.63-1.84.63-.17,0-.29-.06-.38-.18-.31-.45-.51-.66-.99-1.07,1.56-.29,2.32-.6,3.07-1.21.69-.58,1.02-1.26,1.02-2.1,0-1.2-.71-2.1-1.91-2.45-.9,2.07-1.5,3.04-2.58,4.16.08.25.13.4.27.72.06.12.07.17.07.21,0,.15-.06.2-.4.38-.38.2-.81.34-.96.34-.13,0-.17-.04-.33-.51-.87.62-1.8.95-2.71.95-1.02,0-1.71-.83-1.71-2.03,0-1.88,1.37-3.71,3.63-4.83.01-.78.03-1.44.04-1.74ZM97.15,51.45c0,.38.23.6.6.6.51,0,1.18-.29,1.86-.78-.21-1.02-.3-1.71-.38-2.83-1.32.98-2.08,2.1-2.08,3.02ZM102.4,47.31c-.67.06-1.04.12-1.65.33.03,1.07.06,1.52.18,2.28.63-.79,1.05-1.54,1.47-2.61Z"/>
        <path d="M117.66,46.76c2.12,0,3.62,1.44,3.62,3.48,0,1.39-.74,2.65-1.96,3.39-.86.51-1.91.76-3.09.76-1.91,0-3.02-.76-3.02-2.07,0-1.19.99-2.03,2.4-2.03,1.27,0,2.19.64,2.8,1.96.76-.55,1.08-1.14,1.08-1.95,0-1.29-.92-2.13-2.36-2.13s-3.04.74-4.35,2.04c-.24.24-.46.5-.73.84-.11.15-.18.21-.27.21-.27,0-1.33-1.05-1.33-1.32,0-.13.06-.21.39-.45.34-.27.84-.71,1.47-1.3,1.46-1.38,2.52-2.54,4.09-4.46-1.88.24-3.13.45-3.6.62-.08.01-.12.03-.17.03-.12,0-.2-.07-.29-.3-.18-.45-.27-.94-.32-1.6.41.06.69.08,1.02.08.72,0,1.93-.11,3.51-.29.55-.06.73-.11,1.15-.27.14-.06.21-.08.3-.08.21,0,.42.18.81.78.29.39.38.58.38.71,0,.2-.04.25-.38.46-.27.17-.43.3-.78.63-.75.72-.76.72-1.69,1.67-.66.67-.74.75-1.33,1.35.97-.54,1.74-.77,2.64-.77ZM116.22,51.95c-.23-.15-.48-.23-.77-.23-.46,0-.76.23-.76.58,0,.44.46.71,1.18.71.33,0,.62-.03.99-.13-.18-.5-.33-.72-.64-.93Z"/>
        <path d="M126.75,46.08c-1.06.18-1.3.22-1.56.3-.15.04-.27.06-.36.06-.27,0-.4-.48-.46-1.65.87,0,1.35-.04,2.42-.24,0-.48.01-1.03.01-1.23,0-.58-.03-1.09-.09-1.47,1.58.07,2.04.18,2.04.46q0,.08-.13.39t-.2,1.62c.48.38.74.67.72.87,0,.04-.03.08-.09.13-.22.2-.25.22-.52.62q-.06.08-.15.19l-.06.09c0,.22,0,.25-.02.54.45-.51.87-.93,1.28-1.26,1.32-1.08,2.31-1.53,3.39-1.53s1.77.43,2.29,1.33c.45.78.69,1.88.69,3.17,0,.78-.06,1.38-.23,2.5.72.51,1.5,1.3,1.5,1.51,0,.24-.84,1.08-1.09,1.08-.1,0-.12-.02-.32-.32-.12-.17-.28-.36-.61-.72-.21.39-.33.55-.54.75-.55.51-1.3.78-2.19.78-1.56,0-2.56-.79-2.56-2,0-1.28,1.04-2.24,2.4-2.24.78,0,1.35.11,1.86.33.06-.55.08-.83.08-1.3,0-2.37-.45-3.3-1.59-3.3-.81,0-1.89.57-3.03,1.59-.41.38-.72.69-1.37,1.39v.87c0,2,.04,4,.11,4.53v.06c0,.27-.21.34-.93.34-.66,0-.79-.06-.79-.34v-.12c.03-.43.04-.96.04-1.62q0-.99.01-2.17s-.03.04-.06.08c-.33.41-.87,1.14-1.22,1.63-.17.24-.25.32-.36.32-.15,0-.42-.27-.88-.87-.18-.22-.29-.42-.29-.5s.08-.17.45-.5c.27-.25,1.29-1.5,1.81-2.19.27-.38.46-.65.58-.84v-1.16ZM132.49,51.23c-.69,0-1.11.29-1.11.75s.32.69.89.69c.5,0,.9-.15,1.17-.45.13-.13.34-.51.34-.57h0c-.51-.33-.81-.42-1.29-.42Z"/>
        <path d="M138.13,48.12c.55-.67.82-.92,1.48-1.33.92-.57,1.59-.78,2.46-.78.69,0,1.29.13,1.94.45q.39.2,1.36.83c1.14.73,1.94,1.05,2.66,1.05.31,0,.75-.12,1.11-.29.64-.33,1.03-.66,1.56-1.37l1.2,1.2c-.62.78-.93,1.09-1.43,1.46-.76.57-1.62.86-2.59.86-.45,0-.92-.08-1.32-.21-.58-.19-.88-.34-2.06-1.11-1.32-.84-1.78-1.02-2.58-1.02-.98,0-1.67.36-2.61,1.38l-1.18-1.11Z"/>
        <path d="M160.66,53.22c0,.66-.53,1.18-1.18,1.18s-1.19-.52-1.19-1.18.53-1.18,1.19-1.18,1.18.52,1.18,1.18ZM160.14,51h-1.33l-.41-8.98h2.16l-.42,8.98Z"/>
      </g>
      <circle class="cls-11" cx="31.42" cy="51.75" r="30"/>
      <path class="cls-9" d="M9.89,99h239.38c4.68,0,8.47,3.79,8.47,8.47v60.83s9.69,9.69,9.69,9.69h-9.69s0,.5,0,.5c0,4.68-3.79,8.47-8.47,8.47H9.89c-4.68,0-8.47-3.79-8.47-8.47v-71.02c0-4.68,3.79-8.47,8.47-8.47Z"/>
      <circle class="cls-10" cx="305.91" cy="170.76" r="30"/>
      <g>
        <path d="M26.64,118.28c-.69,0-1.79.22-2.54.51-1.59.62-2.64,1.74-2.64,2.83,0,.69.45,1.16,1.35,1.38.41.11,1.11.18,1.6.17h.15c.25,0,.34.09.34.29,0,.5-.09,1.18-.17,1.38-.06.12-.13.17-.29.17-.91,0-2.07-.24-2.85-.6-1.15-.51-1.79-1.4-1.79-2.5,0-.71.27-1.43.78-2.07.29-.34.51-.55,1.05-.93-2.73.83-4.09,1.35-5.01,1.95-.12.08-.19.11-.27.11-.17,0-.3-.13-.51-.51-.21-.35-.36-.77-.36-.99,0-.13.06-.18.42-.29.34-.1.58-.25,1.16-.66.69-.51,1.77-1.44,2.7-2.32.77-.74,1.2-1.19,2.1-2.24-.87.11-3.23.51-3.57.6-.21.06-.22.06-.27.06-.14,0-.2-.06-.25-.21-.12-.33-.23-.88-.3-1.51.21.01.32.01.45.01.67,0,2.13-.12,3.93-.34.67-.08,1.07-.17,1.33-.3.18-.09.21-.11.32-.11.18,0,.42.2.84.71.3.34.39.51.39.67s-.06.24-.25.38q-.27.17-1.53,1.33c-1.04.96-2.27,2.01-3.65,3.1,2.12-.63,3.22-.93,5.52-1.44.51-.11,1.01-.24,1.58-.42.08-.03.13-.04.18-.04.12,0,.18.06.25.19.17.35.36,1.08.36,1.35,0,.21-.06.3-.22.3h-.34Z"/>
        <path d="M32.33,116.51c-.67.13-1.32.3-1.74.45-.11.04-.2.06-.27.06-.13,0-.21-.08-.3-.33-.11-.33-.21-.86-.27-1.38.22.01.33.03.46.03.57,0,1.18-.08,2.13-.26l.03-.9c.02-.21.02-.36.02-.41,0-.64-.02-1.04-.08-1.44.79.03,1.29.09,1.77.21.2.04.29.13.29.27,0,.06-.01.11-.09.27-.13.28-.15.46-.25,1.71.33.22.62.54.62.69,0,.09-.04.17-.18.33-.22.24-.3.34-.58.76q-.03.39-.03.5c.5-.43.82-.72,1.33-1.09.57-.43,1.2-.84,1.65-1.06.58-.32.99-.42,1.53-.42.79,0,1.37.3,1.68.87.18.36.25.71.25,1.29,0,.51-.03.99-.12,2.08-.12,1.29-.18,2.25-.18,2.83s.13.76.55.76c.6,0,1.33-.43,1.98-1.17.01.58.06.77.25,1.37.04.12.06.2.06.25,0,.17-.08.3-.33.5-.61.5-1.5.81-2.29.81-1.32,0-1.92-.69-1.92-2.2,0-.69.04-1.58.2-3.67.04-.5.06-.92.06-1.12,0-.62-.21-.9-.66-.9s-1.33.48-2.52,1.39c-.6.45-.94.77-1.57,1.41v.69c0,1.12.07,3.72.13,4.63v.18c0,.12-.02.17-.04.21-.08.09-.51.15-1.2.15-.43,0-.53-.06-.53-.32,0-.09,0-.24.02-.4v-.35q.01-.52.08-3.38-.86,1.11-1.37,1.94c-.13.21-.23.29-.34.29s-.39-.24-.86-.75c-.29-.33-.39-.47-.39-.56,0-.07.03-.13.13-.24.95-.98,1.74-1.91,2.87-3.32l.03-1.27Z"/>
        <path d="M55.35,118.55c-.69,0-1.79.23-2.54.51-1.59.61-2.64,1.74-2.64,2.83,0,.69.45,1.15,1.35,1.38.41.1,1.11.18,1.6.17h.15c.25,0,.34.09.34.28,0,.5-.09,1.19-.17,1.38-.06.12-.13.16-.29.16-.91,0-2.07-.24-2.85-.6-1.16-.51-1.79-1.39-1.79-2.5,0-.71.27-1.42.78-2.07.29-.34.51-.55,1.05-.93-2.73.83-4.09,1.35-5.01,1.95-.12.08-.19.1-.27.1-.17,0-.3-.13-.51-.51-.21-.34-.36-.76-.36-.99,0-.14.06-.18.42-.29.34-.11.58-.25,1.16-.66.69-.51,1.77-1.44,2.7-2.33.77-.73,1.2-1.18,2.1-2.23-.87.1-3.23.51-3.57.6-.21.06-.22.06-.27.06-.14,0-.2-.06-.25-.21-.12-.33-.23-.88-.3-1.51.21.01.32.01.45.01.67,0,2.13-.12,3.93-.34.67-.08,1.07-.17,1.33-.3.17-.08.2-.09.29-.09.25,0,.36.09.99.83.18.22.27.4.27.55s-.06.22-.25.36q-.25.16-1.53,1.35c-1.02.95-2.29,2.01-3.65,3.09,2.12-.63,3.22-.93,5.52-1.44.51-.1,1.01-.24,1.58-.42.08-.03.13-.04.18-.04.12,0,.18.06.26.2.17.34.36,1.08.36,1.35,0,.21-.06.3-.22.3h-.34ZM54.78,115.48c-.24-.39-.66-.9-.97-1.19-.05-.04-.08-.09-.08-.13,0-.13.6-.62.76-.62.11,0,.25.12.6.47.54.55.9,1.03.9,1.18,0,.08-.06.15-.21.29-.41.34-.53.43-.64.43-.09,0-.11-.01-.36-.43ZM56.64,113.05c.45.45.84.97.84,1.11,0,.11-.09.2-.39.42-.24.17-.38.24-.45.24-.04,0-.09-.04-.15-.13-.36-.57-.86-1.19-1.12-1.41-.08-.06-.09-.09-.09-.13,0-.13.57-.56.76-.56.11,0,.29.15.6.47Z"/>
        <path d="M61.25,116.51c-.67.13-1.32.3-1.74.45-.11.04-.2.06-.27.06-.13,0-.21-.08-.3-.33-.11-.33-.21-.86-.27-1.38.22.01.33.03.46.03.57,0,1.18-.08,2.13-.26l.03-.9c.02-.21.02-.36.02-.41,0-.64-.02-1.04-.08-1.44.79.03,1.29.09,1.77.21.2.04.29.13.29.27,0,.06-.01.11-.09.27-.13.28-.15.46-.25,1.71.33.22.62.54.62.69,0,.09-.04.17-.18.33-.22.24-.3.34-.58.76q-.03.39-.03.5c.5-.43.82-.72,1.33-1.09.57-.43,1.2-.84,1.65-1.06.58-.32.99-.42,1.53-.42.79,0,1.37.3,1.68.87.18.36.25.71.25,1.29,0,.51-.03.99-.12,2.08-.12,1.29-.18,2.25-.18,2.83s.13.76.55.76c.6,0,1.33-.43,1.98-1.17.01.58.06.77.25,1.37.04.12.06.2.06.25,0,.17-.08.3-.33.5-.61.5-1.5.81-2.29.81-1.32,0-1.92-.69-1.92-2.2,0-.69.04-1.58.2-3.67.04-.5.06-.92.06-1.12,0-.62-.21-.9-.66-.9s-1.33.48-2.52,1.39c-.6.45-.94.77-1.57,1.41v.69c0,1.12.07,3.72.13,4.63v.18c0,.12-.02.17-.04.21-.08.09-.51.15-1.2.15-.43,0-.53-.06-.53-.32,0-.09,0-.24.02-.4v-.35q.01-.52.08-3.38-.86,1.11-1.37,1.94c-.13.21-.23.29-.34.29s-.39-.24-.86-.75c-.29-.33-.39-.47-.39-.56,0-.07.03-.13.13-.24.95-.98,1.74-1.91,2.87-3.32l.03-1.27Z"/>
        <path d="M77.14,118.94c-.68,2.05-1.58,3.61-2.96,5.16-.42-.48-.75-.73-1.38-1.08,1.24-1.12,2.26-2.83,2.76-4.63l1.58.55ZM74.78,117.53c-.72,0-1.18.03-1.72.09v-1.72c.51.08.88.09,1.75.09h9.13c.78,0,1.24-.03,1.75-.09v1.72c-.54-.06-1-.09-1.73-.09h-3.63v5.8c0,.83-.1,1.16-.48,1.4-.32.21-.74.27-1.71.27-.6,0-1.14-.01-1.63-.06-.06-.69-.15-1.04-.41-1.61.69.11,1.29.17,1.82.17.67,0,.73-.03.73-.36v-5.61h-3.88ZM84.29,114.23c-.51-.06-1.09-.09-1.75-.09h-6.43c-.54,0-1.16.03-1.71.09v-1.63c.52.06,1,.09,1.74.09h6.44c.64,0,1.21-.03,1.72-.09v1.63ZM83.19,118.39c.48,1.23.87,1.95,1.59,2.94.46.62.75.95,1.36,1.53-.51.39-.85.72-1.32,1.23-1.58-1.88-2.17-2.87-3.11-5.14l1.47-.55Z"/>
        <path d="M93.7,115.88c-3.29.21-4.56.34-5.51.6-.06.01-.12.03-.17.03-.11,0-.2-.08-.24-.2-.13-.38-.21-.87-.25-1.62h.36c.48,0,.93-.01,2.37-.1,1.11-.06,2.05-.11,3.4-.15-.01-1.35-.03-1.56-.16-2.24,1.15.03,1.74.08,1.95.17.09.04.13.12.13.27,0,.03-.01.09-.04.17-.13.33-.18.66-.21,1.59,2.19-.06,2.52-.06,4.02-.06.4,0,.46,0,.51.05.06.06.09.28.09.79,0,.69-.02.76-.21.76h-.06c-.64-.06-2.25-.12-3.3-.12q-.34,0-1.09.01l-.03,2.46c.23.5.3.92.3,1.64,0,1.87-.69,3.31-2.14,4.38-.6.45-1.37.84-1.63.84-.13,0-.21-.04-.33-.17-.42-.48-.74-.72-1.28-1.02.9-.25,1.37-.46,1.95-.83.44-.28.83-.6,1.11-.91.19-.24.34-.47.57-.95-.43.45-.79.62-1.35.62-1.26,0-2.08-.96-2.08-2.42,0-1.53.97-2.64,2.32-2.64.44,0,.71.06,1.01.19v-1.15ZM91.88,119.39c0,.63.36,1.06.9,1.06.57,0,.92-.41.92-1.09s-.33-1.11-.9-1.11c-.54,0-.92.46-.92,1.14Z"/>
        <path d="M112.67,120.28c-.38.39-.66.78-.95,1.35-1.52-1-2.76-2.31-3.46-3.64-.21.51-.42.93-.71,1.35-.68,1.04-1.44,1.74-2.71,2.55-.22-.39-.53-.79-.93-1.2v2.79c0,.87.01,1.32.07,1.71h-1.79c.08-.5.11-1.03.11-1.74v-8.21c0-.58-.02-1.02-.06-1.38.53.04.92.06,1.67.06h3.53c.01-.34.03-.55.03-.76,0-.6-.03-.9-.11-1.27h1.8c-.04.25-.06.39-.08.72q-.01.19-.04.79-.01.33-.03.52h3.67c.79,0,1.14-.01,1.65-.06-.04.36-.06.79-.06,1.39v8.24c0,.6-.04.82-.22,1.04-.31.39-.82.51-2.19.51-.38,0-.82-.02-1.39-.04-.11-.72-.2-1.07-.45-1.64.72.12,1.32.17,1.88.17.71,0,.78-.04.78-.46v-2.77ZM103.91,120.52c1.15-.71,1.81-1.31,2.38-2.18.53-.79.84-1.72,1.02-2.98h-3.4v5.16ZM108.89,115.36c-.04.36-.06.43-.1.69.4.89.97,1.73,1.62,2.39.63.64,1.26,1.12,2.27,1.69v-4.77h-3.78Z"/>
        <path d="M118.38,121.16c-.57.33-.82.46-1.54.81-.21-.61-.36-.9-.73-1.39,1.29-.53,2.34-1.08,3.25-1.68.62-.41,1.3-.96,1.92-1.54.33-.33.46-.5.72-.87h1.47c1.02,1.56,3.2,2.98,6,3.93-.38.57-.46.78-.73,1.54-.69-.3-.86-.39-1.65-.81v2.68c0,.6.03.97.09,1.42h-1.62v-.62h-5.64v.62h-1.62c.06-.45.09-.87.09-1.44v-2.66ZM121.79,112.81c0-.36-.03-.62-.07-.92h1.75c-.06.3-.07.54-.07.9v.2h4c.57,0,1.07-.01,1.59-.06-.05.31-.06.66-.06,1.06v1.05c0,.44.01.72.06,1.08h-1.56v-1.68h-9.36v1.68h-1.56c.04-.36.06-.66.06-1.08v-1.05c0-.39-.02-.73-.06-1.06.53.04,1.02.06,1.59.06h3.69v-.18ZM121.71,115.34c-.75.87-1.15,1.26-2.01,1.89-.72.55-1.12.81-2.04,1.26-.34-.53-.54-.75-1.04-1.21.87-.34,1.29-.57,1.88-.96.77-.5,1.19-.87,1.92-1.72l1.29.75ZM119.91,123.19h5.64v-1.85h-5.64v1.85ZM125.16,119.96c-1.11-.79-1.61-1.26-2.4-2.23-.73.88-1.57,1.63-2.47,2.23h4.88ZM124.87,114.53c1.44,1.41,2.26,1.94,4.06,2.59-.33.48-.44.66-.77,1.35-2.03-.86-2.82-1.41-4.5-3.11l1.2-.84Z"/>
        <path d="M132.04,117.88c-.12.03-.18.06-.27.11-.08.04-.12.06-.18.06-.33,0-.57-.57-.75-1.68h.29c.63,0,2.24-.2,3.2-.39.31-1.31.48-2.31.48-3.02,0-.06,0-.15-.02-.25.64.06,1.26.2,1.68.38.24.09.36.21.36.36,0,.08-.02.13-.09.25q-.23.39-.69,2.04c.36-.04.77-.08,1.02-.08.62,0,1.1.12,1.44.36.6.43.9,1.32.9,2.68,0,2.24-.41,4.16-1.1,5.1-.48.66-1.11.98-2,.98-.54,0-1.05-.08-1.2-.17q-.12-.08-.16-.63c-.04-.41-.13-.77-.32-1.19.78.27.98.32,1.46.32.72,0,1.02-.35,1.35-1.56.23-.79.35-1.81.35-2.92,0-1.17-.29-1.59-1.08-1.59-.27,0-.71.04-1.05.09-.04.18-.06.2-.12.39-.42,1.54-1.19,3.55-1.95,5.17-.79,1.63-.99,1.96-1.19,1.96-.12,0-.53-.21-.96-.5-.35-.21-.44-.3-.44-.42q0-.08.62-1.05c.82-1.28,1.9-3.77,2.28-5.25-1.11.25-1.72.39-1.86.43ZM141.45,114.8c-.24.18-.41.25-.48.25-.04,0-.09-.03-.13-.11-.32-.51-.84-1.09-1.28-1.47-.03-.03-.04-.06-.04-.09,0-.06.11-.17.36-.36.26-.18.33-.22.44-.22.24,0,1.56,1.33,1.56,1.58,0,.09-.12.19-.42.42ZM139.87,116.39c0-.11.13-.24.57-.58.3-.23.45-.32.57-.32.2,0,.87.72,1.5,1.61.53.75,1.1,1.81,1.1,2.07,0,.15-.04.2-.53.58-.3.24-.64.44-.77.44-.1,0-.15-.04-.25-.3-.29-.72-.54-1.21-.95-1.86-.4-.65-.44-.67-1.15-1.46-.06-.08-.09-.12-.09-.18ZM141.83,111.79c.25,0,1.53,1.28,1.53,1.53,0,.08-.09.17-.39.38-.27.21-.4.29-.46.29q-.07,0-.38-.42c-.25-.34-.73-.86-1-1.08-.04-.04-.08-.08-.08-.12,0-.12.62-.57.78-.57Z"/>
        <path d="M145.08,117.44c.39.06.65.08,1.16.08h1.08c.48,0,.76-.02,1.09-.06-.04.39-.06.71-.06,1.56v3.1c.24.53.58.85,1.15,1.09.49.21,1.39.3,2.98.3,2.7,0,4.14-.06,6.09-.25-.16.39-.27.78-.44,1.62-1.35.04-3.4.09-4.89.09-2.01,0-3.2-.09-3.83-.29-.73-.22-1.29-.63-1.83-1.33q-.78.72-2.1,1.73l-.71-1.63c.57-.23,1.34-.77,2.04-1.41v-3.11h-.78c-.41,0-.59.02-.98.08v-1.56ZM150.81,114.53q.22-.39.35-.63h-.57c-.46,0-.75.01-1.11.04v-1.29c.4.06.72.08,1.32.08h.92c.18-.43.24-.58.33-.96l1.57.17c-.04.09-.15.36-.33.79h2.07c.68,0,.99-.01,1.46-.06-.04.42-.06.76-.06,1.38v.48h.35c.48,0,.76-.01,1.11-.08v1.32c-.4-.04-.73-.06-1.3-.06h-7c-.72,0-.95.01-1.38.06v-.85l-1.02.96c-1.01-1.33-1.39-1.76-2.42-2.66l1.16-1.08c1.05.93,1.59,1.47,2.28,2.34h0c.3.03.51.04,1.19.04h1.11ZM150.75,118.76c-.42,0-.79.01-1.09.03.03-.34.04-.55.04-1.06v-.53c0-.45-.02-.76-.04-1.02.27.01.52.03,1.08.03h5.41c.6,0,.84-.01,1.1-.04q-.02.14-.03.35c-.01.12-.01.39-.01.67v.55c0,.13.01.48.04,1.04q-.63-.01-1.07-.01h-1.09v.51h1.33c.69,0,.95-.02,1.26-.06v1.25c-.4-.04-.67-.06-1.24-.06h-1.35v.69h1.72c.6,0,.95-.01,1.3-.08v1.31c-.35-.03-.69-.04-1.33-.04h-1.7c.01.43.03.63.09.94h-1.67c.06-.36.06-.51.08-.94h-3.51c-.6,0-.9.01-1.21.04v-1.28c.25.03.48.04.99.04h.36v-.69c-.51,0-.71.01-1.01.04v-1.23c.3.04.54.06,1.2.06h3.19v-.51h-2.85ZM151.16,117.8h4.54v-.63h-4.54v.63ZM151.68,121.09h1.92v-.69h-1.92v.69ZM155.27,114.53v-.63h-2.51q-.12.24-.33.63h2.84Z"/>
        <path d="M163.14,117.52c1.89-.53,3.26-.77,4.28-.77,2.12,0,3.42,1.16,3.42,3.03,0,1.12-.46,2.12-1.35,2.87-.59.49-1.46.92-2.61,1.26-.64.18-1.33.31-1.63.31-.18,0-.27-.04-.33-.19-.21-.53-.45-.9-.76-1.21,3.3-.35,4.98-1.4,4.98-3.11,0-.87-.72-1.54-1.65-1.54-1.62,0-3.39.54-5.25,1.58-.15.08-.24.12-.3.12-.26,0-.68-.75-1.02-1.83.73-.11.99-.17,2.23-.51Z"/>
        <path d="M176.62,116.09c-.39.09-.53.13-1.07.33-.19.08-.3.11-.39.11-.33,0-.63-.62-.9-1.91.96-.04,1.3-.09,2.97-.34,1.8-.27,4.08-.62,5.28-.76,1.35-.18,2.43-.36,3-.48.1-.03.15-.03.22-.03.2,0,.27.09.4.46.12.31.21.76.21.97,0,.18-.06.24-.27.24-.32,0-.6.03-.89.08-2.53.42-4.56,2.64-4.56,4.98,0,1.75,1.38,2.91,3.72,3.12.21.01.29.09.29.27,0,.38-.15,1.09-.29,1.42-.07.17-.19.24-.39.24s-.65-.09-1.11-.22c-2.55-.75-3.88-2.37-3.88-4.67,0-1.25.41-2.4,1.19-3.39.42-.54.78-.84,1.63-1.43-1.96.33-4.04.72-5.17,1.01Z"/>
        <path d="M189.44,115.15c0-.44-.02-1.02-.04-1.35.69.07,1.2.18,1.61.33.36.14.48.23.48.39q0,.09-.06.24c-.2.51-.26,1.08-.26,2.44,0,1.92.12,3.12.42,4.04.22.71.57,1.11.97,1.11.62,0,1.12-.72,1.68-2.38.28.77.39.99.81,1.53.08.1.12.21.12.31,0,.24-.22.75-.53,1.19-.59.85-1.34,1.32-2.13,1.32-1.15,0-2.02-.93-2.56-2.77-.34-1.2-.51-2.71-.51-4.81v-1.58ZM198.36,115.39c.09,0,.17.04.29.15.75.72,1.53,1.92,2.03,3.09.33.79.64,1.86.64,2.17,0,.15-.07.23-.39.39-.35.18-1.05.42-1.23.42-.13,0-.2-.08-.24-.34-.2-1.16-.46-2-.93-2.97-.42-.87-.45-.92-1.47-2.17.63-.46,1.12-.73,1.3-.73Z"/>
        <path d="M205.54,116.09c-.39.09-.53.13-1.06.33-.2.08-.3.11-.39.11-.33,0-.63-.62-.9-1.91.96-.04,1.31-.09,2.97-.34,1.8-.27,4.08-.62,5.28-.76,1.35-.18,2.43-.36,3-.48.11-.03.15-.03.22-.03.2,0,.27.09.41.46.12.31.21.76.21.97,0,.18-.06.24-.27.24-.31,0-.6.03-.88.08-2.54.42-4.56,2.64-4.56,4.98,0,1.75,1.38,2.91,3.72,3.12.21.01.29.09.29.27,0,.38-.15,1.09-.29,1.42-.08.17-.2.24-.39.24s-.64-.09-1.11-.22c-2.55-.75-3.88-2.37-3.88-4.67,0-1.25.4-2.4,1.19-3.39.42-.54.78-.84,1.63-1.43-1.96.33-4.04.72-5.18,1.01Z"/>
        <path d="M228.7,120.08h.33c.58,0,.96-.03,1.23-.08v1.49c-.3-.04-.68-.06-1.23-.06h-.33v1.73h.57c.78,0,1.04-.02,1.41-.08v1.53c-.42-.04-.77-.06-1.44-.06h-3.27v.69h-1.53c.06-.36.07-.67.07-1.46v-6.79c-.15.2-.18.24-.38.46-.13-.4-.21-.57-.38-.87v1.33c0,.24.02.5.03.65q-.18-.02-.87-.03h-1.44v.38q-.02.15-.02.27h1.28c.54,0,.71-.02,1.01-.05v1.22c-.32-.03-.51-.04-1.01-.04h-1.35c-.04.39-.04.46-.08.73h1.67c.54,0,.72-.01,1-.04v1.26c-.28-.03-.52-.04-1.02-.04h-1.17c.62.6,1.1.92,2.1,1.37-.36.52-.52.83-.69,1.29-1.05-.54-1.75-1.11-2.46-1.96-.56,1.06-1.26,1.71-2.62,2.35-.21-.43-.53-.92-.84-1.27.81-.3,1.09-.47,1.51-.83.35-.3.55-.55.75-.95h-1.08c-.46,0-.75.02-1.08.06v-1.29c.3.04.59.06,1.08.06h1.47c.06-.3.07-.39.11-.73h-1.3c-.48,0-.78.01-1.08.06v-1.25c.31.04.58.06,1.08.06h1.39q.01-.15.03-.65h-1.52c-.51,0-.67,0-.9.03.01-.32.03-.48.03-.75v-1.72c0-.27-.02-.44-.03-.75.25.03.34.03.9.03h4.34c.39,0,.51,0,.81-.03-.02.12-.02.15-.03.3.75-.98,1.38-2.48,1.63-3.81l1.5.38c-.09.18-.12.27-.29.78-.13.38-.31.86-.54,1.37h1.15c.48-.92.71-1.53.9-2.42l1.43.33c-.39,1.06-.53,1.37-.9,2.08h.4c.69,0,1.05-.02,1.46-.08v1.49c-.33-.04-.82-.06-1.46-.06h-.36v1.47h.36c.59,0,.93-.03,1.21-.07v1.48c-.29-.06-.66-.08-1.21-.08h-.36v1.58ZM218.84,112.84c0-.35-.01-.57-.06-.84h1.5c-.03.2-.04.42-.04.84v.15h1.17v-.15c0-.41,0-.58-.04-.84h1.5c-.04.21-.06.41-.06.83v.17c.64,0,.91-.01,1.29-.06v1.39c-.3-.04-.73-.06-1.29-.06.01.54.01.55.03.82h-1.44c.02-.25.02-.3.02-.82h-1.17c0,.48,0,.58.01.82h-1.44c.02-.24.03-.39.03-.82h-.25c-.59,0-.88.01-1.2.06v-1.41c.29.06.63.08,1.21.08h.24v-.15ZM219.02,116.44v1.02h1.16v-1.02h-1.16ZM221.51,117.46h1.1v-1.02h-1.1v1.02ZM227.29,115.7h-1.32v1.47h1.32v-1.47ZM225.96,118.51v1.58h1.32v-1.58h-1.32ZM225.96,123.16h1.32v-1.73h-1.32v1.73Z"/>
        <path d="M236.78,112.64c.37.1.48.18.48.34,0,.11-.01.15-.09.36-.16.43-.29,1.2-.34,2.25-.12,2.42-.18,4.29-.18,5.77,0,.48.04.84.12,1.08.16.5.69.75,1.53.75,1.35,0,2.62-.55,3.79-1.65.54-.51.87-.92,1.43-1.74.09.48.21.79.54,1.47.04.12.08.21.08.34,0,.27-.29.63-1.04,1.3-1.49,1.33-3.13,2.03-4.86,2.03-1.14,0-1.98-.29-2.52-.83-.57-.6-.79-1.38-.79-2.86,0-1.17.02-2.07.13-5.57.02-.52.03-.84.03-.97,0-1.28-.02-1.65-.11-2.29.77.03,1.35.09,1.8.21Z"/>
        <path d="M15.92,140.66c0-.44-.02-1.02-.04-1.35.69.07,1.2.18,1.6.33.36.14.48.23.48.39q0,.09-.06.24c-.2.51-.25,1.08-.25,2.44,0,1.92.12,3.12.42,4.04.22.71.57,1.11.97,1.11.62,0,1.12-.72,1.68-2.38.28.77.39.99.81,1.53.08.1.12.21.12.31,0,.24-.22.75-.53,1.19-.58.85-1.33,1.32-2.13,1.32-1.15,0-2.02-.93-2.56-2.77-.34-1.2-.51-2.71-.51-4.81v-1.58ZM24.84,140.9c.09,0,.17.04.29.15.75.72,1.53,1.92,2.03,3.09.33.79.64,1.86.64,2.17,0,.15-.08.23-.39.39-.34.18-1.05.42-1.23.42-.13,0-.19-.08-.24-.34-.2-1.16-.46-2-.93-2.97-.42-.87-.45-.92-1.47-2.17.63-.46,1.12-.73,1.3-.73Z"/>
        <path d="M31.02,143.06c-.12.03-.18.06-.27.11-.08.04-.12.06-.2.06-.32,0-.55-.58-.74-1.69.12.01.23.01.29.01.63,0,2.24-.2,3.2-.39.31-1.32.48-2.31.48-3.03,0-.06,0-.13-.01-.25.64.08,1.26.21,1.68.38.24.09.36.22.36.38,0,.08-.02.12-.09.24q-.23.4-.69,2.05c.36-.04.76-.08,1.02-.08.62,0,1.1.12,1.44.36.6.43.9,1.32.9,2.68,0,2.24-.41,4.14-1.1,5.08-.48.66-1.11.97-1.99.97-.54,0-1.05-.07-1.2-.17q-.12-.07-.17-.63c-.04-.4-.13-.75-.32-1.17.78.25.98.3,1.46.3.72,0,1.02-.34,1.35-1.54.23-.79.35-1.83.35-2.92,0-1.17-.29-1.59-1.08-1.59-.27,0-.71.03-1.05.09-.04.17-.06.18-.12.39-.42,1.53-1.19,3.55-1.95,5.17-.79,1.63-.99,1.96-1.18,1.96-.12,0-.53-.21-.96-.5-.35-.21-.44-.3-.44-.42q0-.08.62-1.05c.83-1.28,1.91-3.78,2.28-5.25-1.11.24-1.73.39-1.86.43ZM38.67,141.38c0-.1.14-.24.57-.58.3-.22.45-.31.55-.31.09,0,.17.04.36.24.88.86,1.71,2,2.19,2.99.15.33.24.54.24.63,0,.15-.04.2-.52.58-.3.24-.65.43-.77.43-.1,0-.15-.04-.25-.3-.3-.73-.58-1.3-.94-1.86-.39-.6-.47-.69-1.35-1.64-.06-.09-.08-.13-.08-.18Z"/>
        <path d="M52.29,143.09c2.05,0,3.39,1.21,3.39,3.06s-1.12,3.02-3.37,3.74c-.81.25-2.15.5-2.75.5-.32,0-.39-.08-.6-.51-.16-.35-.34-.56-.79-.87,3.77-.3,5.62-1.26,5.62-2.9,0-.92-.64-1.46-1.72-1.46-1.37,0-2.78.71-3.93,1.95-.21.21-.41.46-.54.69-.13.22-.23.3-.36.3-.22,0-.75-.22-1.11-.5-.18-.13-.24-.24-.24-.48q0-.12.04-.48s0-.15.01-.31c.08-.96.12-1.37.3-2.72q.03-.16.14-.87s.04-.33.12-.89c.01-.13.03-.25.03-.49.72.1,1.4.27,1.68.43.12.06.18.13.16.22,0,.06-.03.11-.07.2-.17.25-.21.39-.35.96-.13.57-.34,1.89-.38,2.38,1.53-1.41,2.87-1.96,4.71-1.96ZM52.02,138.82c.58.34.76.51.76.67,0,.13-.24.58-.5.96-.24.34-.33.42-.45.42-.07,0-.12-.03-.3-.17-1-.76-1.8-1.2-2.92-1.59-.22-.09-.27-.12-.27-.24,0-.15.12-.41.39-.79.24-.36.34-.45.51-.45.36,0,1.83.63,2.78,1.19Z"/>
        <path d="M58.68,146.93c.27-.24.34-.3.45-.3.19,0,1.09.66,1.75,1.29.75.69,1.59,1.69,1.59,1.9,0,.14-.03.17-.46.56-.57.52-.69.62-.79.62-.09,0-.18-.06-.25-.21-.53-.93-1.73-2.16-2.79-2.85-.12-.09-.18-.15-.18-.24,0-.1.03-.15.69-.76Z"/>
        <path d="M79,143.12c-.41-.04-.87-.06-1.41-.06h-3.87c-.55,0-.94.02-1.33.06v-1.17c-.9.58-1.59.97-2.73,1.48-.25-.63-.46-1-.84-1.45,1.51-.62,2.68-1.29,3.7-2.13,1.11-.91,1.82-1.68,2.19-2.38h1.79c.63.93,1.46,1.75,2.49,2.52,1.17.87,2.22,1.42,3.63,1.9-.42.56-.54.77-.85,1.59-1.14-.52-1.79-.87-2.76-1.51v1.16ZM81.23,145.4c-.13.15-.45.51-.63.74l-2.77,3.51c-.38.48-.62.83-.92,1.28l-1.65-.92c.38-.34.72-.72,1.09-1.19l2.37-2.91h-6.48c-.57,0-1.16.03-1.79.09v-1.63c.57.06,1.16.09,1.8.09h6.57c.83,0,1.2-.02,1.48-.08l.92,1.02ZM77.69,141.68c.36,0,.54,0,.84-.01-1.29-.93-1.98-1.58-2.9-2.76-.9,1.16-1.57,1.81-2.83,2.76.32.01.48.01.84.01h4.05Z"/>
        <path d="M85.16,139.63c0-.55-.03-1.06-.08-1.54.44.06.92.08,1.61.08h6.97c.69,0,1.12-.01,1.54-.08-.06.54-.07.97-.07,1.49v9.28c0,.74.01,1.21.07,1.75h-1.72v-.87h-6.69v.87h-1.72c.06-.52.09-1.06.09-1.75v-9.22ZM86.8,143.03h6.69v-3.34h-6.69v3.34ZM86.8,148.22h6.69v-3.67h-6.69v3.67Z"/>
        <path d="M102.05,146.68c.04.06.06.11.06.17q0,.09-.25.78c-.32.92-.51,1.67-.57,2.25-.02.19-.08.27-.27.31-.21.06-.61.09-1,.09-.15,0-.22-.03-.27-.12-.13-.28-.38-1.32-.5-2.16-.1-.71-.15-1.44-.15-2.21,0-1.73.2-3.36.74-6.3.09-.48.12-.71.16-1.17.69.09,1.17.22,1.61.43.22.12.31.23.31.36,0,.09-.03.17-.11.29-.61,1.05-1.18,4.29-1.18,6.69,0,.36.01.93.06,1.65.36-.93.52-1.35.85-2.07.11.41.21.6.51,1ZM104.57,142.73c-.72,0-.87-.03-.92-.19-.04-.13-.09-.62-.09-.96,0-.12,0-.24.02-.51.4.03.64.04,1.14.04.81,0,1.32-.02,2.1-.08-.02-1.91-.03-2.15-.18-2.85.74.01,1.29.07,1.77.19.22.06.31.14.31.29,0,.06-.02.11-.06.22-.15.35-.22.93-.25,1.98.55-.08,1.03-.18,1.93-.39.08-.03.11-.03.15-.03.09,0,.13.04.17.15.03.14.07.71.07,1.02,0,.38-.02.43-.17.5-.24.12-.9.22-2.17.39,0,1.04.09,2.75.2,3.72.95.41,1.59.75,2.25,1.21.42.3.51.41.51.51,0,.17-.27.67-.59,1.11-.18.25-.27.33-.38.33s-.1,0-.45-.33c-.33-.33-.68-.58-1.34-1.02v.12c0,1.32-1.09,2.19-2.76,2.19s-2.8-.9-2.8-2.25,1.14-2.35,2.66-2.35c.55,0,.84.01,1.24.08q-.06-1.17-.11-3.18c-.64.04-1.66.09-2.26.09ZM105.8,147.14c-.75,0-1.24.34-1.24.87,0,.48.46.78,1.19.78.79,0,1.21-.36,1.21-1.05,0-.21-.02-.38-.02-.38-.39-.15-.73-.23-1.14-.23Z"/>
        <path d="M118.31,143.08q-.03-.74-.04-1.67c-.13.01-.27.01-.33.01-.99,0-2.26-.1-2.79-.24-.15-.04-.18-.07-.18-.22,0-.33.04-.74.15-1.32.84.17,1.88.27,2.77.27.08,0,.21,0,.38-.01v-.99c0-.53-.01-.76-.04-1.29.75.04,1.26.09,1.62.18.3.06.39.13.39.3,0,.08-.01.11-.12.35-.11.25-.12.31-.18,1.35.9-.1,1.62-.25,2.32-.46.04-.01.06-.01.08-.01.1,0,.1.01.27.49.11.32.21.71.21.83,0,.11-.04.17-.2.21-.49.17-1.78.39-2.73.5,0,1.07,0,1.11.01,1.63,1.05-.13,1.62-.29,2.81-.72.07-.03.1-.04.15-.04.09,0,.12.04.27.41.15.38.29.79.29.94,0,.08-.06.13-.17.18-.82.3-2.32.66-3.27.76.03.57.06.88.15,2.05.84.25,1.18.39,1.83.74.72.36,1.11.61,1.75,1.12.12.09.17.17.17.29,0,.1-.14.36-.42.81-.33.5-.5.69-.6.69-.04,0-.09-.01-.13-.06-.9-.85-1.48-1.28-2.49-1.77-.06.72-.22,1.12-.63,1.5-.51.49-1.37.76-2.43.76-1.85,0-2.98-.81-2.98-2.12,0-.57.24-1.12.64-1.5.58-.54,1.47-.82,2.59-.82.36,0,.68.03,1.05.07-.07-.97-.11-1.32-.12-1.63-.34.01-.54.01-.72.01-1.04,0-2.29-.16-3-.37-.15-.05-.21-.12-.21-.24,0-.23.09-.71.23-1.32.93.23,2.11.36,3.22.36h.43ZM117.28,147.65c-.96,0-1.49.29-1.49.79,0,.45.44.69,1.28.69.97,0,1.43-.34,1.43-1.09v-.25c-.39-.11-.69-.14-1.21-.14Z"/>
        <path d="M133.33,141.61c-3.29.19-4.56.34-5.5.6-.06.01-.12.03-.17.03-.11,0-.2-.08-.24-.2-.13-.38-.21-.87-.25-1.63.18.01.3.01.36.01.48,0,.93-.01,2.37-.1,1.11-.06,2.06-.11,3.41-.17-.02-1.35-.03-1.54-.17-2.24,1.16.03,1.74.09,1.95.18.09.03.13.11.13.26,0,.03-.02.09-.04.17-.13.33-.18.67-.21,1.59,2.19-.04,2.52-.04,4.02-.04.41,0,.46,0,.51.04.06.06.09.28.09.79,0,.69-.02.76-.21.76h-.06c-.64-.08-2.25-.13-3.3-.13q-.35,0-1.1.01l-.03,2.46c.22.51.3.92.3,1.63,0,1.89-.69,3.33-2.14,4.4-.6.45-1.37.84-1.63.84-.13,0-.21-.04-.33-.17-.42-.48-.73-.74-1.28-1.04.9-.25,1.37-.45,1.95-.83.43-.27.82-.6,1.11-.92.2-.22.35-.45.57-.94-.45.46-.79.61-1.35.61-1.26,0-2.09-.96-2.09-2.42,0-1.53.97-2.62,2.33-2.62.43,0,.7.04,1,.18v-1.14ZM131.51,145.1c0,.63.36,1.07.9,1.07.57,0,.91-.41.91-1.08s-.33-1.11-.9-1.11c-.54,0-.91.46-.91,1.12ZM137.24,139.64c-.42-.75-.75-1.2-1.12-1.57-.03-.03-.04-.08-.04-.12,0-.06.14-.2.35-.33q.36-.22.44-.22c.13,0,.34.19.78.73.39.48.64.86.64.98,0,.07-.04.12-.24.28-.24.21-.54.39-.63.39-.07,0-.12-.03-.17-.14ZM139.13,137.18c.42.46.79,1,.79,1.14,0,.1-.09.2-.39.41-.21.13-.39.22-.45.22q-.09,0-.36-.45c-.22-.41-.51-.76-.9-1.17-.03-.03-.04-.09-.04-.12,0-.1.09-.19.33-.33.2-.12.38-.19.45-.19.11,0,.27.13.57.5Z"/>
        <path d="M141.79,146.93c.27-.24.34-.3.45-.3.2,0,1.1.66,1.76,1.29.75.69,1.59,1.69,1.59,1.9,0,.14-.03.17-.46.56-.57.52-.69.62-.79.62-.09,0-.18-.06-.26-.21-.53-.93-1.72-2.16-2.79-2.85-.12-.09-.18-.15-.18-.24,0-.1.03-.15.69-.76Z"/>
        <path d="M154.11,138.62c-.76.39-1.05.75-1.15,1.42.13-.03.27-.04.31-.04.6,0,1.05.48,1.05,1.09,0,.66-.46,1.12-1.11,1.12-.79,0-1.26-.58-1.26-1.59,0-.6.18-1.27.44-1.69.26-.39.59-.68,1.12-.98l.6.66ZM157,138.62c-.77.39-1.05.75-1.16,1.42.13-.03.27-.04.31-.04.6,0,1.05.48,1.05,1.09,0,.66-.46,1.12-1.11,1.12-.79,0-1.26-.58-1.26-1.54,0-1.29.46-2.11,1.56-2.71l.6.66Z"/>
        <path d="M158.97,141.05c1.03.57,1.47.87,2.58,1.82l-.91,1.32c-.96-.94-1.32-1.21-2.6-1.96l.93-1.17ZM161.52,145.97c-.53,1.7-.86,2.52-1.44,3.66-.12.21-.15.27-.33.58q-.09.17-.2.36l-1.38-1.2c.29-.29.45-.51.66-.9.65-1.17.93-1.91,1.37-3.45l1.32.95ZM160.92,140.63c-.83-.92-1.3-1.32-2.34-2l1.04-1.11c.93.63,1.41,1.04,2.29,1.9v-.75c.43.06.84.08,1.56.08h2v-.17c0-.48-.02-.78-.08-1.11h1.71c-.06.31-.07.63-.07,1.12v.15h2.59c.72,0,1.19-.03,1.59-.08v1.53c-.38-.04-.87-.08-1.57-.08h-3.35c-.36.72-.66,1.23-1.12,1.85,1.62-.08,1.67-.08,3.08-.23-.24-.25-.39-.41-.81-.79l1.2-.71c1.04.95,1.79,1.8,2.66,2.96l-1.32.88c-.35-.57-.48-.76-.74-1.12-1.77.21-3.3.33-5.14.42-1.48.08-1.68.08-2.17.14l-.2-1.54c.2.03.79.04,1.53.04h.2c.53-.71.81-1.19,1.12-1.89h-1.11c-.63,0-1.14.03-1.54.08v-.71l-.99,1.12ZM164.26,144.01c-.03.25-.03.33-.06.87-.09,2.23-.2,2.85-.66,3.75-.44.81-.84,1.27-1.86,2.07-.39-.57-.59-.78-1.14-1.17,1.68-1.08,2.21-2.17,2.21-4.59,0-.36-.02-.57-.06-.93h1.57ZM165.16,150.19c.06-.42.09-.85.09-1.39v-3.51c0-.48-.01-.89-.06-1.22h1.59c-.04.36-.06.68-.06,1.2v3.54c0,.55.03,1.02.07,1.38h-1.63ZM169.31,148.76c0,.3.06.36.39.36s.46-.04.51-.2c.06-.21.12-1.05.12-2.04.49.27.81.41,1.32.53-.11,1.9-.17,2.28-.45,2.64-.24.31-.69.43-1.63.43-.86,0-1.28-.1-1.52-.36-.18-.18-.22-.35-.22-.84v-3.98c0-.72-.01-1.03-.06-1.38h1.61c-.04.35-.06.62-.06,1.33v3.5Z"/>
        <path d="M175.63,142.03c-.68.13-1.32.3-1.74.45-.11.04-.2.06-.27.06-.13,0-.21-.08-.3-.33-.11-.33-.21-.86-.27-1.38.22.01.33.03.46.03.57,0,1.19-.08,2.13-.26l.03-.9c.02-.21.02-.36.02-.41,0-.64-.02-1.04-.08-1.44.79.03,1.29.09,1.77.21.2.04.29.13.29.27,0,.06-.01.11-.09.27-.13.28-.15.46-.25,1.71.33.22.62.54.62.69,0,.09-.04.17-.18.33-.22.24-.3.34-.58.76q-.03.39-.03.5c.49-.43.82-.72,1.33-1.09.57-.43,1.2-.84,1.65-1.06.58-.32.99-.42,1.53-.42.79,0,1.37.3,1.68.87.18.36.26.71.26,1.29,0,.51-.03.99-.12,2.08-.12,1.29-.18,2.25-.18,2.83s.13.76.55.76c.6,0,1.34-.43,1.98-1.17.02.58.06.77.26,1.37.04.12.06.2.06.25,0,.17-.07.3-.33.5-.61.5-1.5.81-2.29.81-1.32,0-1.92-.69-1.92-2.2,0-.69.04-1.58.2-3.67.04-.5.06-.92.06-1.12,0-.62-.21-.9-.66-.9s-1.33.48-2.52,1.39c-.6.45-.95.77-1.57,1.41v.69c0,1.12.07,3.72.13,4.63v.18c0,.12-.02.17-.04.21-.08.09-.51.15-1.2.15-.43,0-.53-.06-.53-.32,0-.09,0-.24.02-.4v-.35q.02-.52.08-3.38-.86,1.11-1.37,1.94c-.13.21-.23.29-.35.29s-.39-.24-.86-.75c-.29-.33-.39-.47-.39-.56,0-.07.03-.13.13-.24.95-.98,1.74-1.91,2.87-3.32l.03-1.27Z"/>
        <path d="M193.59,146.11c-1.48.87-1.91,1.31-1.91,1.96,0,.27.11.45.33.58.33.2,1.07.3,2.01.3.81,0,1.93-.08,2.7-.18.31-.04.49-.09,1.09-.24h.08c.11,0,.18.07.22.18.09.31.15.76.15,1.3,0,.23-.08.32-.27.36-.36.08-2.03.17-3.12.17-1.83,0-2.8-.12-3.52-.42-.87-.36-1.31-1.04-1.31-1.98,0-.87.41-1.63,1.21-2.28.65-.51.79-.62,2.18-1.4-.12-.5-.35-.71-.81-.71-.62,0-1.26.24-1.96.71-.43.3-.95.72-1.26,1.04-.45.46-.49.5-.62.5-.15,0-.46-.34-.78-.87-.15-.25-.24-.45-.24-.55,0-.14.03-.17.39-.39,1.23-.82,2.25-1.88,2.87-2.95-1.07.07-1.62.09-2.21.09-.23,0-.27-.04-.35-.3-.04-.2-.12-.99-.13-1.4.51.08.81.09,1.53.09.59,0,1.23-.01,1.91-.04.31-.85.42-1.39.43-2.1,1.34.22,1.95.45,1.95.71,0,.06-.02.09-.06.18-.11.2-.22.43-.42.9q-.03.06-.04.1c.86-.12,1.61-.27,2.13-.39.33-.09.41-.11.48-.11.12,0,.18.04.21.14.06.27.15.96.15,1.17,0,.17-.06.24-.25.28-.48.14-2.13.39-3.51.53-.45.83-.77,1.3-1.23,1.81.68-.31,1.19-.43,1.79-.43.68,0,1.12.39,1.43,1.23,1.48-.81,2.28-1.24,2.37-1.3.69-.4.97-.63,1.3-1,.62.63,1.28,1.58,1.28,1.83,0,.09-.06.15-.26.2-.73.19-2.1.78-4.38,1.89.01.27.04.96.04,1.44v.72c0,.18-.03.27-.11.31-.07.08-.48.12-.93.12-.51,0-.6-.04-.6-.29v-.06c.03-.44.04-1,.04-1.37v-.08Z"/>
        <path d="M204.61,140.78c2.49-.71,3.78-.93,5.19-.93,1.51,0,2.7.41,3.49,1.19.66.67,1.02,1.6,1.02,2.7,0,1.92-1.03,3.54-2.83,4.47-.96.48-1.94.81-3.27,1.06-.59.12-.88.17-1.11.17-.18,0-.27-.06-.36-.22-.34-.69-.48-.9-.93-1.37,2.23-.27,3.45-.57,4.62-1.16,1.28-.63,1.98-1.67,1.98-2.92,0-1.41-.96-2.32-2.43-2.32-1.79,0-3.77.51-6.04,1.56-.4.18-.62.29-.77.38-.27.15-.34.18-.43.18-.29,0-.79-.92-1.14-2.07.69-.09,1.38-.25,3.02-.71Z"/>
        <path d="M217.7,143.06c-.12.03-.18.06-.27.11-.07.04-.12.06-.2.06-.31,0-.55-.58-.73-1.69.12.01.22.01.29.01.63,0,2.23-.2,3.2-.39.31-1.32.48-2.31.48-3.03,0-.06,0-.13-.01-.25.64.08,1.26.21,1.68.38.24.09.36.22.36.38,0,.08-.02.12-.09.24q-.22.4-.69,2.05c.36-.04.76-.08,1.02-.08.62,0,1.1.12,1.44.36.6.43.9,1.32.9,2.68,0,2.24-.4,4.14-1.1,5.08-.48.66-1.11.97-1.99.97-.54,0-1.05-.07-1.2-.17q-.12-.07-.17-.63c-.04-.4-.13-.75-.31-1.17.78.25.97.3,1.46.3.72,0,1.02-.34,1.35-1.54.22-.79.35-1.83.35-2.92,0-1.17-.29-1.59-1.08-1.59-.27,0-.71.03-1.05.09-.04.17-.06.18-.12.39-.42,1.53-1.19,3.55-1.95,5.17-.79,1.63-.99,1.96-1.18,1.96-.12,0-.53-.21-.96-.5-.35-.21-.44-.3-.44-.42q0-.08.62-1.05c.83-1.28,1.91-3.78,2.28-5.25-1.11.24-1.73.39-1.86.43ZM225.36,141.38c0-.1.13-.24.57-.58.3-.22.45-.31.55-.31.09,0,.16.04.36.24.88.86,1.71,2,2.19,2.99.15.33.24.54.24.63,0,.15-.04.2-.52.58-.3.24-.65.43-.77.43-.11,0-.15-.04-.26-.3-.3-.73-.58-1.3-.94-1.86-.39-.6-.47-.69-1.35-1.64-.06-.09-.07-.13-.07-.18Z"/>
        <path d="M233.91,139.55c0-.6-.04-1.18-.13-1.71.72.03,1.29.09,1.69.18.29.06.36.12.36.28,0,.08-.02.12-.08.29-.12.29-.15.42-.2,1.21.71-.1,1.26-.21,2-.38.09-.03.12-.03.16-.03.11,0,.15.03.18.13.06.15.12.75.12,1.04,0,.22-.04.33-.17.38-.29.12-1.41.31-2.35.4-.03.83-.04,1.26-.08,2.42.17.58.21.84.21,1.25,0,1.12-.22,1.68-.99,2.42-.09.18-.12.29-.12.42,0,.24.04.42.15.53.22.25.9.39,2.07.39,1.3,0,2.32-.18,2.79-.48.36-.24.52-.69.52-1.36,0-.44-.04-.74-.16-1.35.79.36.87.38,1.54.48.18.03.25.06.29.13.06.11.12.63.12,1.05,0,1.04-.24,1.74-.72,2.22-.41.38-1.02.65-1.77.77-.6.1-1.68.18-2.44.18-1.54,0-2.71-.21-3.26-.6-.49-.36-.71-.77-.71-1.38,0-.33.03-.62.11-.9-1.05-.03-1.79-1-1.79-2.42,0-1.5.86-2.55,2.05-2.55.26,0,.39.02.54.08.01-.42.01-.79.01-1.14-.46.04-1.38.07-2.02.07-.47,0-.6-.04-.69-.19-.07-.17-.13-.62-.13-1.04v-.39c.46.04.69.06,1.23.06.51,0,1.12-.01,1.65-.04v-.41ZM232.7,145.06c0,.63.29,1.04.71,1.04.46,0,.77-.45.77-1.14s-.21-.96-.69-.96-.78.4-.78,1.06ZM240.04,140.59c.21-.27.24-.3.34-.3.15,0,.66.2,1.05.39.75.41,1.66,1.16,2.19,1.8.09.11.12.18.12.24,0,.13-.09.3-.41.67-.3.35-.51.53-.62.53-.09,0-.15-.04-.27-.18-.79-.99-1.61-1.62-2.74-2.16-.11-.04-.15-.11-.15-.18,0-.09.24-.5.48-.81Z"/>
        <path d="M244.93,141.65c.77-.39,1.06-.75,1.15-1.43-.13.03-.25.05-.3.05-.6,0-1.07-.48-1.07-1.1,0-.66.47-1.12,1.11-1.12.79,0,1.26.57,1.26,1.54,0,1.29-.46,2.12-1.56,2.71l-.6-.66ZM247.83,141.65c.77-.39,1.06-.75,1.16-1.43-.14.03-.26.05-.3.05-.6,0-1.06-.48-1.06-1.1,0-.66.46-1.12,1.11-1.12.79,0,1.26.57,1.26,1.54,0,1.29-.46,2.12-1.56,2.71l-.6-.66Z"/>
        <path d="M19.46,168.02c-.19-.66-.25-1.06-.43-2.91-.06-.72-.12-1.08-.27-1.59.91.02,1.5.06,1.9.17.23.06.33.17.33.33,0,.06-.01.13-.04.25-.1.36-.15.63-.15,1.02,0,.73.15,1.93.32,2.46.09.28.18.39.34.39.36,0,1.68-.69,2.4-1.25.19-.15.22-.17.3-.17.13,0,.27.11.5.39.38.51.67,1.06.67,1.27,0,.17-.11.27-.36.34-.93.25-2.46.86-3.49,1.35-1.83.9-2.66,1.72-2.66,2.65s.76,1.29,2.7,1.29c1.12,0,2.14-.1,3.52-.33.06-.01.17-.03.2-.03.12,0,.19.06.25.18.04.15.15,1.06.15,1.42,0,.21-.06.29-.26.34-.33.08-2.14.18-3.28.18-1.92,0-3.2-.25-3.99-.79-.67-.47-1.04-1.2-1.04-2.1,0-.69.2-1.3.6-1.9.52-.78,1.09-1.28,2.35-2.03-.31-.29-.43-.5-.57-.96Z"/>
        <path d="M36.52,173.34c1.23,0,2.59-.18,3.94-.53.08-.03.12-.03.17-.03.09,0,.13.06.17.2.04.33.08.81.08,1.3,0,.3-.03.39-.17.45-.45.24-2.47.46-4.21.46-2.26,0-3.55-.38-4.59-1.35-.5-.46-.99-1.28-.99-1.61,0-.22.13-.31,1.37-1.02.54,1.49,1.79,2.12,4.25,2.12ZM36.65,164.72c.87,0,1.38-.03,2.4-.18h.11c.12,0,.17.04.2.13.03.18.06.63.06,1.17,0,.34-.03.46-.12.53-.12.07-1.42.17-2.43.17-1.33,0-2.45-.11-3.69-.35-.85-.17-.9-.21-.9-.73,0-.35.03-.92.08-1.33,1.3.4,2.73.6,4.3.6Z"/>
        <path d="M50.33,168.59c.58-.24,1.37-.39,1.91-.39,2.29,0,3.79,1.32,3.79,3.32,0,1.37-.71,2.59-1.91,3.36-.97.6-2.77,1.07-4.2,1.07q-.45,0-.58-.41c-.12-.36-.36-.73-.66-1.04,2.05-.12,2.7-.22,3.64-.64,1.25-.53,1.89-1.35,1.89-2.37,0-1.14-.83-1.92-2.05-1.92-1.62,0-3.51.9-5.13,2.45-.22.22-.34.34-.85.96-.14.18-.24.24-.33.24-.27,0-1.23-1.08-1.23-1.39,0-.09.03-.13.25-.33,1.08-.95,3.78-3.81,5.7-6.06-1.49.18-2.76.41-3.33.6-.27.11-.34.12-.41.12-.13,0-.19-.08-.28-.34-.15-.41-.27-1-.33-1.59.19.03.34.04.58.04,1.46,0,4.56-.36,5.08-.6.18-.08.24-.09.33-.09.26,0,.54.23.96.75.27.32.38.5.38.6,0,.15-.09.25-.31.38-.2.12-.34.22-.55.4-.33.26-.45.38-1.5,1.4q-1.37,1.33-2.38,2.29c.81-.48,1.15-.66,1.53-.79Z"/>
        <path d="M59.94,168.57c-.12.03-.18.06-.27.11-.08.04-.12.06-.2.06-.32,0-.55-.58-.74-1.69.12.01.23.01.29.01.63,0,2.24-.2,3.2-.39.31-1.32.48-2.31.48-3.03,0-.06,0-.13-.01-.25.64.08,1.26.21,1.68.38.24.09.36.22.36.38,0,.08-.02.12-.09.24q-.23.4-.69,2.05c.36-.04.76-.08,1.02-.08.62,0,1.1.12,1.44.36.6.43.9,1.32.9,2.68,0,2.24-.41,4.14-1.1,5.08-.48.66-1.11.97-1.99.97-.54,0-1.05-.07-1.2-.17q-.12-.07-.17-.63c-.04-.4-.13-.75-.32-1.17.78.25.98.3,1.46.3.72,0,1.02-.34,1.35-1.54.23-.79.35-1.83.35-2.92,0-1.17-.29-1.59-1.08-1.59-.27,0-.71.03-1.05.09-.04.17-.06.18-.12.39-.42,1.53-1.19,3.55-1.95,5.17-.79,1.63-.99,1.96-1.18,1.96-.12,0-.53-.21-.96-.5-.35-.21-.44-.3-.44-.42q0-.08.62-1.05c.83-1.28,1.91-3.78,2.28-5.25-1.11.24-1.73.39-1.86.43ZM67.59,166.89c0-.1.14-.24.57-.58.3-.22.45-.31.55-.31.09,0,.17.04.36.24.88.86,1.71,2,2.19,2.99.15.33.24.54.24.63,0,.15-.04.2-.52.58-.3.24-.65.43-.77.43-.1,0-.15-.04-.25-.3-.3-.73-.58-1.3-.94-1.86-.39-.6-.47-.69-1.35-1.64-.06-.09-.08-.13-.08-.18Z"/>
        <path d="M81.21,168.6c2.05,0,3.39,1.21,3.39,3.06s-1.12,3.02-3.37,3.74c-.81.25-2.15.5-2.75.5-.32,0-.39-.08-.6-.51-.16-.35-.34-.56-.79-.87,3.77-.3,5.62-1.26,5.62-2.9,0-.92-.64-1.46-1.72-1.46-1.37,0-2.78.71-3.93,1.95-.21.21-.41.46-.54.69-.13.22-.23.3-.36.3-.22,0-.75-.22-1.11-.5-.18-.13-.24-.24-.24-.48q0-.12.04-.48s0-.15.01-.31c.08-.96.12-1.37.3-2.72q.03-.16.14-.87s.04-.33.12-.89c.01-.13.03-.25.03-.49.72.1,1.4.27,1.68.43.12.06.18.13.16.22,0,.06-.03.11-.07.2-.17.25-.21.39-.35.96-.13.57-.34,1.89-.38,2.38,1.53-1.41,2.87-1.96,4.71-1.96ZM80.94,164.33c.58.34.76.51.76.67,0,.13-.24.58-.5.96-.24.34-.33.42-.45.42-.07,0-.12-.03-.3-.17-1-.76-1.8-1.2-2.92-1.59-.22-.09-.27-.12-.27-.24,0-.15.12-.41.39-.79.24-.36.34-.45.51-.45.36,0,1.83.63,2.78,1.19Z"/>
        <path d="M92.42,168.33c-.22,1.51-.46,2.43-.97,3.66.58.48.82.71,1.48,1.38l-.96,1.38c-.58-.66-.81-.9-1.27-1.33-.71,1.11-1.32,1.76-2.54,2.67-.31-.51-.62-.84-1.08-1.24,1.14-.79,1.79-1.43,2.46-2.43-.75-.58-1.08-.81-2.05-1.39.54-1.29.88-2.38,1.21-3.95h-.33c-.36,0-.69.03-1.02.08v-1.54c.36.04.73.08,1.17.08h.44c.2-1.18.3-2.02.3-2.59v-.17l1.62.15c-.03.16-.08.42-.15.88s-.11.69-.29,1.72h.95c.58,0,1.01-.01,1.3-.06q-.02.25-.04.66c-.04.57-.07.9-.13,1.4.2.01.27.01.44.01.12,0,.24,0,.51-.01q.11-.23.27-.62c.6-1.47,1.14-3.25,1.21-4.14l1.76.34c-.08.17-.12.25-.3.84-.48,1.52-.72,2.16-1.3,3.46q1.72-.12,3-.27c-.39-.67-.64-1.08-1.3-1.96l1.38-.66c1.26,1.81,1.61,2.43,2.45,4.2l-1.41.85c-.24-.6-.35-.84-.48-1.14-1.99.25-2.98.36-4.9.54-.72.06-.93.09-1.23.17l-.16-.96ZM90.19,167.07c-.26,1.23-.54,2.24-.93,3.33.54.36.68.46,1.01.69.49-1.17.73-2.24.91-4.02h-.99ZM94.65,176.27h-1.57c.04-.29.06-.69.06-1.28v-3.73c0-.54-.02-.99-.06-1.35.36.03.73.04,1.24.04h4.02c.68,0,1.05-.01,1.35-.06-.05.41-.06.74-.06,1.46v3.5c0,.64.03,1.06.09,1.42h-1.61v-.71h-3.46v.71ZM94.64,174.17h3.48v-2.8h-3.48v2.8Z"/>
        <path d="M108.63,166.28c.22-1.23.3-1.75.3-2.25,0-.06,0-.15-.01-.26,1.26.18,1.98.47,1.98.79,0,.12-.02.14-.18.44-.12.21-.22.57-.43,1.37,1.02.18,1.88.63,2.55,1.3.83.83,1.23,1.84,1.23,3.09,0,2.08-1.14,3.71-3.16,4.53-.41.17-1.2.38-1.4.38-.12,0-.2-.06-.3-.21-.24-.39-.6-.78-1.04-1.09,1.51-.25,2.23-.52,2.98-1.14.79-.65,1.2-1.49,1.2-2.5,0-1.52-.97-2.75-2.41-3.03-.49,1.56-1.04,2.8-1.7,3.95.22.22.36.36.6.58.17.15.23.24.23.34,0,.25-.84,1.08-1.08,1.08-.12,0-.32-.13-.75-.57-.92,1.09-1.82,1.63-2.71,1.63-1.25,0-2.07-1.05-2.07-2.65,0-1.44.6-2.78,1.75-3.9-.21-.54-.24-.67-.57-1.71-.12-.39-.26-.81-.44-1.24.54-.12,1.24-.23,1.61-.23.15,0,.24.04.28.15q.05.08.06.43c.02.32.15.88.38,1.58.97-.55,2.07-.87,3.11-.86ZM104.86,169.64c-.56.74-.86,1.51-.86,2.22s.29,1.12.72,1.12c.46,0,.9-.31,1.51-1.06-.55-.74-.93-1.37-1.38-2.28ZM108.29,167.63c-.82.12-1.47.36-2.23.87.39.78.69,1.29,1.15,1.9.51-.99.81-1.75,1.08-2.77Z"/>
        <path d="M118.78,167.12c-.39.09-.53.13-1.07.33-.19.08-.3.11-.39.11-.33,0-.63-.62-.9-1.91.96-.04,1.3-.09,2.97-.34,1.8-.27,4.08-.62,5.28-.76,1.35-.18,2.43-.36,3-.48.1-.03.15-.03.22-.03.2,0,.27.09.4.46.12.31.21.76.21.97,0,.18-.06.24-.27.24-.32,0-.6.03-.89.08-2.53.42-4.56,2.64-4.56,4.98,0,1.75,1.38,2.91,3.72,3.12.21.01.29.09.29.27,0,.38-.15,1.09-.29,1.42-.07.17-.19.24-.39.24s-.65-.09-1.11-.22c-2.55-.75-3.88-2.37-3.88-4.67,0-1.25.41-2.4,1.19-3.39.42-.54.78-.84,1.63-1.43-1.96.33-4.04.72-5.17,1.01Z"/>
        <path d="M136.45,170.37c-.54,1-1.16,1.99-1.71,2.8-.62.88-1.32,1.33-2.05,1.33-1.08,0-1.81-.88-1.81-2.21,0-1.14.57-2.12,1.63-2.75.71-.41,1.77-.69,2.62-.69h.15c.76-1.56.96-1.98,1.47-3.15-1.38.06-2.22.18-2.83.39-.03.02-.08.02-.11.02-.26,0-.49-.78-.57-1.91.33.06.64.09,1.05.09.51,0,1.38-.04,2.29-.13q.85-.08,1.05-.2c.12-.06.2-.09.27-.09.19,0,.49.24.82.65.24.31.39.57.39.67,0,.12-.06.22-.24.41-.22.24-.92,1.53-1.79,3.36,1.42.29,1.96.45,3,.9.07-.53.13-1.14.13-1.56,0-.19-.02-.42-.04-.67.64.09,1.19.2,1.62.3.27.08.36.15.36.27,0,.1-.03.21-.12.39-.13.29-.18.48-.29,1.09-.04.32-.09.53-.18.96.77.48,1.43.95,1.72,1.23.08.08.12.15.12.22,0,.42-.65,1.4-.92,1.4-.07,0-.15-.04-.27-.14-.4-.36-.9-.78-1.2-1-.51,1.08-1.04,1.77-1.86,2.48-.71.58-1.68,1.12-2.04,1.12-.12,0-.26-.06-.36-.15-.04-.04-.04-.06-.24-.33-.23-.34-.42-.51-.78-.67,1.2-.42,1.79-.72,2.43-1.28.65-.57,1.14-1.26,1.47-2.07-1.02-.56-2.03-.9-3.21-1.09ZM132.39,172.17c0,.36.13.58.38.58.33,0,.92-.74,1.86-2.36-1.42.15-2.23.79-2.23,1.77Z"/>
        <path d="M150.89,168.59q-.03-.74-.04-1.67c-.13.01-.27.01-.33.01-.99,0-2.26-.1-2.79-.24-.15-.04-.18-.07-.18-.22,0-.33.04-.74.15-1.32.84.17,1.88.27,2.77.27.08,0,.21,0,.38-.01v-.99c0-.53-.01-.76-.04-1.29.75.04,1.26.09,1.62.18.3.06.39.13.39.3,0,.08-.01.11-.12.35-.11.25-.12.31-.18,1.35.9-.1,1.62-.25,2.32-.46.04-.01.06-.01.08-.01.1,0,.1.01.27.49.11.32.21.71.21.83,0,.11-.04.17-.2.21-.49.17-1.78.39-2.73.5,0,1.07,0,1.11.01,1.63,1.05-.13,1.62-.29,2.81-.72.07-.03.1-.04.15-.04.09,0,.12.04.27.41.15.38.29.79.29.94,0,.08-.06.13-.17.18-.82.3-2.32.66-3.27.76.03.57.06.88.15,2.05.84.25,1.18.39,1.83.74.72.36,1.11.61,1.75,1.12.12.09.17.17.17.29,0,.1-.14.36-.42.81-.33.5-.5.69-.6.69-.04,0-.09-.01-.13-.06-.9-.85-1.48-1.28-2.49-1.77-.06.72-.22,1.12-.63,1.5-.51.49-1.37.76-2.43.76-1.85,0-2.98-.81-2.98-2.12,0-.57.24-1.12.64-1.5.58-.54,1.47-.82,2.59-.82.36,0,.68.03,1.05.07-.07-.97-.11-1.32-.12-1.63-.34.01-.54.01-.72.01-1.04,0-2.29-.16-3-.37-.15-.05-.21-.12-.21-.24,0-.23.09-.71.23-1.32.93.23,2.11.36,3.22.36h.43ZM149.86,173.16c-.96,0-1.49.29-1.49.79,0,.45.44.69,1.28.69.97,0,1.43-.34,1.43-1.09v-.25c-.39-.11-.69-.14-1.21-.14Z"/>
        <path d="M164.48,163.67c.37.1.48.18.48.34,0,.11-.01.15-.09.36-.16.43-.29,1.2-.34,2.25-.12,2.42-.18,4.29-.18,5.77,0,.48.04.84.12,1.08.16.5.69.75,1.53.75,1.35,0,2.62-.55,3.79-1.65.54-.51.87-.92,1.43-1.74.09.48.21.79.54,1.47.04.12.08.21.08.34,0,.27-.29.63-1.04,1.3-1.49,1.33-3.13,2.03-4.86,2.03-1.14,0-1.98-.29-2.52-.83-.57-.6-.79-1.38-.79-2.86,0-1.17.02-2.07.13-5.57.02-.52.03-.84.03-.97,0-1.28-.02-1.65-.11-2.29.77.03,1.35.09,1.8.21Z"/>
        <path d="M181.22,172.38c1.08.36,1.54.55,2.31.99.99.57,1.15.72,1.15,1,0,.14-.2.45-.51.86-.22.29-.31.36-.43.36q-.09,0-.59-.45c-.54-.5-1.12-.86-1.89-1.16,0,1.23-.93,1.91-2.64,1.91-1.53,0-2.45-.67-2.45-1.79s1.05-1.98,2.52-1.98c.27,0,.48.01,1.04.06-.11-1.8-.15-3.04-.16-4.51,0-.88-.03-1.16-.14-1.63.63.01,1.31.07,1.61.13.21.06.27.12.27.27,0,.08,0,.09-.09.27-.1.25-.16.85-.18,1.86.95-.04,1.46-.13,2.61-.45.03-.02.06-.02.08-.02.04,0,.09.02.11.04.1.14.3.99.3,1.32,0,.13-.04.17-.58.29-.9.18-1.61.27-2.49.29.02.73.04,1.15.16,2.34ZM178.62,173.4c-.72,0-1.1.21-1.1.63,0,.36.33.53,1.01.53s1.02-.17,1.15-.54c.04-.12.06-.2.06-.46-.32-.11-.62-.15-1.12-.15Z"/>
        <path d="M193.2,167.1c.97-.25,1.62-.34,2.32-.34,2.13,0,3.36,1.26,3.36,3.42,0,1.88-.81,3.39-2.45,4.59-.87.64-2.19,1.29-2.62,1.29-.2,0-.24-.04-.56-.5-.22-.34-.45-.55-.82-.83,1.72-.58,2.45-.96,3.22-1.63.9-.79,1.35-1.75,1.35-2.89,0-1.22-.57-1.91-1.57-1.91-.81,0-1.86.31-3.22.97-.2.09-.3.17-.55.35-.06.03-.12.06-.18.06-.29,0-.77-.84-1.1-1.96.55-.04.84-.12,2.82-.62ZM194.21,163.44c.54.17,1.35.32,2.09.41.3.03.4.04,1.17.08.22,0,.29.06.29.22,0,.5-.11,1.31-.2,1.46-.03.09-.11.12-.21.12-.34,0-1.56-.17-2.26-.31-1.19-.24-2.22-.54-2.43-.71-.05-.04-.08-.11-.08-.17,0-.12.31-.93.46-1.21.08-.12.12-.15.21-.15q.07,0,.96.27Z"/>
        <path d="M210.68,174.74c0,.66-.53,1.18-1.18,1.18s-1.19-.52-1.19-1.18.53-1.18,1.19-1.18,1.18.52,1.18,1.18ZM210.15,172.52h-1.33l-.4-8.98h2.16l-.42,8.98Z"/>
      </g>
      <g>
        <path class="cls-8" d="M41.13,40.93c5.99-4.81,10.66-4.4,11.63-2.77.89,1.5-.2,9.39-9.11,4.98"/>
        <path class="cls-5" d="M45.37,43.51c2.15-3.69,6.52-2.97,7.64-2.44-1.95,3.62-3.96,4.96-7.64,2.44Z"/>
        <path class="cls-1" d="M48.36,45.08c-1.31,0-2.94-.38-4.99-1.39-.3-.15-.42-.51-.28-.82.15-.3.52-.42.82-.28,3.32,1.64,5.84,1.68,7.29.12,1.3-1.4,1.35-3.69,1.02-4.24-.21-.35-.72-.62-1.4-.75-.91-.16-4.27-.39-9.33,3.68-.26.21-.65.17-.86-.09-.21-.26-.17-.65.09-.86,3.68-2.96,7.53-4.43,10.31-3.92,1.04.19,1.83.66,2.23,1.32.64,1.09.43,3.95-1.18,5.69-.75.81-1.93,1.54-3.74,1.54Z"/>
        <path class="cls-8" d="M46.61,55.16c1.64-16.82-17.11-22.8-25.64-13.47-2.97,3.25-5.19,9.02-4.06,15.77-3.29,3.25-2.73,7.92,2.42,10.46,3.1,1.53,6.19,2.19,13.34,2.19,6.63,0,14.3-2.8,16.45-6.93,1.2-2.31.78-5.72-2.5-8.03Z"/>
        <path class="cls-2" d="M36.39,37.53c-.6-4.19-4.15-6.52-4.34-.47"/>
        <path class="cls-2" d="M24.71,38.59c-.51-4.2,2.31-7.38,4.07-1.58"/>
        <path class="cls-8" d="M20.25,41.65c-6.66-3.82-11.21-2.69-11.91-.92-.65,1.62,2.36,9.82,10.47,4.08"/>
        <ellipse class="cls-1" cx="35.88" cy="57.1" rx="1.44" ry="1.56" transform="translate(-8.45 6.28) rotate(-8.95)"/>
        <path class="cls-5" d="M16.98,45.47c-2.15-3.69-7.03-2.78-8.16-2.25,1.95,3.62,4.47,4.77,8.16,2.25Z"/>
        <path class="cls-5" d="M29.81,37.05c1.23,7.46-2.33,14.45-12.53,14.45,0-11.42,12.53-14.45,12.53-14.45Z"/>
        <path class="cls-5" d="M32.05,37.06c0,8.41,6.81,12.72,13.84,13.25,0-11.42-13.84-13.25-13.84-13.25Z"/>
        <path class="cls-5" d="M15.83,63.92c13.81-6.39,25.45-3.61,33.28-.74-3.13,7.57-29.25,10.15-33.28.74Z"/>
        <path class="cls-1" d="M32.67,70.73c-7.59,0-10.64-.79-13.61-2.26-2.68-1.33-4.37-3.31-4.74-5.59-.32-1.98.37-3.96,1.94-5.63-1.1-7.13,1.47-12.92,4.26-15.97,4.25-4.65,11.25-5.93,17.42-3.18,3.01,1.34,5.47,3.51,7.11,6.28,1.79,3.02,2.53,6.54,2.2,10.49,3.38,2.56,3.63,6.22,2.4,8.6-2.36,4.54-10.49,7.26-16.99,7.26ZM31.29,37.88c-3.76,0-7.35,1.46-9.87,4.22-2.64,2.89-5.06,8.42-3.91,15.26.03.2-.03.39-.17.53-1.44,1.42-2.08,3.13-1.81,4.79.3,1.88,1.75,3.54,4.07,4.69,2.8,1.38,5.71,2.13,13.07,2.13,6.88,0,14.01-2.96,15.91-6.6,1.03-1.98.75-5.1-2.31-7.25-.18-.13-.28-.34-.26-.56.71-7.25-2.49-13.19-8.56-15.89-2.01-.89-4.11-1.33-6.15-1.33Z"/>
        <ellipse cx="35.88" cy="57.1" rx="1.44" ry="1.56" transform="translate(-8.45 6.28) rotate(-8.95)"/>
        <ellipse class="cls-1" cx="28.21" cy="57.46" rx="1.56" ry="1.44" transform="translate(-30.61 82.73) rotate(-87.1)"/>
        <path class="cls-1" d="M13.6,47.44c-1.46,0-2.58-.54-3.4-1.18-2.09-1.64-2.9-4.58-2.43-5.75.29-.72.99-1.3,1.99-1.65,2.66-.93,6.69-.08,10.79,2.27.29.17.39.54.22.83-.17.29-.54.39-.83.22-5.62-3.23-8.91-2.48-9.78-2.18-.65.23-1.11.57-1.26.95-.21.53.31,2.97,2.06,4.35,1.89,1.49,4.48,1.14,7.49-.99.27-.19.65-.13.85.15.19.27.13.65-.15.85-2.23,1.58-4.07,2.14-5.55,2.14Z"/>
        <path class="cls-1" d="M36.39,38.14c-.3,0-.56-.22-.6-.52-.32-2.23-1.48-3.66-2.12-3.62-.31.02-.93.69-1,3.09-.01.34-.3.59-.63.59-.34-.01-.6-.29-.59-.63.11-3.61,1.4-4.22,2.15-4.27.03,0,.06,0,.09,0,1.46,0,2.94,2.06,3.31,4.67.05.33-.18.64-.52.69-.03,0-.06,0-.09,0Z"/>
        <path class="cls-1" d="M24.71,39.2c-.3,0-.57-.23-.6-.54-.32-2.66.61-5.08,2.07-5.39.74-.15,2.14.1,3.19,3.56.1.32-.08.66-.41.76-.32.1-.66-.08-.76-.41-.7-2.3-1.46-2.78-1.77-2.72-.62.13-1.38,1.81-1.11,4.05.04.33-.2.64-.53.68-.02,0-.05,0-.07,0Z"/>
        <path class="cls-1" d="M37.14,48.63c-.65-1.09-1.64-1.26-2.41-.7-.18.13-.11.42.12.44.71.07,1.33.3,1.98.61.22.1.44-.14.31-.35Z"/>
        <path class="cls-1" d="M26.24,49.04c.65-1.09,1.64-1.26,2.41-.7.18.13.11.42-.12.44-.71.07-1.33.3-1.98.61-.22.1-.44-.14-.31-.35Z"/>
        <circle class="cls-1" cx="33.52" cy="63.04" r=".57"/>
        <circle class="cls-1" cx="31.74" cy="63.04" r=".57"/>
        <g>
          <path class="cls-3" d="M28.29,66.11c.26-1.62,1.74-1.61,4.44-1.25,2.71.36,2.2,2.71.36,2.65s-5.11.51-4.8-1.4Z"/>
          <path class="cls-1" d="M30.83,68c-1.12,0-2.14-.12-2.67-.72-.29-.32-.39-.74-.31-1.24h0c.36-2.23,2.69-1.92,4.94-1.62,1.77.23,2.33,1.23,2.27,2.01-.06.77-.78,1.57-1.98,1.53-.34,0-.74,0-1.17.02-.36.01-.72.02-1.08.02ZM28.73,66.18c-.05.3.03.44.1.51.42.48,1.94.43,3.05.39.44-.01.85-.03,1.22-.02.66.02,1.04-.34,1.07-.71.03-.42-.42-.91-1.49-1.05-2.96-.39-3.77-.21-3.94.88h0Z"/>
        </g>
      </g>
      <g>
        <path class="cls-1" d="M323.15,163.08c1.98.16,1.35,2.34.38,3.61-.2.27-.59.3-.85.08-1.72-1.47-1.12-3.82.47-3.69Z"/>
        <path class="cls-1" d="M323.04,163.95c-.34,0-.62-.28-.62-.62v-3.92l-.99-1.38c-.2-.28-.14-.67.14-.87.28-.2.67-.14.87.14l1.1,1.54c.08.11.12.23.12.36v4.12c0,.34-.28.62-.62.62Z"/>
        <path class="cls-7" d="M307.87,188.95c1.36-.08,2.68-.26,3.95-.54,9.96-2.2,10.33-7.28,10.2-11.51s-1.05-19.4-13.27-20.23c-12.22-.83-15.37,8.9-17.74,12.05s-10.98,13.01,5.18,18.52c1.58.54,3.14.95,4.68,1.24"/>
        <polygon class="cls-6" points="320.01 153.06 313.82 152.48 316.57 158.05 322.88 158.73 320.01 153.06"/>
        <rect class="cls-6" x="313.23" y="156.2" width="6.74" height="2.93" transform="translate(166.72 -162.69) rotate(38.45)"/>
        <path class="cls-12" d="M287.3,174.63c5.12.33,8.07,5.74,6.18,11.54-4.99-2.72-7.78-5.48-6.18-11.54Z"/>
        <path class="cls-12" d="M321.5,176.79c-5.9-.82-10.43,4.27-9.51,10.87,6.27-1.75,10.04-4.05,9.51-10.87Z"/>
        <ellipse class="cls-1" cx="299.49" cy="176.98" rx="1.86" ry="1.71" transform="translate(78.07 445.29) rotate(-81.05)"/>
        <path class="cls-1" d="M299.32,167.19c1.67-.68,3.18-.04,3.89,1.27.17.31-.14.57-.47.41-1.05-.53-2.09-.79-3.22-1.01-.38-.07-.52-.54-.2-.67Z"/>
        <path class="cls-1" d="M312.63,169.75c-1.24-1.32-2.88-1.35-4.07-.46-.28.21-.11.58.26.56,1.18-.05,2.23.15,3.35.42.37.09.69-.27.46-.52Z"/>
        <path class="cls-1" d="M307.87,189.56c-.32,0-.58-.25-.6-.57-.02-.33.24-.62.57-.64,1.31-.08,2.61-.25,3.85-.53,9.99-2.21,9.83-7.44,9.72-10.9-.13-4.35-.83-8.12-2.06-11.19-2.12-5.28-5.7-8.12-10.65-8.46-9.8-.66-13.46,5.57-15.88,9.7-.49.84-.91,1.56-1.33,2.11-.12.16-.25.33-.39.51-1.69,2.2-4.83,6.29-3.64,10.22.85,2.82,3.86,5.13,8.92,6.86,1.53.52,3.07.93,4.59,1.21.33.06.54.38.48.71-.06.33-.38.55-.71.48-1.58-.3-3.18-.72-4.76-1.26-5.46-1.86-8.72-4.43-9.69-7.65-1.37-4.52,2.15-9.1,3.84-11.3.14-.18.27-.35.38-.5.38-.5.78-1.2,1.26-2,2.42-4.12,6.46-11.01,17.01-10.29,5.45.37,9.39,3.47,11.69,9.21,1.28,3.2,2.01,7.11,2.15,11.6.15,4.69-.55,9.89-10.67,12.12-1.3.29-2.66.47-4.04.55-.01,0-.02,0-.04,0Z"/>
        <path class="cls-1" d="M298.55,176.34c-.07,0-.13-.02-.19-.07-.77-.61-1.16-1.23-1.45-2.3-.04-.16.05-.33.21-.37.16-.04.33.05.37.21.29,1.08.66,1.53,1.24,1.99.13.1.15.29.05.42-.06.08-.15.11-.24.11Z"/>
        <path class="cls-1" d="M298.35,176.94c-.81,0-1.68-.47-2.38-1.28-.11-.13-.09-.32.03-.43.13-.11.32-.09.43.03.63.74,1.4,1.13,2.08,1.06.16-.02.32.1.33.27s-.1.32-.27.33c-.08,0-.15.01-.23.01Z"/>
        <path class="cls-1" d="M318.35,161.98c-.13,0-.26-.04-.37-.13-.26-.21-.31-.59-.1-.85l2.28-2.89c.13-.16.33-.25.54-.23l1.15.12-2.22-4.37-4.78-.45.68,1.37c.1.2.08.45-.06.63l-1.83,2.43c-.2.27-.58.32-.85.12-.27-.2-.32-.58-.12-.85l1.6-2.13-1-2.01c-.1-.2-.08-.43.04-.61.12-.18.34-.28.55-.26l6.19.58c.21.02.39.14.48.33l2.88,5.66c.1.2.08.43-.04.62-.13.18-.34.28-.56.26l-1.93-.21-2.07,2.62c-.12.15-.3.23-.48.23Z"/>
        <path class="cls-4" d="M308.55,182.77c-.68-1.85-3.69-3.85-5.22-3.63-1.53.22-4.76,2.08-5.76,2.02s-1.7-.74-1.82,1.61c-.12,2.35,1.72,3.55,4.17,2.69,3.41,1.94,9.79.49,8.63-2.69Z"/>
        <path class="cls-4" d="M308.55,184.87c-.76,2.94-4.99,4.67-6.27,4.24-1.28-.43-3.94-1.64-2.54-4.21,2.53.42,8.05.42,8.16-.8s.64.77.64.77Z"/>
        <path class="cls-1" d="M303.57,186.93c-1.07,0-2.22-.33-3.41-1-2.32.66-3.62.04-4.3-.61-.86-.82-1.18-2.14-.84-3.43.35-1.31.93-1.42,1.84-1.44.65-.02,1.64-.04,3.25-.88,3.58-1.88,5.67-.8,7.71,1.4.2.21.19.55-.03.75s-.55.19-.75-.03c-1.8-1.94-3.44-2.76-6.44-1.18-1.83.96-3.01.99-3.72,1q-.67.02-.84.65c-.24.91-.02,1.85.55,2.4.71.68,1.92.79,3.47.3.14-.04.3-.03.43.05,1.94,1.14,4.71,1.83,6.92-1.39.14-.21.4-.28.64-.19,0,0,.73.29,1.37.44.29.06.47.35.4.63-.06.29-.35.47-.63.4-.42-.09-.85-.23-1.14-.34-1.24,1.64-2.77,2.48-4.47,2.48Z"/>
        <path class="cls-1" d="M302.82,189.64c-.57,0-1.12-.1-1.63-.29-2.62-1.02-2.61-3.62-2.61-3.73,0-.29.24-.52.53-.52h0c.29,0,.53.24.52.54,0,.08.02,1.98,1.94,2.73,1.12.44,2.58.22,3.89-.58,1.45-.88,2.41-2.28,2.56-3.74.03-.29.29-.5.58-.47.29.03.5.29.47.58-.19,1.78-1.33,3.48-3.06,4.54-1.03.63-2.15.95-3.19.95Z"/>
        <path class="cls-1" d="M307.72,179.09c-.15,0-.29-.05-.41-.15-.27-.23-.3-.63-.08-.9.73-.86,1.61-1.32,2.49-1.27.79.04,1.53.49,2.06,1.26.2.29.13.69-.16.89-.29.2-.69.13-.89-.16-.21-.31-.57-.68-1.07-.71-.47-.02-.99.27-1.45.82-.13.15-.31.23-.49.23Z"/>
        <path class="cls-1" d="M310.79,177.99c-.15,0-.28-.11-.3-.26-.02-.17.09-.32.26-.34.71-.1,1.53-.71,1.99-1.49.09-.14.27-.19.41-.11.14.09.19.27.11.41-.56.94-1.53,1.66-2.43,1.78-.01,0-.03,0-.04,0Z"/>
        <path class="cls-1" d="M312.22,178.56c-.39,0-.8-.07-1.19-.25-.15-.07-.22-.25-.15-.4.07-.15.25-.22.4-.15.91.42,1.95.09,2.65-.26.15-.07.33-.01.4.14.07.15.01.33-.14.41-.54.26-1.24.52-1.98.52Z"/>
      </g>
    </g>
  </g>
</svg>